# This file uses centimeters as units for non-parametric coordinates.

mtllib large_door.mtl
g default
v 255.662175 -6.186050 -368.842048
v 444.518535 -6.186050 -368.842048
v 255.662175 2.834530 -368.842048
v 444.518535 2.834530 -368.842048
v 255.662175 2.834530 -386.421606
v 444.518535 2.834530 -386.421606
v 255.662175 -6.186050 -386.421606
v 444.518535 -6.186050 -386.421606
v 433.975588 2.834530 -368.842048
v 433.975588 2.834530 -386.421606
v 433.975588 -6.186050 -386.421606
v 433.975588 -6.186050 -368.842048
v 266.204950 2.834530 -368.842048
v 266.204950 2.834530 -386.421606
v 266.204950 -6.186050 -386.421606
v 266.204950 -6.186050 -368.842048
v 255.662175 227.462543 -368.842048
v 266.204950 227.462543 -368.842048
v 266.204950 227.462527 -386.421606
v 255.662175 227.462527 -386.421606
v 433.975631 227.462574 -368.842111
v 444.518535 227.462527 -368.842048
v 444.518535 227.462527 -386.421606
v 433.975588 227.462527 -386.421606
v 444.518535 177.652429 -368.842048
v 433.975588 177.652445 -368.842048
v 433.975588 177.652429 -386.421606
v 444.518535 177.652429 -386.421606
v 255.662175 177.652429 -368.842048
v 255.662175 177.652429 -386.421606
v 266.204950 177.652429 -386.421606
v 266.204950 177.652429 -368.842048
v 266.204950 227.462574 -368.842048
v 266.204950 227.462574 -386.421622
v 266.204950 177.652476 -368.842048
v 266.204950 177.652476 -386.421622
v 266.204950 227.462543 -382.797677
v 255.662175 227.462543 -382.797677
v 255.662175 177.652429 -382.797677
v 255.662175 2.834530 -382.797677
v 255.662175 -6.186050 -382.797677
v 266.204950 -6.186050 -382.797677
v 433.975588 -6.186050 -382.797677
v 444.518535 -6.186050 -382.797677
v 444.518535 2.834530 -382.797677
v 444.518535 177.652429 -382.797677
v 444.518535 227.462527 -382.797677
v 433.975588 227.462543 -382.797709
v 266.204950 227.462574 -382.797677
v 266.204950 227.462543 -372.465961
v 255.662175 227.462543 -372.465961
v 255.662175 177.652429 -372.465961
v 255.662175 2.834530 -372.465961
v 255.662175 -6.186050 -372.465961
v 266.204950 -6.186050 -372.465961
v 433.975588 -6.186050 -372.465961
v 444.518535 -6.186050 -372.465961
v 444.518535 2.834530 -372.465961
v 444.518535 177.652429 -372.465961
v 444.518535 227.462527 -372.465961
v 433.975588 227.462527 -372.466040
v 266.204950 227.462574 -372.465977
v 266.204950 177.652476 -382.259260
v 433.975330 177.652429 -382.259213
v 433.975330 2.834530 -382.259213
v 266.204950 2.834530 -382.259260
v 266.204950 177.652429 -382.259260
v 266.204950 177.652476 -373.004410
v 433.975330 177.652445 -373.004442
v 433.975330 2.834530 -373.004442
v 266.204950 2.834530 -373.004410
v 266.204950 177.652429 -373.004410
vt 0.360503 0.865893
vt 0.007869 0.035564
vt 0.459104 0.811652
vt 0.073340 0.027118
vt 0.967634 0.865948
vt 0.098853 0.570728
vt 0.995029 0.875367
vt 0.967633 0.875365
vt 0.383939 0.911576
vt 0.459109 0.757609
vt 0.063166 0.035574
vt 0.063172 0.002411
vt 0.019274 0.002403
vt 0.019268 0.035566
vt 0.007768 0.596454
vt 0.388774 0.852540
vt 0.412214 0.852543
vt 0.412212 0.861960
vt 0.383942 0.875312
vt 0.485939 0.754037
vt 0.530380 0.570729
vt 0.453904 0.743024
vt 0.485940 0.743026
vt 0.063071 0.563301
vt 0.467403 0.641291
vt 0.412219 0.816280
vt 0.063065 0.596464
vt 0.007774 0.563291
vt 0.019173 0.563293
vt 0.504867 0.027119
vt 0.467409 0.683495
vt 0.459105 0.798856
vt 0.996532 0.811699
vt 0.073339 0.450185
vt 0.996533 0.798903
vt 0.838200 0.911617
vt 0.971010 0.454997
vt 0.838203 0.875353
vt 0.866473 0.862028
vt 0.504866 0.450187
vt 0.866475 0.852611
vt 0.446004 0.916028
vt 0.866480 0.816348
vt 0.446008 0.958232
vt 0.485942 0.700621
vt 0.453907 0.700619
vt 0.967630 0.911628
vt 0.995025 0.911631
vt 0.995721 0.743054
vt 0.995720 0.754065
vt 0.098853 0.450186
vt 0.995984 0.636000
vt 0.970999 0.576859
vt 0.995985 0.593796
vt 0.967631 0.902212
vt 0.995026 0.902214
vt 0.838201 0.902200
vt 0.383940 0.902159
vt 0.051773 0.002409
vt 0.051767 0.035572
vt 0.051672 0.563299
vt 0.388778 0.825693
vt 0.412218 0.825696
vt 0.866479 0.825765
vt 0.453906 0.711631
vt 0.485941 0.711632
vt 0.995723 0.711660
vt 0.446005 0.929121
vt 0.995984 0.622907
vt 0.467406 0.654384
vt 0.459108 0.770405
vt 0.996536 0.770452
vt 0.560543 0.576822
vt 0.995723 0.700648
vt 0.504866 0.570729
vt 0.098853 0.570728
vt 0.996803 0.454999
vt 0.996792 0.576861
vt 0.838204 0.865937
vt 0.073339 0.570728
vt 0.534760 0.454958
vt 0.534749 0.576819
vt 0.530380 0.450187
vt 0.453904 0.754036
vt 0.534799 0.027260
vt 0.530382 0.027119
vt 0.970999 0.576859
vt 0.996842 0.027302
vt 0.995030 0.865951
vt 0.383943 0.865895
vt 0.098854 0.005288
vt 0.504867 0.005289
vt 0.971050 0.005230
vt 0.560594 0.005194
vt 0.530382 0.005289
vt 0.534801 0.005191
vt 0.996843 0.005233
vt 0.073340 0.005288
vt 0.560554 0.454960
vt 0.971010 0.454997
vt 0.446010 0.971325
vt 0.995986 0.580703
vt 0.560592 0.027263
vt 0.467410 0.696588
vt 0.971048 0.027300
vt 0.996537 0.757656
vt 0.098854 0.027118
vt 0.098853 0.450186
vt 0.995136 0.683425
vt 0.995132 0.654314
vt 0.468259 0.593776
vt 0.468258 0.622887
vt 0.995130 0.641221
vt 0.468256 0.635980
vt 0.468259 0.580683
vt 0.995138 0.696518
vt 0.995905 0.852631
vt 0.995909 0.825784
vt 0.360502 0.875310
vt 0.007875 0.002401
vt 0.995910 0.816367
vt 0.360500 0.902157
vt 0.995904 0.862047
vt 0.360499 0.911573
vt 0.995903 0.958172
vt 0.995900 0.929061
vt 0.995898 0.915968
vt 0.995904 0.971265
vt 0.019167 0.596456
vt 0.388773 0.861956
vt 0.388780 0.816276
vt 0.051665 0.596462
vn 0.000000 0.000000 1.000000
vn 0.000000 0.000000 1.000000
vn 0.000000 0.000000 1.000000
vn 0.000000 0.000000 1.000000
vn 0.000000 1.000000 0.000000
vn 0.000000 1.000000 0.000000
vn 0.000000 1.000000 0.000000
vn 0.000000 1.000000 0.000000
vn 0.000000 0.000000 -1.000000
vn 0.000000 0.000000 -1.000000
vn 0.000000 0.000000 -1.000000
vn 0.000000 0.000000 -1.000000
vn 0.000000 -1.000000 0.000000
vn 0.000000 -1.000000 0.000000
vn 0.000000 -1.000000 0.000000
vn 0.000000 -1.000000 0.000000
vn 1.000000 0.000000 0.000000
vn 1.000000 0.000000 0.000000
vn 1.000000 0.000000 0.000000
vn 1.000000 0.000000 0.000000
vn -1.000000 0.000000 0.000000
vn -1.000000 0.000000 0.000000
vn -1.000000 0.000000 0.000000
vn -1.000000 0.000000 0.000000
vn 0.000002 1.000000 -0.000007
vn 0.000002 1.000000 -0.000007
vn 0.000001 1.000000 -0.000001
vn 0.000001 1.000000 -0.000001
vn 0.000000 0.000000 -1.000000
vn 0.000000 0.000000 -1.000000
vn 0.000000 0.000000 -1.000000
vn 0.000000 0.000000 -1.000000
vn 0.000000 -1.000000 0.000000
vn 0.000000 -1.000000 0.000000
vn 0.000000 -1.000000 0.000000
vn 0.000000 -1.000000 0.000000
vn 0.000000 0.000000 1.000000
vn 0.000000 0.000000 1.000000
vn 0.000000 0.000000 1.000000
vn 0.000000 0.000000 1.000000
vn 0.000000 1.000000 0.000000
vn 0.000000 1.000000 0.000000
vn 0.000000 1.000000 0.000000
vn 0.000000 1.000000 0.000000
vn 0.000000 0.000000 1.000000
vn 0.000000 0.000000 1.000000
vn 0.000000 0.000000 1.000000
vn 0.000000 0.000000 1.000000
vn 1.000000 0.000000 0.000000
vn 1.000000 0.000000 0.000000
vn 1.000000 0.000000 0.000000
vn 1.000000 0.000000 0.000000
vn 0.000000 0.000000 -1.000000
vn 0.000000 0.000000 -1.000000
vn 0.000000 0.000000 -1.000000
vn 0.000000 0.000000 -1.000000
vn -1.000000 0.000000 0.000000
vn -1.000000 0.000000 0.000000
vn -1.000000 0.000000 0.000000
vn -1.000000 0.000000 0.000000
vn 0.000000 0.000000 1.000000
vn 0.000000 0.000000 1.000000
vn -0.000001 0.000000 1.000000
vn -0.000001 0.000000 1.000000
vn 1.000000 0.000000 0.000000
vn 1.000000 0.000000 0.000000
vn 1.000000 0.000000 0.000000
vn 1.000000 0.000000 0.000000
vn 0.000000 0.000000 -1.000000
vn 0.000000 0.000000 -1.000000
vn 0.000000 0.000000 -1.000000
vn 0.000000 0.000000 -1.000000
vn -1.000000 0.000000 0.000019
vn -1.000000 0.000000 0.000062
vn -1.000000 0.000000 0.000062
vn -1.000000 0.000000 0.000019
vn -0.000003 0.000001 1.000000
vn -0.000003 0.000001 1.000000
vn 0.000000 0.000000 -1.000000
vn 0.000000 0.000000 -1.000000
vn 1.000000 0.000000 0.000000
vn 1.000000 0.000000 0.000000
vn -1.000000 0.000000 0.000000
vn -1.000000 0.000000 0.000000
vn 0.000000 0.000000 -1.000000
vn 0.000000 0.000000 -1.000000
vn 0.000000 0.000000 1.000000
vn 0.000000 0.000000 1.000000
vn 0.000000 1.000000 -0.000005
vn 0.000000 1.000000 -0.000000
vn 0.000000 1.000000 -0.000000
vn 0.000000 1.000000 -0.000005
vn 0.000000 0.000001 1.000000
vn 0.000000 0.000001 1.000000
vn 0.000000 0.000001 1.000000
vn 0.000000 0.000001 1.000000
vn 0.000000 0.000000 -1.000000
vn 0.000000 0.000000 -1.000000
vn 0.000000 0.000000 -1.000000
vn 0.000000 0.000000 -1.000000
vn -0.000000 -1.000000 0.000001
vn -0.000000 -1.000000 0.000000
vn -0.000000 -1.000000 0.000000
vn -0.000000 -1.000000 0.000001
vn 0.000000 1.000000 -0.000001
vn 0.000000 1.000000 -0.000001
vn 0.000000 1.000000 -0.000005
vn 0.000000 1.000000 -0.000005
vn -1.000000 0.000000 0.000000
vn -1.000000 0.000000 0.000000
vn -1.000000 0.000000 0.000000
vn -1.000000 0.000000 0.000000
vn -1.000000 0.000000 0.000000
vn -1.000000 0.000000 0.000000
vn -1.000000 0.000000 0.000000
vn -1.000000 0.000000 0.000000
vn -1.000000 0.000000 0.000000
vn -1.000000 0.000000 0.000000
vn 0.000000 -1.000000 0.000000
vn 0.000000 -1.000000 0.000000
vn 0.000000 -1.000000 0.000000
vn 0.000000 -1.000000 0.000000
vn 0.000000 -1.000000 0.000000
vn 0.000000 -1.000000 0.000000
vn 0.000000 -1.000000 0.000000
vn 0.000000 -1.000000 0.000000
vn 1.000000 0.000000 0.000000
vn 1.000000 0.000000 0.000000
vn 1.000000 0.000000 0.000000
vn 1.000000 0.000000 0.000000
vn 1.000000 0.000000 0.000000
vn 1.000000 0.000000 0.000000
vn 1.000000 0.000000 0.000000
vn 1.000000 0.000000 0.000000
vn 1.000000 0.000000 0.000000
vn 1.000000 0.000000 0.000000
vn 0.000001 1.000000 -0.000000
vn 0.000001 1.000000 0.000000
vn 0.000001 1.000000 -0.000005
vn 0.000001 1.000000 -0.000005
vn 0.000000 1.000000 0.000000
vn 0.000000 1.000000 -0.000000
vn 0.000000 1.000000 -0.000005
vn 0.000000 1.000000 -0.000005
vn -0.000000 -1.000000 0.000000
vn -0.000000 -1.000000 0.000001
vn -0.000000 -1.000000 0.000001
vn -0.000000 -1.000000 0.000000
vn -1.000000 0.000000 -0.000062
vn -1.000000 0.000000 -0.000019
vn -1.000000 0.000000 -0.000019
vn -1.000000 0.000000 -0.000062
vn 0.000000 1.000000 0.000000
vn 0.000000 1.000000 0.000000
vn 0.000000 1.000000 0.000000
vn 0.000000 1.000000 0.000000
vn 1.000000 0.000000 0.000000
vn 1.000000 0.000000 0.000000
vn 1.000000 0.000000 0.000000
vn 1.000000 0.000000 0.000000
s 1
g Large_wooden_door All_Home
usemtl set8
f 1/98/1 16/91/2 13/107/3 3/4/4
s 2
f 17/5/5 18/89/6 50/7/7 51/8/8
s 3
f 5/88/9 14/105/10 15/93/11 7/97/12
s 4
f 54/13/13 55/14/14 16/2/15 1/120/16
s 5
f 2/130/17 57/16/18 58/17/19 4/18/20
s 6
f 54/119/21 1/1/22 3/90/23 53/19/24
s 7
f 21/20/25 22/84/26 60/22/27 61/23/28
s 3
f 11/94/29 10/103/30 6/85/31 8/96/32
s 4
f 12/28/33 56/29/34 57/129/35 2/15/36
s 1
f 9/30/37 12/92/38 2/95/39 4/86/40
s 8
f 13/116/41 9/104/42 70/31/43 71/109/44
s 3
f 15/93/11 14/105/10 10/103/30 11/94/29
s 4
f 16/2/15 55/14/14 56/29/34 12/28/33
s 1
f 13/107/3 16/91/2 12/92/38 9/30/37
s 9
f 3/4/45 13/107/46 32/108/47 29/34/48
s 10
f 13/3/49 71/32/50 72/35/51 32/33/52
s 11
f 14/105/53 5/88/54 30/77/55 31/37/56
s 12
f 53/19/57 3/90/58 29/79/59 52/38/60
s 13
f 9/30/61 4/86/62 25/83/63 26/40/64
s 14
f 4/18/65 58/17/66 59/41/67 25/39/68
s 15
f 6/85/69 10/103/70 27/99/71 28/81/72
s 16
f 70/125/73 9/128/74 26/101/75 69/44/76
s 13
f 26/40/64 25/83/63 22/21/77 21/75/78
s 15
f 28/81/72 27/99/71 24/73/79 23/82/80
s 14
f 25/39/68 59/41/67 60/117/81 22/123/82
s 12
f 52/38/60 29/79/59 17/5/83 51/8/84
s 11
f 31/37/56 30/77/55 20/78/85 19/87/86
s 9
f 29/34/48 32/108/47 18/6/87 17/80/88
s 17
f 21/20/89 61/23/90 62/49/91 33/50/92
s off
f 26/40/93 21/75/94 33/76/95 35/51/96
f 24/73/97 27/99/98 36/100/99 34/53/100
s 18
f 69/111/101 26/115/102 35/102/103 68/54/104
s 2
f 38/55/105 37/56/106 19/48/107 20/47/108
s 12
f 30/36/109 39/57/110 38/55/111 20/47/112
f 5/9/113 40/58/114 39/57/110 30/36/109
s 6
f 7/124/115 41/122/116 40/58/117 5/9/118
s 4
f 7/12/119 15/11/120 42/60/121 41/59/122
f 43/61/123 42/60/121 15/11/120 11/24/124
f 44/132/125 43/61/123 11/24/124 8/27/126
s 5
f 45/63/127 44/62/128 8/131/129 6/26/130
s 14
f 46/64/131 45/63/132 6/26/133 28/43/134
f 47/118/135 46/64/131 28/43/134 23/121/136
s 7
f 48/66/137 47/65/138 23/46/139 24/45/140
s 17
f 49/67/141 48/66/142 24/45/143 34/74/144
s 2
f 51/8/8 50/7/7 37/56/106 38/55/105
s 12
f 39/57/110 52/38/60 51/8/84 38/55/111
f 40/58/114 53/19/57 52/38/60 39/57/110
s 6
f 41/122/116 54/119/21 53/19/24 40/58/117
s 4
f 41/59/122 42/60/121 55/14/14 54/13/13
f 56/29/34 55/14/14 42/60/121 43/61/123
f 57/129/35 56/29/34 43/61/123 44/132/125
s 5
f 58/17/19 57/16/18 44/62/128 45/63/127
s 14
f 59/41/67 58/17/66 45/63/132 46/64/131
f 60/117/81 59/41/67 46/64/131 47/118/135
s 7
f 61/23/28 60/22/27 47/65/138 48/66/137
s 17
f 62/49/91 61/23/90 48/66/142 49/67/141
s 18
f 27/114/145 64/112/146 63/69/147 36/52/148
s 16
f 10/127/149 65/126/150 64/68/151 27/42/152
s 8
f 66/110/153 65/70/154 10/25/155 14/113/156
s 10
f 67/72/157 66/71/158 14/10/159 31/106/160
s 18
f 64/112/146 69/111/101 68/54/104 63/69/147
s 16
f 65/126/150 70/125/73 69/44/76 64/68/151
s 8
f 71/109/44 70/31/43 65/70/154 66/110/153
s 10
f 72/35/51 71/32/50 66/71/158 67/72/157
