# This file uses centimeters as units for non-parametric coordinates.

mtllib Small_woodendoor.mtl
g default
v 708.912791 -6.120041 -390.505356
v 708.912791 -6.120041 -495.736582
v 708.912791 2.899649 -390.505356
v 708.912791 2.899649 -495.736582
v 691.334953 2.899649 -390.505356
v 691.334953 2.899649 -495.736582
v 691.334953 -6.120041 -390.505356
v 691.334953 -6.120041 -495.736582
v 708.912791 2.899649 -485.194632
v 691.334953 2.899649 -485.194632
v 691.334953 -6.120041 -485.194632
v 708.912791 -6.120041 -485.194632
v 708.912791 2.899649 -401.047091
v 691.334953 2.899649 -401.047091
v 691.334953 -6.120041 -401.047091
v 708.912791 -6.120041 -401.047091
v 708.912791 227.505573 -390.505356
v 708.912791 227.505573 -401.047091
v 691.334953 227.505558 -401.047091
v 691.334953 227.505558 -390.505356
v 708.912729 227.505573 -485.194672
v 708.912791 227.505558 -495.736582
v 691.334953 227.505558 -495.736582
v 691.334953 227.505558 -485.194632
v 708.912791 177.700328 -495.736582
v 708.912791 177.700344 -485.194632
v 691.334953 177.700328 -485.194632
v 691.334953 177.700328 -495.736582
v 708.912791 177.700328 -390.505356
v 691.334953 177.700328 -390.505356
v 691.334953 177.700359 -401.047091
v 708.912791 177.700359 -401.047091
v 694.958539 227.505589 -401.047091
v 694.958539 227.505573 -390.505356
v 694.958539 177.700328 -390.505356
v 694.958539 2.899649 -390.505356
v 694.958539 -6.120041 -390.505356
v 694.958539 -6.120041 -401.047091
v 694.958539 -6.120041 -485.194632
v 694.958539 -6.120041 -495.736582
v 694.958539 2.899649 -495.736582
v 694.958539 177.700328 -495.736582
v 694.958539 227.505558 -495.736582
v 694.958539 227.505573 -485.194632
v 705.289205 227.505573 -401.047091
v 705.289205 227.505573 -390.505356
v 705.289205 177.700328 -390.505356
v 705.289205 2.899649 -390.505356
v 705.289205 -6.120041 -390.505356
v 705.289205 -6.120041 -401.047091
v 705.289205 -6.120041 -485.194632
v 705.289205 -6.120041 -495.736582
v 705.289205 2.899649 -495.736582
v 705.289205 177.700328 -495.736582
v 705.289205 227.505558 -495.736582
v 705.289142 227.505558 -485.194632
v 695.496904 177.700359 -401.047091
v 695.496935 177.700328 -485.194374
v 695.496935 2.899649 -485.194374
v 695.496904 2.899649 -401.047091
v 704.750840 177.700359 -401.047091
v 704.750809 177.700344 -485.194374
v 704.750809 2.899649 -485.194374
v 704.750840 2.899649 -401.047091
vt 0.179323 0.059756
vt 0.296550 0.117399
vt 0.687042 0.058198
vt 0.010142 0.050063
vt 0.179372 0.767356
vt 0.054018 0.983500
vt 0.261199 0.117401
vt 0.168397 0.767356
vt 0.126086 0.087078
vt 0.758510 0.058206
vt 0.371715 0.117399
vt 0.371716 0.072321
vt 0.312045 0.072321
vt 0.312045 0.117399
vt 0.296549 0.522305
vt 0.082355 0.059757
vt 0.082351 0.087076
vt 0.071376 0.087074
vt 0.168350 0.087075
vt 0.276761 0.477227
vt 0.447538 0.983472
vt 0.261275 0.522308
vt 0.261267 0.477229
vt 0.371715 0.477226
vt 0.458939 0.391214
vt 0.124616 0.087082
vt 0.371715 0.522305
vt 0.296549 0.477226
vt 0.312044 0.477226
vt 0.403661 0.050036
vt 0.519883 0.391208
vt 0.703963 0.058200
vt 0.686963 0.768909
vt 0.010193 0.776517
vt 0.703885 0.768910
vt 0.126122 0.616510
vt 0.540576 0.399944
vt 0.168386 0.616508
vt 0.071303 0.616507
vt 0.403712 0.776490
vt 0.082278 0.616508
vt 0.614203 0.768921
vt 0.124543 0.616514
vt 0.668750 0.768911
vt 0.201596 0.477241
vt 0.201605 0.522320
vt 0.126132 0.767359
vt 0.201529 0.117413
vt 0.137107 0.767359
vt 0.217024 0.117410
vt 0.137097 0.616510
vt 0.137061 0.087077
vt 0.356221 0.072321
vt 0.356220 0.117399
vt 0.356220 0.477226
vt 0.113645 0.059761
vt 0.113641 0.087080
vt 0.113567 0.616512
vt 0.217100 0.522317
vt 0.217091 0.477238
vt 0.631125 0.768918
vt 0.521669 0.399946
vt 0.477845 0.391211
vt 0.741588 0.058204
vt 0.685672 0.768908
vt 0.054003 0.776514
vt 0.403727 0.983475
vt 0.276694 0.117399
vt 0.179361 0.616507
vt 0.010207 0.983503
vt 0.447523 0.776487
vt 0.276770 0.522305
vt 0.447472 0.050033
vt 0.538790 0.391208
vt 0.053952 0.050060
vt 0.179325 0.087074
vt 0.053950 0.012575
vt 0.403658 0.012551
vt 0.447470 0.012548
vt 0.010139 0.012578
vt 0.594249 0.782272
vt 0.948626 0.782220
vt 0.594280 0.992020
vt 0.948657 0.991968
vt 0.993021 0.782213
vt 0.993052 0.991962
vt 0.549852 0.782278
vt 0.549883 0.992027
vt 0.594140 0.046120
vt 0.549744 0.046127
vt 0.992912 0.046061
vt 0.948517 0.046068
vt 0.948512 0.008083
vt 0.594135 0.008135
vt 0.549738 0.008141
vt 0.992907 0.008076
vt 0.082257 0.767357
vt 0.113547 0.767361
vt 0.312044 0.522305
vt 0.071380 0.059756
vt 0.168348 0.059756
vt 0.296550 0.072321
vt 0.261191 0.072324
vt 0.217015 0.072332
vt 0.124522 0.767363
vt 0.356220 0.522305
vt 0.137059 0.059759
vt 0.201520 0.072335
vt 0.071282 0.767356
vt 0.276686 0.072321
vt 0.124620 0.059763
vt 0.126084 0.059759
vt 0.519858 0.008953
vt 0.477820 0.008956
vt 0.668627 0.058201
vt 0.631002 0.058208
vt 0.479682 0.782207
vt 0.521719 0.782202
vt 0.479632 0.399952
vt 0.741510 0.768914
vt 0.458913 0.008957
vt 0.614080 0.058210
vt 0.540626 0.782200
vt 0.758432 0.768916
vt 0.460725 0.399954
vt 0.460775 0.782211
vt 0.538764 0.008952
vt 0.685549 0.058198
vn 1.000000 0.000000 0.000000
vn 1.000000 0.000000 0.000000
vn 1.000000 0.000000 0.000000
vn 1.000000 0.000000 0.000000
vn 0.000000 1.000000 0.000000
vn 0.000000 1.000000 0.000000
vn 0.000001 1.000000 0.000001
vn 0.000001 1.000000 0.000001
vn -1.000000 0.000000 -0.000000
vn -1.000000 0.000000 -0.000000
vn -1.000000 0.000000 -0.000000
vn -1.000000 0.000000 -0.000000
vn 0.000000 -1.000000 0.000000
vn 0.000000 -1.000000 0.000000
vn 0.000000 -1.000000 0.000000
vn 0.000000 -1.000000 0.000000
vn 0.000000 0.000000 -1.000000
vn 0.000000 0.000000 -1.000000
vn 0.000000 0.000000 -1.000000
vn 0.000000 0.000000 -1.000000
vn 0.000000 0.000000 1.000000
vn 0.000000 0.000000 1.000000
vn 0.000000 0.000000 1.000000
vn 0.000000 0.000000 1.000000
vn -0.000003 1.000000 -0.000001
vn -0.000003 1.000000 -0.000001
vn -0.000001 1.000000 -0.000001
vn -0.000001 1.000000 -0.000001
vn -1.000000 0.000000 -0.000000
vn -1.000000 0.000000 -0.000000
vn -1.000000 0.000000 -0.000000
vn -1.000000 0.000000 -0.000000
vn 0.000000 -1.000000 0.000000
vn 0.000000 -1.000000 0.000000
vn 0.000000 -1.000000 0.000000
vn 0.000000 -1.000000 0.000000
vn 1.000000 0.000000 0.000000
vn 1.000000 0.000000 0.000000
vn 1.000000 0.000000 0.000000
vn 1.000000 0.000000 0.000000
vn 0.000000 1.000000 0.000000
vn 0.000000 1.000000 0.000000
vn 0.000000 1.000000 0.000000
vn 0.000000 1.000000 0.000000
vn 1.000000 0.000000 0.000000
vn 1.000000 0.000000 0.000000
vn 1.000000 0.000000 0.000000
vn 1.000000 0.000000 0.000000
vn 0.000000 0.000000 -1.000000
vn 0.000000 0.000000 -1.000000
vn 0.000000 0.000000 -1.000000
vn 0.000000 0.000000 -1.000000
vn -1.000000 0.000000 -0.000000
vn -1.000000 0.000000 -0.000000
vn -1.000000 0.000000 0.000000
vn -1.000000 0.000000 0.000000
vn 0.000000 0.000000 1.000000
vn 0.000000 0.000000 1.000000
vn 0.000000 0.000000 1.000000
vn 0.000000 0.000000 1.000000
vn 1.000000 0.000000 0.000000
vn 1.000000 0.000000 0.000000
vn 1.000000 0.000000 0.000001
vn 1.000000 0.000000 0.000001
vn 0.000000 0.000000 -1.000000
vn 0.000000 0.000000 -1.000000
vn 0.000000 0.000000 -1.000000
vn 0.000000 0.000000 -1.000000
vn -1.000000 0.000000 -0.000000
vn -1.000000 0.000000 -0.000000
vn -1.000000 0.000000 -0.000000
vn -1.000000 0.000000 -0.000000
vn 0.000019 0.000000 1.000000
vn 0.000062 0.000000 1.000000
vn 0.000062 0.000000 1.000000
vn 0.000019 0.000000 1.000000
vn 1.000000 0.000001 0.000003
vn 1.000000 0.000001 0.000003
vn -1.000000 0.000000 -0.000000
vn -1.000000 0.000000 -0.000000
vn 0.000000 0.000000 -1.000000
vn 0.000000 0.000000 -1.000000
vn 0.000000 0.000000 1.000000
vn 0.000000 0.000000 1.000000
vn -1.000000 0.000000 0.000000
vn -1.000000 0.000000 0.000000
vn 1.000000 0.000000 0.000000
vn 1.000000 0.000000 0.000000
vn -0.000005 1.000000 -0.000000
vn 0.000001 1.000000 -0.000000
vn 0.000001 1.000000 -0.000000
vn -0.000005 1.000000 -0.000000
vn 1.000000 0.000001 -0.000000
vn 1.000000 0.000001 -0.000000
vn 1.000000 0.000001 -0.000000
vn 1.000000 0.000001 -0.000000
vn -1.000000 0.000000 -0.000000
vn -1.000000 0.000000 -0.000000
vn -1.000000 0.000000 -0.000000
vn -1.000000 0.000000 -0.000000
vn 0.000000 -1.000000 0.000000
vn 0.000000 -1.000000 0.000000
vn 0.000000 -1.000000 0.000000
vn 0.000000 -1.000000 0.000000
vn -0.000001 1.000000 0.000001
vn -0.000001 1.000000 0.000001
vn -0.000009 1.000000 0.000001
vn -0.000009 1.000000 0.000001
vn 0.000000 0.000000 1.000000
vn 0.000000 0.000000 1.000000
vn 0.000000 0.000000 1.000000
vn 0.000000 0.000000 1.000000
vn 0.000000 0.000000 1.000000
vn 0.000000 0.000000 1.000000
vn 0.000000 0.000000 1.000000
vn 0.000000 0.000000 1.000000
vn 0.000000 0.000000 1.000000
vn 0.000000 0.000000 1.000000
vn 0.000000 -1.000000 0.000000
vn 0.000000 -1.000000 0.000000
vn 0.000000 -1.000000 0.000000
vn 0.000000 -1.000000 0.000000
vn 0.000000 -1.000000 0.000000
vn 0.000000 -1.000000 0.000000
vn 0.000000 -1.000000 0.000000
vn 0.000000 -1.000000 0.000000
vn 0.000000 0.000000 -1.000000
vn 0.000000 0.000000 -1.000000
vn 0.000000 0.000000 -1.000000
vn 0.000000 0.000000 -1.000000
vn 0.000000 0.000000 -1.000000
vn 0.000000 0.000000 -1.000000
vn 0.000000 0.000000 -1.000000
vn 0.000000 0.000000 -1.000000
vn 0.000000 0.000000 -1.000000
vn 0.000000 0.000000 -1.000000
vn 0.000000 1.000000 -0.000001
vn 0.000000 1.000000 -0.000001
vn 0.000000 1.000000 -0.000001
vn 0.000000 1.000000 -0.000001
vn 0.000000 1.000000 -0.000000
vn 0.000000 1.000000 -0.000000
vn -0.000009 1.000000 -0.000000
vn -0.000009 1.000000 -0.000000
vn 0.000000 -1.000000 0.000000
vn 0.000000 -1.000000 0.000000
vn 0.000000 -1.000000 0.000000
vn 0.000000 -1.000000 0.000000
vn -0.000062 0.000000 1.000000
vn -0.000019 0.000000 1.000000
vn -0.000019 0.000000 1.000000
vn -0.000062 0.000000 1.000000
vn 0.000000 1.000000 0.000000
vn 0.000000 1.000000 0.000000
vn 0.000000 1.000000 0.000000
vn 0.000000 1.000000 0.000000
vn 0.000000 0.000000 -1.000000
vn 0.000000 0.000000 -1.000000
vn 0.000000 0.000000 -1.000000
vn 0.000000 0.000000 -1.000000
s 1
g Small_wooden_door All_Home
usemtl set7
f 1/80/1 16/77/2 13/75/3 3/4/4
s 2
f 17/110/5 18/68/6 45/7/7 46/103/8
s 3
f 5/91/9 14/92/10 15/93/11 7/96/12
s 4
f 49/13/13 50/14/14 16/2/15 1/102/16
s 5
f 2/100/17 52/16/18 53/17/19 4/18/20
s 6
f 49/101/21 1/1/22 3/76/23 48/19/24
s 7
f 21/20/25 22/72/26 55/22/27 56/23/28
s 3
f 11/94/29 10/89/30 6/90/31 8/95/32
s 4
f 12/28/33 51/29/34 52/99/35 2/15/36
s 1
f 9/30/37 12/78/38 2/79/39 4/73/40
s 8
f 13/127/41 9/74/42 63/31/43 64/113/44
s 3
f 15/93/11 14/92/10 10/89/30 11/94/29
s 4
f 16/2/15 50/14/14 51/29/34 12/28/33
s 1
f 13/75/3 16/77/2 12/78/38 9/30/37
s 9
f 3/4/45 13/75/46 32/66/47 29/34/48
s 10
f 13/3/49 64/32/50 61/35/51 32/33/52
s 11
f 14/92/53 5/91/54 30/85/55 31/82/56
s 12
f 48/19/57 3/76/58 29/69/59 47/38/60
s 13
f 9/30/61 4/73/62 25/71/63 26/40/64
s 14
f 4/18/65 53/17/66 54/41/67 25/39/68
s 15
f 6/90/69 10/89/70 27/81/71 28/87/72
s 16
f 63/115/73 9/128/74 26/65/75 62/44/76
s 13
f 26/40/64 25/71/63 22/21/77 21/67/78
s 15
f 28/87/72 27/81/71 24/83/79 23/88/80
s 14
f 25/39/68 54/41/67 55/97/81 22/109/82
s 12
f 47/38/60 29/69/59 17/5/83 46/8/84
s 11
f 31/82/56 30/85/55 20/86/85 19/84/86
s 9
f 29/34/48 32/66/47 18/6/87 17/70/88
s 17
f 21/20/89 56/23/90 45/7/91 18/68/92
s off
f 26/40/93 21/67/94 18/6/95 32/66/96
f 24/83/97 27/81/98 31/82/99 19/84/100
s 18
f 62/117/101 26/126/102 32/125/103 61/119/104
s 2
f 34/104/105 33/50/106 19/48/107 20/108/108
s 12
f 30/36/109 35/51/110 34/49/111 20/47/112
f 5/9/113 36/52/114 35/51/110 30/36/109
s 6
f 7/112/115 37/107/116 36/52/117 5/9/118
s 4
f 7/12/119 15/11/120 38/54/121 37/53/122
f 39/55/123 38/54/121 15/11/120 11/24/124
f 40/106/125 39/55/123 11/24/124 8/27/126
s 5
f 41/57/127 40/56/128 8/111/129 6/26/130
s 14
f 42/58/131 41/57/132 6/26/133 28/43/134
f 43/98/135 42/58/131 28/43/134 23/105/136
s 7
f 44/60/137 43/59/138 23/46/139 24/45/140
s 17
f 33/50/141 44/60/142 24/45/143 19/48/144
s 2
f 46/103/8 45/7/7 33/50/106 34/104/105
s 12
f 35/51/110 47/38/60 46/8/84 34/49/111
f 36/52/114 48/19/57 47/38/60 35/51/110
s 6
f 37/107/116 49/101/21 48/19/24 36/52/117
s 4
f 37/53/122 38/54/121 50/14/14 49/13/13
f 51/29/34 50/14/14 38/54/121 39/55/123
f 52/99/35 51/29/34 39/55/123 40/106/125
s 5
f 53/17/19 52/16/18 40/56/128 41/57/127
s 14
f 54/41/67 53/17/66 41/57/132 42/58/131
f 55/97/81 54/41/67 42/58/131 43/98/135
s 7
f 56/23/28 55/22/27 43/59/138 44/60/137
s 17
f 45/7/91 56/23/90 44/60/142 33/50/141
s 18
f 27/123/145 58/118/146 57/62/147 31/37/148
s 16
f 10/122/149 59/116/150 58/61/151 27/42/152
s 8
f 60/114/153 59/63/154 10/25/155 14/121/156
s 10
f 57/120/157 60/64/158 14/10/159 31/124/160
s 18
f 58/118/146 62/117/101 61/119/104 57/62/147
s 16
f 59/116/150 63/115/73 62/44/76 58/61/151
s 8
f 64/113/44 63/31/43 59/63/154 60/114/153
s 10
f 61/35/51 64/32/50 60/64/158 57/120/157
