# This file uses centimeters as units for non-parametric coordinates.

mtllib Porp_Dead_5.mtl
g default
v 200.196844 -0.170985 170.881954
v 220.430861 -0.170985 170.881954
v 200.196844 259.939454 170.881964
v 220.430861 259.939454 170.881964
v 200.196844 259.939454 150.647966
v 220.430861 259.939454 150.647966
v 200.196844 -0.170985 150.647966
v 220.430861 -0.170985 150.647966
v 200.196844 237.903304 170.881964
v 200.196844 237.903304 150.647966
v 220.430861 237.903304 150.647966
v 220.430861 237.903304 170.881964
v 200.196844 259.939454 131.466456
v 220.430861 259.939454 131.466456
v 220.430861 237.903304 131.466456
v 200.196844 237.903304 131.466456
v 220.430861 237.903304 319.154517
v 200.196844 237.903304 319.154517
v 220.430861 259.939454 319.154517
v 200.196844 259.939454 319.154517
v 200.196844 259.939454 214.381123
v 220.430861 259.939454 214.381123
v 220.430822 237.903304 214.381123
v 200.196844 237.903304 214.381123
v 200.196844 259.939454 237.608696
v 220.430861 259.939454 237.608696
v 220.430861 237.903304 237.608696
v 200.196844 237.903304 237.608696
v 200.196844 201.831143 170.881973
v 200.196844 201.831143 150.647966
v 220.430861 201.831143 150.647966
v 220.430861 201.831143 170.881973
v 200.196844 180.766985 170.881973
v 200.196844 180.766985 150.647966
v 220.430861 180.766985 150.647966
v 220.430861 180.766985 170.881973
v 220.430861 14.697901 170.881954
v 200.196844 14.697901 170.881954
v 200.196844 14.697897 150.647966
v 220.430861 14.697897 150.647966
v 220.430861 30.954913 170.881964
v 200.196844 30.954913 170.881964
v 200.196844 30.954911 150.647966
v 220.430861 30.954911 150.647966
v 200.196844 16.396816 166.302233
v 200.196844 16.396814 155.227697
v 200.196844 29.255996 166.302233
v 200.196844 29.255996 155.227697
v 220.430862 16.396814 155.227697
v 220.430861 16.396816 166.302233
v 220.430862 29.255996 155.227697
v 220.430861 29.255996 166.302233
v 166.927018 0.291286 166.302233
v 166.927028 0.291289 155.227697
v 166.927013 13.150485 166.302233
v 166.927013 13.150485 155.227697
v 253.700662 0.291301 155.227697
v 253.700672 0.291298 166.302233
v 253.700677 13.150466 155.227697
v 253.700677 13.150466 166.302233
vt 0.375000 0.000000
vt 0.625000 0.000000
vt 0.375000 0.250000
vt 0.625000 0.250000
vt 0.375000 0.500000
vt 0.625000 0.500000
vt 0.375000 0.750000
vt 0.625000 0.750000
vt 0.375000 1.000000
vt 0.625000 1.000000
vt 0.875000 0.000000
vt 0.875000 0.250000
vt 0.125000 0.000000
vt 0.125000 0.250000
vt 0.375000 0.226051
vt 0.125000 0.226051
vt 0.375000 0.523949
vt 0.625000 0.523949
vt 0.875000 0.226051
vt 0.625000 0.226051
vt 0.375000 0.500000
vt 0.625000 0.500000
vt 0.625000 0.523949
vt 0.375000 0.523949
vt 0.375000 0.226051
vt 0.625000 0.226051
vt 0.625000 0.250000
vt 0.375000 0.250000
vt 0.375000 0.250000
vt 0.625000 0.250000
vt 0.625000 0.226051
vt 0.375000 0.226051
vt 0.375000 0.250000
vt 0.625000 0.250000
vt 0.625000 0.226051
vt 0.375000 0.226051
vt 0.375000 0.198420
vt 0.125000 0.198420
vt 0.375000 0.551580
vt 0.625000 0.551580
vt 0.875000 0.198420
vt 0.625000 0.198420
vt 0.375000 0.176015
vt 0.125000 0.176015
vt 0.375000 0.573985
vt 0.625000 0.573985
vt 0.875000 0.176015
vt 0.625000 0.176015
vt 0.375000 0.176015
vt 0.625000 0.176015
vt 0.625000 0.198420
vt 0.375000 0.198420
vt 0.625000 0.014464
vt 0.375000 0.014464
vt 0.125000 0.014464
vt 0.375000 0.735536
vt 0.625000 0.735536
vt 0.875000 0.014464
vt 0.625000 0.030279
vt 0.375000 0.030279
vt 0.125000 0.030279
vt 0.375000 0.719721
vt 0.625000 0.719721
vt 0.875000 0.030279
vt 0.125000 0.014464
vt 0.375000 0.014464
vt 0.375000 0.030279
vt 0.125000 0.030279
vt 0.625000 0.014464
vt 0.875000 0.014464
vt 0.875000 0.030279
vt 0.625000 0.030279
vt 0.125000 0.014464
vt 0.375000 0.014464
vt 0.375000 0.030279
vt 0.125000 0.030279
vt 0.625000 0.014464
vt 0.875000 0.014464
vt 0.875000 0.030279
vt 0.625000 0.030279
vn 0.000000 0.000000 1.000000
vn 0.000000 0.000000 1.000000
vn 0.000000 -0.000000 1.000000
vn 0.000000 -0.000000 1.000000
vn 0.000000 1.000000 0.000000
vn 0.000000 1.000000 0.000000
vn 0.000000 1.000000 0.000000
vn 0.000000 1.000000 0.000000
vn 0.000000 0.000000 -1.000000
vn 0.000000 0.000000 -1.000000
vn 0.000000 0.000000 -1.000000
vn 0.000000 0.000000 -1.000000
vn 0.000000 -1.000000 0.000000
vn 0.000000 -1.000000 0.000000
vn 0.000000 -1.000000 0.000000
vn 0.000000 -1.000000 0.000000
vn 1.000000 0.000000 0.000000
vn 1.000000 0.000000 0.000000
vn 1.000000 0.000000 0.000000
vn 1.000000 0.000000 0.000000
vn -1.000000 0.000000 0.000000
vn -1.000000 0.000000 0.000000
vn -1.000000 0.000000 0.000000
vn -1.000000 0.000000 0.000000
vn -1.000000 0.000000 0.000000
vn -1.000000 0.000000 0.000000
vn -1.000000 0.000000 0.000000
vn -1.000000 0.000000 0.000000
vn 0.000000 0.000000 -1.000000
vn 0.000000 0.000000 -1.000000
vn 0.000000 0.000000 -1.000000
vn 0.000000 0.000000 -1.000000
vn 1.000000 0.000000 0.000000
vn 1.000000 0.000000 0.000000
vn 1.000000 0.000000 0.000000
vn 1.000000 0.000000 0.000000
vn 0.000000 0.000000 1.000000
vn 0.000000 0.000000 1.000000
vn 0.000000 0.000000 1.000000
vn 0.000000 0.000000 1.000000
vn 0.000000 1.000000 0.000000
vn 0.000000 1.000000 0.000000
vn 0.000000 1.000000 0.000000
vn 0.000000 1.000000 0.000000
vn 1.000000 0.000000 0.000000
vn 1.000000 0.000000 0.000000
vn 1.000000 0.000000 0.000000
vn 1.000000 0.000000 0.000000
vn 0.000000 -1.000000 0.000000
vn 0.000000 -1.000000 0.000000
vn 0.000000 -1.000000 0.000000
vn 0.000000 -1.000000 0.000000
vn -1.000000 0.000000 0.000000
vn -1.000000 0.000000 0.000000
vn -1.000000 0.000000 0.000000
vn -1.000000 0.000000 0.000000
vn 0.000000 -1.000000 0.000000
vn 0.000000 -1.000000 0.000000
vn 0.000000 -0.000000 -1.000000
vn 0.000000 -0.000000 -1.000000
vn 1.000000 -0.000001 0.000000
vn 1.000000 -0.000001 0.000000
vn 1.000000 -0.000001 0.000000
vn 1.000000 -0.000001 0.000000
vn 0.000000 1.000000 0.000000
vn 0.000000 1.000000 0.000000
vn 0.000000 1.000000 0.000000
vn 0.000000 1.000000 0.000000
vn -1.000000 0.000000 0.000000
vn -1.000000 0.000000 0.000000
vn -1.000000 0.000000 0.000000
vn -1.000000 0.000000 0.000000
vn 0.000000 1.000000 0.000000
vn 0.000000 1.000000 0.000000
vn 1.000000 -0.000000 -0.000000
vn 1.000000 -0.000000 -0.000000
vn -1.000000 0.000000 0.000000
vn -1.000000 0.000000 0.000000
vn 0.000000 1.000000 0.000000
vn 0.000000 1.000000 0.000000
vn 1.000000 0.000000 0.000000
vn 1.000000 0.000000 0.000000
vn 0.000000 -0.933117 0.359573
vn 0.000000 -0.933117 0.359573
vn 0.000000 -1.000000 0.000000
vn 0.000000 -1.000000 0.000000
vn -1.000000 0.000000 0.000000
vn -1.000000 0.000000 0.000000
vn -1.000000 0.000000 0.000000
vn -1.000000 0.000000 0.000000
vn 0.000000 0.000000 -1.000000
vn 0.000000 0.000000 -1.000000
vn 0.000000 0.000000 -1.000000
vn 0.000000 0.000000 -1.000000
vn 1.000000 0.000000 0.000000
vn 1.000000 0.000000 0.000000
vn 0.000000 0.000000 1.000000
vn 0.000000 0.000000 1.000000
vn 0.000000 0.000000 1.000000
vn 0.000000 0.000000 1.000000
vn -1.000000 0.000000 0.000000
vn -1.000000 0.000000 0.000000
vn 0.000000 0.000000 -1.000000
vn 0.000000 0.000000 -1.000000
vn 1.000000 0.000000 0.000000
vn 1.000000 0.000000 0.000000
vn 0.000000 -0.759583 0.650411
vn 0.000000 -0.759583 0.650411
vn 1.000000 0.000001 -0.000001
vn 1.000000 0.000001 -0.000001
vn 1.000000 0.000001 -0.000001
vn 1.000000 0.000001 -0.000001
vn 0.000000 0.769761 -0.638333
vn 0.000000 0.769761 -0.638333
vn -1.000000 0.000000 0.000000
vn -1.000000 0.000000 0.000000
vn -1.000000 0.000000 0.000000
vn -1.000000 0.000000 0.000000
vn 0.000000 -0.000000 1.000000
vn 0.000000 -0.000000 1.000000
vn -1.000000 -0.000001 -0.000000
vn -1.000000 -0.000001 -0.000000
vn -1.000000 -0.000001 -0.000000
vn -1.000000 -0.000001 -0.000000
vn 0.000000 0.000000 -1.000000
vn 0.000000 0.000000 -1.000000
vn 1.000000 -0.000001 -0.000000
vn 1.000000 -0.000001 -0.000000
vn 1.000000 -0.000001 -0.000000
vn 1.000000 -0.000001 -0.000000
vn 0.000000 -0.000000 1.000000
vn 0.000000 -0.000000 1.000000
vn -1.000000 0.000000 0.000000
vn -1.000000 0.000000 0.000000
vn 1.000000 0.000000 0.000000
vn 1.000000 0.000000 0.000000
vn -1.000000 -0.000000 0.000000
vn -1.000000 -0.000000 0.000000
vn -1.000000 -0.000000 0.000000
vn -1.000000 -0.000000 0.000000
vn -1.000000 0.000000 0.000000
vn -1.000000 0.000000 0.000000
vn -1.000000 0.000000 0.000000
vn -1.000000 0.000000 0.000000
vn -1.000000 0.000000 0.000000
vn -1.000000 0.000000 0.000000
vn -1.000000 0.000000 0.000000
vn -1.000000 0.000000 0.000000
vn -1.000000 0.000000 0.000000
vn -1.000000 0.000000 0.000000
vn -1.000000 0.000000 0.000000
vn -1.000000 0.000000 0.000000
vn 1.000000 0.000000 0.000000
vn 1.000000 0.000000 0.000000
vn 1.000000 0.000000 0.000000
vn 1.000000 0.000000 0.000000
vn 1.000000 0.000000 -0.000000
vn 1.000000 0.000000 -0.000000
vn 1.000000 0.000000 -0.000000
vn 1.000000 0.000000 -0.000000
vn 1.000000 0.000000 0.000000
vn 1.000000 0.000000 0.000000
vn 1.000000 0.000000 0.000000
vn 1.000000 0.000000 0.000000
vn 1.000000 0.000000 0.000000
vn 1.000000 0.000000 0.000000
vn 1.000000 0.000000 0.000000
vn 1.000000 0.000000 0.000000
vn 0.435719 -0.900083 0.000000
vn 0.435719 -0.900083 0.000000
vn 0.435719 -0.900083 0.000000
vn 0.435719 -0.900083 0.000000
vn -0.000000 0.000000 1.000000
vn -0.000000 0.000000 1.000000
vn -0.000000 0.000000 1.000000
vn -0.000000 0.000000 1.000000
vn -0.435719 0.900083 0.000000
vn -0.435719 0.900083 0.000000
vn -0.435719 0.900083 0.000000
vn -0.435719 0.900083 0.000000
vn -0.000000 0.000000 -1.000000
vn -0.000000 0.000000 -1.000000
vn -0.000000 0.000000 -1.000000
vn -0.000000 0.000000 -1.000000
vn -0.435719 -0.900083 0.000000
vn -0.435719 -0.900083 0.000000
vn -0.435719 -0.900083 0.000000
vn -0.435719 -0.900083 0.000000
vn -0.000000 0.000000 -1.000000
vn -0.000000 0.000000 -1.000000
vn -0.000000 0.000000 -1.000000
vn -0.000000 0.000000 -1.000000
vn 0.435719 0.900083 0.000000
vn 0.435719 0.900083 0.000000
vn 0.435719 0.900083 0.000000
vn 0.435719 0.900083 0.000000
vn 0.000000 0.000000 1.000000
vn 0.000000 0.000000 1.000000
vn 0.000000 0.000000 1.000000
vn 0.000000 0.000000 1.000000
s 1
g pCube5
usemtl initialShadingGroup
f 1/1/1 2/2/2 37/53/3 38/54/4
s off
f 3/3/5 4/4/6 6/6/7 5/5/8
s 2
f 39/56/9 40/57/10 8/8/11 7/7/12
s off
f 7/7/13 8/8/14 2/10/15 1/9/16
f 2/2/17 8/11/18 40/58/19 37/53/20
f 7/13/21 1/1/22 38/54/23 39/55/24
s 3
f 10/16/25 9/15/26 3/3/27 5/14/28
s off
f 13/21/29 14/22/30 15/23/31 16/24/32
s 4
f 12/20/33 11/19/34 6/12/35 4/4/36
s off
f 18/25/37 17/26/38 19/27/39 20/28/40
f 5/5/41 6/6/42 14/22/43 13/21/44
f 6/6/45 11/18/46 15/23/47 14/22/48
f 11/18/49 10/17/50 16/24/51 15/23/52
f 10/17/53 5/5/54 13/21/55 16/24/56
s 5
f 9/15/57 12/20/58 23/31/59 24/32/60
s 6
f 12/20/61 4/4/62 22/30/63 23/31/64
s 7
f 4/4/65 3/3/66 21/29/67 22/30/68
s 8
f 3/3/69 9/15/70 24/32/71 21/29/72
s 7
f 22/30/68 21/29/67 25/33/73 26/34/74
s 6
f 23/31/64 22/30/63 26/34/75 27/35/76
s 8
f 21/29/72 24/32/71 28/36/77 25/33/78
s 7
f 26/34/74 25/33/73 20/28/79 19/27/80
s 6
f 27/35/76 26/34/75 19/27/81 17/26/82
s 9
f 28/36/83 27/35/84 17/26/85 18/25/86
s 8
f 25/33/78 28/36/77 18/25/87 20/28/88
s 3
f 30/38/89 29/37/90 9/15/26 10/16/25
s 2
f 10/17/91 11/18/92 31/40/93 30/39/94
s 4
f 32/42/95 31/41/96 11/19/34 12/20/33
s off
f 29/37/97 32/42/98 12/20/99 9/15/100
s 3
f 34/44/101 33/43/102 29/37/90 30/38/89
s 2
f 30/39/94 31/40/93 35/46/103 34/45/104
s 4
f 36/48/105 35/47/106 31/41/96 32/42/95
s 9
f 33/43/107 36/48/108 27/50/84 28/49/83
s off
f 36/48/109 32/42/110 23/51/111 27/50/112
s 5
f 32/42/113 29/37/114 24/52/60 23/51/59
s off
f 29/37/115 33/43/116 28/49/117 24/52/118
s 1
f 38/54/4 37/53/3 41/59/119 42/60/120
s off
f 54/73/121 53/74/122 55/75/123 56/76/124
s 2
f 43/62/125 44/63/126 40/57/10 39/56/9
s off
f 58/77/127 57/78/128 59/79/129 60/80/130
s 1
f 42/60/120 41/59/119 36/48/131 33/43/132
s 3
f 43/61/133 42/60/134 33/43/102 34/44/101
s 2
f 34/45/104 35/46/103 44/63/126 43/62/125
s 4
f 41/59/135 44/64/136 35/47/106 36/48/105
s off
f 39/55/137 38/54/138 45/66/139 46/65/140
f 38/54/141 42/60/142 47/67/143 45/66/144
f 42/60/145 43/61/146 48/68/147 47/67/148
f 43/61/149 39/55/150 46/65/151 48/68/152
f 37/53/153 40/58/154 49/70/155 50/69/156
f 40/58/157 44/64/158 51/71/159 49/70/160
f 44/64/161 41/59/162 52/72/163 51/71/164
f 41/59/165 37/53/166 50/69/167 52/72/168
f 46/65/169 45/66/170 53/74/171 54/73/172
f 45/66/173 47/67/174 55/75/175 53/74/176
f 47/67/177 48/68/178 56/76/179 55/75/180
f 48/68/181 46/65/182 54/73/183 56/76/184
f 50/69/185 49/70/186 57/78/187 58/77/188
f 49/70/189 51/71/190 59/79/191 57/78/192
f 51/71/193 52/72/194 60/80/195 59/79/196
f 52/72/197 50/69/198 58/77/199 60/80/200
