# This file uses centimeters as units for non-parametric coordinates.

mtllib Porp_Coffin_2.mtl
g default
v -10.690074 1.008596 171.815677
v 25.319598 1.008596 171.815677
v -10.690074 1.008596 157.778343
v 25.319598 1.008596 157.778343
v -0.687859 56.543187 171.815677
v -5.944407 53.030883 171.815677
v -9.456699 47.774334 171.815677
v -10.690074 41.573818 171.815677
v 5.512667 57.776547 171.815677
v -10.690074 41.573818 157.778343
v -9.456699 47.774334 157.778343
v -5.944407 53.030883 157.778343
v -0.687859 56.543187 157.778343
v 5.512667 57.776547 157.778343
v 24.086224 47.774334 171.815677
v 20.573932 53.030883 171.815677
v 15.317375 56.543187 171.815677
v 9.116857 57.776547 171.815677
v 25.319598 41.573818 171.815677
v 25.319598 41.573818 157.778343
v 9.116857 57.776547 157.778343
v 15.317375 56.543187 157.778343
v 20.573932 53.030883 157.778343
v 24.086224 47.774334 157.778343
vt 0.625000 0.750000
vt 0.375000 1.000000
vt 0.625000 1.000000
vt 0.125000 0.000000
vt 0.125000 0.178645
vt 0.625000 0.000000
vt 0.875000 0.000000
vt 0.375000 0.178645
vt 0.487489 0.500000
vt 0.512511 0.250000
vt 0.875000 0.178645
vt 0.487489 0.250000
vt 0.375000 0.000000
vt 0.625000 0.178645
vt 0.625000 0.571355
vt 0.375000 0.750000
vt 0.375000 0.571355
vt 0.512511 0.500000
vt 0.438688 0.256052
vt 0.375000 0.250000
vt 0.370583 0.215822
vt 0.125000 0.216538
vt 0.375000 0.533462
vt 0.375000 0.500000
vt 0.125000 0.250000
vt 0.439864 0.493722
vt 0.631887 0.216555
vt 0.625000 0.250000
vt 0.566398 0.257616
vt 0.565229 0.492446
vt 0.875000 0.250000
vt 0.625000 0.500000
vt 0.875000 0.216538
vt 0.625000 0.533463
vn -0.124809 0.992181 0.000000
vn -0.124809 0.992181 0.000000
vn 0.124809 0.992181 0.000000
vn 0.124809 0.992181 0.000000
vn 0.000000 -1.000000 0.000000
vn 0.000000 -1.000000 0.000000
vn 0.000000 -1.000000 0.000000
vn 0.000000 -1.000000 0.000000
vn 1.000000 0.000000 0.000000
vn 1.000000 0.000000 0.000000
vn 0.999652 0.026364 0.000000
vn 0.999652 0.026364 0.000000
vn -1.000000 0.000000 0.000000
vn -1.000000 0.000000 0.000000
vn -0.999652 0.026364 0.000000
vn -0.999652 0.026364 0.000000
vn -0.923880 0.382683 0.000000
vn -0.923880 0.382683 0.000000
vn -0.707107 0.707106 0.000000
vn -0.707107 0.707106 0.000000
vn -0.382683 0.923880 0.000000
vn -0.382683 0.923880 0.000000
vn 0.382683 0.923880 0.000000
vn 0.382683 0.923880 0.000000
vn 0.707107 0.707107 0.000000
vn 0.707107 0.707107 0.000000
vn 0.923880 0.382683 0.000000
vn 0.923880 0.382683 0.000000
vn 0.000000 0.000000 1.000000
vn 0.000000 0.000000 1.000000
vn 0.000000 0.000000 1.000000
vn 0.000000 0.000000 1.000000
vn 0.000000 0.000000 1.000000
vn 0.000000 0.000000 1.000000
vn 0.000000 0.000000 1.000000
vn 0.000000 0.000000 1.000000
vn 0.000000 0.000000 1.000000
vn 0.000000 0.000000 1.000000
vn 0.000000 0.000000 1.000000
vn 0.000000 0.000000 1.000000
vn 0.000000 0.000000 -1.000000
vn 0.000000 0.000000 -1.000000
vn 0.000000 0.000000 -1.000000
vn 0.000000 0.000000 -1.000000
vn 0.000000 0.000000 -1.000000
vn 0.000000 0.000000 -1.000000
vn 0.000000 0.000000 -1.000000
vn 0.000000 0.000000 -1.000000
vn 0.000000 0.000000 -1.000000
vn 0.000000 0.000000 -1.000000
vn 0.000000 0.000000 -1.000000
vn 0.000000 0.000000 -1.000000
s 1
g pCube2
usemtl initialShadingGroup
f 14/9/1 9/12/2 18/10/3 21/18/4
s off
f 3/16/5 4/1/6 2/3/7 1/2/8
s 1
f 2/6/9 4/7/10 20/11/11 19/14/12
f 3/4/13 1/13/14 8/8/15 10/5/16
f 8/8/15 7/21/17 11/22/18 10/5/16
f 7/21/17 6/20/19 12/25/20 11/22/18
f 6/20/19 5/19/21 13/26/22 12/24/20
f 5/19/21 9/12/2 14/9/1 13/26/22
f 18/10/3 17/29/23 22/30/24 21/18/4
f 17/29/23 16/28/25 23/32/26 22/30/24
f 16/28/25 15/27/27 24/33/28 23/31/26
f 15/27/27 19/14/12 20/11/11 24/33/28
s off
f 15/27/29 16/28/30 17/29/31 18/10/32 9/12/33 5/19/34 6/20/35 7/21/36 8/8/37 1/13/38 2/6/39 19/14/40
f 20/15/41 4/1/42 3/16/43 10/17/44 11/23/45 12/24/46 13/26/47 14/9/48 21/18/49 22/30/50 23/32/51 24/34/52
