# This file uses centimeters as units for non-parametric coordinates.

mtllib Porp_Coffin_4.mtl
g default
v 147.328240 0.584147 169.497398
v 147.328240 0.584147 -6.419081
v 147.328240 9.352318 169.497398
v 147.328240 9.352318 -6.419081
v 81.978478 9.352318 169.497398
v 81.978478 9.352318 -6.419081
v 81.978478 0.584148 169.497398
v 81.978478 0.584148 -6.419081
v 140.880550 9.352318 164.731204
v 140.880550 9.352318 -1.652920
v 88.426166 9.352318 -1.652920
v 88.426166 9.352318 164.731204
v 135.652974 47.698010 164.731204
v 135.652974 47.698010 -1.652920
v 93.653774 47.698010 -1.652920
v 93.653774 47.698010 164.731204
v 140.880584 32.427078 -1.652920
v 140.880584 32.427078 164.731204
v 88.426166 32.427078 164.731204
v 88.426166 32.427078 -1.652920
v 154.084098 32.427078 -1.652920
v 154.084098 32.427078 164.731204
v 75.222652 32.427078 164.731204
v 75.222652 32.427078 -1.652920
v 152.847077 38.229806 -1.652920
v 145.966663 44.486119 -1.652920
v 152.847077 38.229806 164.731204
v 145.966663 44.486119 164.731204
v 76.459656 38.229806 164.731204
v 83.340093 44.486119 164.731204
v 76.459656 38.229806 -1.652920
v 83.340093 44.486119 -1.652920
v 105.684353 49.165073 164.731204
v 105.684353 49.165073 -1.652920
v 123.622398 49.165073 164.731204
v 123.622398 49.165073 -1.652920
vt 0.375000 0.000000
vt 0.625000 0.000000
vt 0.375000 0.250000
vt 0.625000 0.250000
vt 0.375000 0.500000
vt 0.625000 0.500000
vt 0.375000 0.750000
vt 0.625000 0.750000
vt 0.375000 1.000000
vt 0.625000 1.000000
vt 0.875000 0.000000
vt 0.875000 0.250000
vt 0.125000 0.000000
vt 0.125000 0.250000
vt 0.375000 0.250000
vt 0.625000 0.250000
vt 0.625000 0.500000
vt 0.375000 0.500000
vt 0.625000 0.250000
vt 0.375000 0.500000
vt 0.625000 0.250000
vt 0.375000 0.250000
vt 0.375000 0.500000
vt 0.625000 0.500000
vt 0.375000 0.250000
vt 0.625000 0.500000
vt 0.625000 0.250000
vt 0.625000 0.250000
vt 0.375000 0.250000
vt 0.375000 0.250000
vt 0.375000 0.500000
vt 0.375000 0.500000
vt 0.625000 0.500000
vt 0.625000 0.500000
vt 0.625000 0.250000
vt 0.375000 0.250000
vt 0.375000 0.500000
vt 0.625000 0.500000
vt 0.375000 0.400000
vt 0.625000 0.400000
vt 0.375000 0.350000
vt 0.625000 0.350000
vn 1.000000 0.000000 0.000000
vn 1.000000 0.000000 0.000000
vn 1.000000 0.000000 0.000000
vn 1.000000 0.000000 0.000000
vn 0.048895 0.998804 0.000000
vn 0.121048 0.992647 0.000000
vn 0.121048 0.992647 0.000000
vn 0.048895 0.998804 0.000000
vn -1.000000 0.000000 -0.000000
vn -1.000000 0.000000 -0.000000
vn -1.000000 0.000000 -0.000000
vn -1.000000 0.000000 -0.000000
vn -0.000000 -1.000000 0.000000
vn -0.000000 -1.000000 0.000000
vn -0.000000 -1.000000 0.000000
vn -0.000000 -1.000000 0.000000
vn 0.000000 0.000000 -1.000000
vn 0.000000 0.000000 -1.000000
vn 0.000000 0.000000 -1.000000
vn 0.000000 0.000000 -1.000000
vn 0.000000 0.000000 1.000000
vn 0.000000 0.000000 1.000000
vn 0.000000 0.000000 1.000000
vn 0.000000 0.000000 1.000000
vn -0.000000 1.000000 -0.000000
vn -0.000000 1.000000 -0.000000
vn -0.000000 1.000000 -0.000000
vn -0.000000 1.000000 -0.000000
vn 0.000000 1.000000 0.000000
vn 0.000000 1.000000 0.000000
vn 0.000000 1.000000 0.000000
vn 0.000000 1.000000 0.000000
vn 0.000000 1.000000 0.000000
vn 0.000000 1.000000 0.000000
vn 0.000000 1.000000 0.000000
vn 0.000000 1.000000 0.000000
vn 0.000000 1.000000 0.000000
vn 0.000000 1.000000 0.000000
vn 0.000000 1.000000 0.000000
vn 0.000000 1.000000 0.000000
vn 1.000000 -0.000001 0.000000
vn 1.000000 -0.000001 0.000000
vn 1.000000 -0.000001 0.000000
vn 1.000000 -0.000001 0.000000
vn 0.000000 -0.000000 -1.000000
vn 0.000000 0.000000 -1.000000
vn 0.000000 0.000000 -1.000000
vn 0.000000 -0.000000 -1.000000
vn -1.000000 0.000000 -0.000000
vn -1.000000 0.000000 -0.000000
vn -1.000000 0.000000 -0.000000
vn -1.000000 0.000000 -0.000000
vn 0.000000 0.000000 1.000000
vn 0.000000 0.000000 1.000000
vn 0.000000 -0.000000 1.000000
vn 0.000000 0.000000 1.000000
vn 0.978024 0.208494 0.000000
vn 0.978024 0.208494 0.000000
vn 0.978024 0.208494 0.000000
vn 0.978024 0.208494 0.000000
vn 0.000000 0.000000 1.000000
vn 0.000000 0.000000 1.000000
vn -0.978024 0.208492 -0.000000
vn -0.978024 0.208492 -0.000000
vn -0.978024 0.208492 -0.000000
vn -0.978024 0.208492 -0.000000
vn 0.000000 -0.000001 -1.000000
vn 0.000000 -0.000000 -1.000000
vn 0.000000 -1.000000 0.000000
vn 0.000000 -1.000000 0.000000
vn 0.000000 -1.000000 0.000000
vn 0.000000 -1.000000 0.000000
vn 0.297336 0.954773 0.000000
vn 0.297336 0.954773 0.000000
vn 0.482366 0.875970 0.000000
vn 0.482366 0.875970 0.000000
vn 0.000000 -1.000000 0.000000
vn 0.000000 -1.000000 0.000000
vn 0.000000 -1.000000 0.000000
vn 0.000000 -1.000000 0.000000
vn -0.297336 0.954773 -0.000000
vn -0.297336 0.954773 -0.000000
vn -0.482366 0.875970 -0.000000
vn -0.482366 0.875970 -0.000000
vn 0.672755 0.739866 0.000000
vn 0.672755 0.739866 0.000000
vn -0.672753 0.739867 -0.000000
vn -0.672753 0.739867 -0.000000
vn 0.000000 -0.000000 -1.000000
vn 0.000000 0.000000 -1.000000
vn 0.000000 0.000000 1.000000
vn 0.000000 0.000000 1.000000
vn 0.000000 0.000000 1.000000
vn 0.000000 0.000000 1.000000
vn 0.000000 -0.000000 1.000000
vn 0.000000 -0.000001 -1.000000
vn 0.000000 -0.000000 -1.000000
vn 0.000000 -0.000000 -1.000000
vn -0.121048 0.992647 -0.000000
vn -0.048895 0.998804 -0.000000
vn -0.048895 0.998804 -0.000000
vn -0.121048 0.992647 -0.000000
vn 0.000000 -0.000000 -1.000000
vn 0.000000 -0.000000 -1.000000
vn 0.000000 -0.000000 1.000000
vn 0.000000 -0.000000 1.000000
vn 0.000000 -0.000000 1.000000
vn 0.000000 -0.000001 -1.000000
s off
g pCube4
usemtl initialShadingGroup
f 1/1/1 2/2/2 4/4/3 3/3/4
s 1
f 35/41/5 13/22/6 14/27/7 36/42/8
s off
f 5/5/9 6/6/10 8/8/11 7/7/12
f 2/10/13 1/9/14 7/7/15 8/8/16
f 4/4/17 2/2/18 8/11/19 6/12/20
f 1/1/21 3/3/22 5/14/23 7/13/24
f 3/3/25 4/4/26 10/16/27 9/15/28
f 11/17/29 10/16/30 4/4/31 6/6/32
f 6/6/33 5/5/34 12/18/35 11/17/36
f 5/5/37 3/3/38 9/15/39 12/18/40
f 9/15/41 10/16/42 17/19/43 18/29/44
s 2
f 17/19/45 10/16/46 11/17/47 20/33/48
s off
f 11/17/49 12/18/50 19/20/51 20/33/52
s 3
f 9/15/53 18/29/54 19/20/55 12/18/56
s off
f 22/30/57 21/21/58 25/35/59 27/36/60
s 3
f 18/29/54 13/22/61 35/41/62
s off
f 24/34/63 23/23/64 29/37/65 31/38/66
s 2
f 34/40/67 20/33/48 15/24/68
s off
f 18/29/69 17/19/70 21/21/71 22/30/72
s 5
f 14/27/73 13/22/74 28/25/75 26/28/76
s off
f 20/33/77 19/20/78 23/23/79 24/34/80
s 6
f 16/31/81 15/24/82 32/26/83 30/32/84
s 5
f 25/35/85 26/28/76 28/25/75 27/36/86
s 6
f 29/37/87 30/32/84 32/26/83 31/38/88
s 2
f 26/28/89 17/19/45 14/27/90
s 3
f 28/25/91 18/29/54 22/30/92 27/36/93
f 30/32/94 19/20/55 16/31/95
s 2
f 32/26/96 20/33/48 24/34/97 31/38/98
s 1
f 16/31/99 33/39/100 34/40/101 15/24/102
f 35/41/5 36/42/8 34/40/101 33/39/100
s 3
f 13/22/61 18/29/54 28/25/91
s 2
f 25/35/103 21/21/104 17/19/45 26/28/89
s 3
f 29/37/105 23/23/106 19/20/55 30/32/94
s 2
f 15/24/68 20/33/48 32/26/96
s 3
f 19/20/55 33/39/107 16/31/95
s 2
f 36/42/108 17/19/45 20/33/48 34/40/67
s 3
f 18/29/54 35/41/62 33/39/107 19/20/55
s 2
f 14/27/90 17/19/45 36/42/108
