# This file uses centimeters as units for non-parametric coordinates.

mtllib Wooden_wall.mtl
g default
v 244.799470 -5.413736 -624.027895
v 244.799470 -5.413736 -384.705100
v 244.799470 228.093208 -624.027895
v 244.799470 228.093208 -384.705100
v 255.295099 228.093208 -624.027895
v 255.295099 228.093208 -384.705100
v 255.295099 -5.413736 -624.027895
v 255.295099 -5.413736 -384.705100
v 244.799470 228.093208 -387.126989
v 255.295099 228.093208 -387.126989
v 255.295099 -5.413736 -387.126989
v 244.799470 -5.413736 -387.126989
v 244.799470 228.093208 -621.606037
v 255.295099 228.093208 -621.606037
v 255.295099 -5.413736 -621.606037
v 244.799470 -5.413736 -621.606037
v 253.923489 228.093208 -384.705100
v 253.923489 228.093208 -387.126989
v 253.923489 228.093208 -621.606037
v 253.923489 228.093208 -624.027895
v 253.923489 -5.413736 -624.027895
v 253.923489 -5.413736 -621.606037
v 253.923489 -5.413736 -387.126989
v 253.923489 -5.413736 -384.705100
v 246.171080 228.093208 -384.705100
v 246.171080 228.093208 -387.126989
v 246.171080 228.093208 -621.606037
v 246.171080 228.093208 -624.027895
v 246.171080 -5.413736 -624.027895
v 246.171080 -5.413736 -621.606037
v 246.171080 -5.413736 -387.126989
v 246.171080 -5.413736 -384.705100
v 244.799470 224.681351 -387.126989
v 244.799470 224.681351 -621.606037
v 244.799470 224.681351 -624.027895
v 246.171080 224.681351 -624.027895
v 253.923489 224.681351 -624.027895
v 255.295099 224.681351 -624.027895
v 255.295099 224.681351 -621.606037
v 255.295099 224.681351 -387.126989
v 255.295099 224.681351 -384.705100
v 253.923489 224.681351 -384.705100
v 246.171080 224.681351 -384.705100
v 244.799470 224.681351 -384.705100
v 244.799470 -1.929240 -387.126989
v 244.799470 -1.929240 -621.606037
v 244.799470 -1.929240 -624.027895
v 246.171080 -1.929240 -624.027895
v 253.923489 -1.929240 -624.027895
v 255.295099 -1.929240 -624.027895
v 255.295099 -1.929240 -621.606037
v 255.295099 -1.929240 -387.126989
v 255.295099 -1.929240 -384.705100
v 253.923489 -1.929240 -384.705100
v 246.171080 -1.929240 -384.705100
v 244.799470 -1.929240 -384.705100
vt 0.748728 0.007457
vt 0.648893 0.017147
vt 0.008046 0.012151
vt 0.748779 0.022049
vt 0.752150 0.985305
vt 0.009257 0.498420
vt 0.593610 0.976131
vt 0.746407 0.985325
vt 0.508952 0.511638
vt 0.503832 0.511636
vt 0.503834 0.504270
vt 0.704776 0.007611
vt 0.742984 0.007477
vt 0.654498 0.017180
vt 0.643057 0.985195
vt 0.536389 0.007802
vt 0.536380 0.022395
vt 0.508856 0.010904
vt 0.743035 0.022069
vt 0.504947 0.497186
vt 0.510067 0.497173
vt 0.535798 0.985656
vt 0.595434 0.016469
vt 0.008142 0.504155
vt 0.008140 0.511521
vt 0.574589 0.022418
vt 0.003022 0.504154
vt 0.643117 0.975299
vt 0.648722 0.975333
vt 0.503736 0.010917
vt 0.627162 0.016530
vt 0.568263 0.985675
vt 0.632795 0.006628
vt 0.632776 0.016540
vt 0.625338 0.976191
vt 0.630952 0.976202
vt 0.713942 0.985439
vt 0.708198 0.985459
vt 0.710519 0.007591
vt 0.710571 0.022183
vt 0.686176 0.017372
vt 0.680401 0.975524
vt 0.568854 0.007822
vt 0.568845 0.022414
vt 0.009239 0.491208
vt 0.504929 0.489973
vt 0.752100 0.971018
vt 0.746357 0.971037
vt 0.713892 0.971151
vt 0.508840 0.990695
vt 0.503721 0.990694
vt 0.008029 0.990579
vt 0.574015 0.971391
vt 0.568272 0.971388
vt 0.535807 0.971368
vt 0.510049 0.489960
vt 0.530637 0.022391
vt 0.530063 0.971365
vt 0.003020 0.511520
vt 0.685946 0.985454
vt 0.704827 0.022203
vt 0.508953 0.504271
vt 0.002926 0.012164
vt 0.004119 0.491220
vt 0.589839 0.006547
vt 0.002909 0.990578
vt 0.708148 0.971171
vt 0.004137 0.498433
vt 0.008027 0.004785
vt 0.503717 0.003551
vt 0.691781 0.017405
vt 0.686005 0.975557
vt 0.503719 0.997907
vt 0.008027 0.997792
vt 0.587996 0.976120
vt 0.589820 0.016459
vt 0.508837 0.003538
vt 0.002907 0.997791
vt 0.508839 0.997908
vt 0.002907 0.004798
vt 0.595453 0.006557
vt 0.627181 0.006618
vt 0.574007 0.985679
vt 0.530055 0.985652
vt 0.654557 0.007284
vt 0.648953 0.007250
vt 0.686236 0.007475
vt 0.691841 0.007509
vt 0.648662 0.985229
vt 0.530646 0.007799
vt 0.593591 0.986043
vt 0.625320 0.986103
vt 0.680341 0.985420
vt 0.630933 0.986114
vt 0.574598 0.007826
vt 0.587977 0.986032
vn -1.000000 0.000000 0.000000
vn -1.000000 0.000000 0.000000
vn -1.000000 0.000000 0.000000
vn -1.000000 0.000000 0.000000
vn 0.000000 1.000000 0.000000
vn 0.000000 1.000000 0.000000
vn 0.000000 1.000000 0.000000
vn 0.000000 1.000000 0.000000
vn 1.000000 0.000000 0.000000
vn 1.000000 0.000000 0.000000
vn 1.000000 0.000000 0.000000
vn 1.000000 0.000000 0.000000
vn 0.000000 -1.000000 0.000000
vn 0.000000 -1.000000 0.000000
vn 0.000000 -1.000000 0.000000
vn 0.000000 -1.000000 0.000000
vn 0.000000 0.000000 1.000000
vn 0.000000 0.000000 1.000000
vn 0.000000 0.000000 1.000000
vn 0.000000 0.000000 1.000000
vn -0.000000 0.000000 -1.000000
vn -0.000000 0.000000 -1.000000
vn -0.000000 0.000000 -1.000000
vn -0.000000 0.000000 -1.000000
vn 0.000000 1.000000 0.000000
vn 0.000000 1.000000 0.000000
vn 0.000000 1.000000 0.000000
vn 0.000000 1.000000 0.000000
vn 1.000000 0.000000 0.000000
vn 1.000000 0.000000 0.000000
vn 1.000000 0.000000 0.000000
vn 1.000000 0.000000 0.000000
vn 0.000000 -1.000000 0.000000
vn 0.000000 -1.000000 0.000000
vn 0.000000 -1.000000 0.000000
vn 0.000000 -1.000000 0.000000
vn -1.000000 0.000000 0.000000
vn -1.000000 0.000000 0.000000
vn -1.000000 0.000000 0.000000
vn -1.000000 0.000000 0.000000
vn 0.000000 1.000000 0.000000
vn 0.000000 1.000000 0.000000
vn 0.000000 1.000000 0.000000
vn 0.000000 1.000000 0.000000
vn 0.000000 1.000000 0.000000
vn 0.000000 1.000000 0.000000
vn 0.000000 1.000000 0.000000
vn 0.000000 1.000000 0.000000
vn -0.000000 0.000000 -1.000000
vn -0.000000 0.000000 -1.000000
vn -0.000000 0.000000 -1.000000
vn -0.000000 0.000000 -1.000000
vn 0.000000 -1.000000 0.000000
vn 0.000000 -1.000000 0.000000
vn 0.000000 -1.000000 0.000000
vn 0.000000 -1.000000 0.000000
vn 0.000000 -1.000000 0.000000
vn 0.000000 -1.000000 0.000000
vn 0.000000 -1.000000 0.000000
vn 0.000000 -1.000000 0.000000
vn 0.000000 0.000000 1.000000
vn 0.000000 0.000000 1.000000
vn 0.000000 0.000000 1.000000
vn 0.000000 0.000000 1.000000
vn -1.000000 0.000000 0.000000
vn -1.000000 0.000000 0.000000
vn -1.000000 0.000000 0.000000
vn -1.000000 0.000000 0.000000
vn -1.000000 0.000000 0.000000
vn -1.000000 0.000000 0.000000
vn -0.000000 0.000000 -1.000000
vn -0.000000 0.000000 -1.000000
vn -0.000000 0.000000 -1.000000
vn -0.000000 0.000000 -1.000000
vn -0.000000 0.000000 -1.000000
vn -0.000000 0.000000 -1.000000
vn -0.000000 0.000000 -1.000000
vn -0.000000 0.000000 -1.000000
vn 1.000000 0.000000 0.000000
vn 1.000000 0.000000 0.000000
vn 1.000000 0.000000 0.000000
vn 1.000000 0.000000 0.000000
vn 1.000000 0.000000 0.000000
vn 1.000000 0.000000 0.000000
vn 1.000000 0.000000 0.000000
vn 1.000000 0.000000 0.000000
vn 0.000000 0.000000 1.000000
vn 0.000000 0.000000 1.000000
vn 0.000000 0.000000 1.000000
vn 0.000000 0.000000 1.000000
vn 0.000000 0.000000 1.000000
vn 0.000000 0.000000 1.000000
vn 0.000000 0.000000 1.000000
vn 0.000000 0.000000 1.000000
vn -1.000000 0.000000 0.000000
vn -1.000000 0.000000 0.000000
s 1
g Wooden_house_walls7
usemtl Wall_Woof1
f 1/80/1 16/69/2 46/3/3 47/63/4
s 2
f 3/96/5 13/75/6 27/7/7 28/91/8
s 3
f 50/9/9 51/10/10 15/11/11 7/62/12
s 4
f 29/85/13 30/14/14 16/2/15 1/86/16
s 5
f 2/90/17 32/16/18 55/17/19 56/57/20
s 6
f 29/13/21 1/1/22 47/4/23 48/19/24
s 2
f 9/76/25 4/65/26 25/81/27 26/23/28
s 3
f 11/24/29 52/25/30 53/59/31 8/27/32
s 4
f 12/28/33 31/29/34 32/89/35 2/15/36
s 1
f 56/18/37 45/30/38 12/70/39 2/77/40
s 2
f 13/75/6 9/76/25 26/23/28 27/7/7
s 3
f 15/11/11 51/10/10 52/25/30 11/24/29
s 4
f 16/2/15 30/14/14 31/29/34 12/28/33
s 1
f 46/3/3 16/69/2 12/70/39 45/30/38
s 2
f 18/31/41 17/82/42 6/33/43 10/34/44
f 19/35/45 18/31/41 10/34/44 14/36/46
f 20/92/47 19/35/45 14/36/46 5/94/48
s 6
f 7/12/49 21/39/50 49/40/51 50/61/52
s 4
f 7/88/53 15/71/54 22/41/55 21/87/56
f 23/42/57 22/41/55 15/71/54 11/72/58
f 24/93/59 23/42/57 11/72/58 8/60/60
s 5
f 54/44/61 24/43/62 8/95/63 53/26/64
s 2
f 26/23/28 25/81/27 17/82/42 18/31/41
f 27/7/7 26/23/28 18/31/41 19/35/45
f 28/91/8 27/7/7 19/35/45 20/92/47
s 6
f 21/39/50 29/13/21 48/19/24 49/40/51
s 4
f 21/87/56 22/41/55 30/14/14 29/85/13
f 31/29/34 30/14/14 22/41/55 23/42/57
f 32/89/35 31/29/34 23/42/57 24/93/59
s 5
f 55/17/19 32/16/18 24/43/62 54/44/61
s 1
f 13/6/65 34/45/66 33/46/67 9/20/68
f 35/64/69 34/45/66 13/6/65 3/68/70
s 6
f 36/48/71 35/47/72 3/5/73 28/8/74
f 37/49/75 36/48/71 28/8/74 20/37/76
f 38/67/77 37/49/75 20/37/76 5/38/78
s 3
f 5/79/79 14/73/80 39/51/81 38/50/82
f 40/52/83 39/51/81 14/73/80 10/74/84
f 41/66/85 40/52/83 10/74/84 6/78/86
s 5
f 17/32/87 42/54/88 41/53/89 6/83/90
f 25/22/91 43/55/92 42/54/88 17/32/87
f 44/58/93 43/55/92 25/22/91 4/84/94
s 1
f 9/20/68 33/46/67 44/56/95 4/21/96
f 34/45/66 46/3/3 45/30/38 33/46/67
f 35/64/69 47/63/4 46/3/3 34/45/66
s 6
f 48/19/24 47/4/23 35/47/72 36/48/71
f 49/40/51 48/19/24 36/48/71 37/49/75
f 50/61/52 49/40/51 37/49/75 38/67/77
s 3
f 51/10/10 50/9/9 38/50/82 39/51/81
f 52/25/30 51/10/10 39/51/81 40/52/83
f 53/59/31 52/25/30 40/52/83 41/66/85
s 5
f 42/54/88 54/44/61 53/26/64 41/53/89
f 43/55/92 55/17/19 54/44/61 42/54/88
f 44/58/93 56/57/20 55/17/19 43/55/92
s 1
f 33/46/67 45/30/38 56/18/37 44/56/95
g default
v 241.018130 -6.339325 -368.598981
v 258.110318 -6.339325 -368.598981
v 241.018130 227.644143 -368.598981
v 258.110335 227.644143 -368.598981
v 241.018130 227.644143 -386.293288
v 258.110335 227.644143 -386.293288
v 241.018130 -6.339325 -386.293288
v 258.110318 -6.339325 -386.293288
v 256.839666 227.644143 -368.598981
v 256.839666 227.644143 -386.293288
v 256.839666 -6.339325 -386.293288
v 256.839666 -6.339325 -368.598981
v 242.288799 227.644143 -368.598981
v 242.288799 227.644143 -386.293288
v 242.288799 -6.339325 -386.293288
v 242.288799 -6.339325 -368.598981
v 258.110335 227.644143 -385.101377
v 256.839666 227.644143 -385.101342
v 242.288799 227.644143 -385.101342
v 241.018130 227.644143 -385.101377
v 241.018130 -6.339325 -385.101342
v 242.288799 -6.339325 -385.101342
v 256.839666 -6.339325 -385.101342
v 258.110318 -6.339325 -385.101342
v 258.110335 227.644143 -369.790892
v 256.839666 227.644143 -369.790892
v 242.288799 227.644143 -369.790892
v 241.018130 227.644143 -369.790892
v 241.018130 -6.339325 -369.790892
v 242.288799 -6.339325 -369.790892
v 256.839666 -6.339325 -369.790892
v 258.110318 -6.339325 -369.790892
v 256.839666 -4.814973 -368.598981
v 242.288799 -4.814973 -368.598981
v 241.018130 -4.814973 -368.598981
v 241.018130 -4.814973 -369.790892
v 241.018130 -4.814973 -385.101342
v 241.018130 -4.814973 -386.293288
v 242.288799 -4.814973 -386.293288
v 256.839666 -4.814973 -386.293288
v 258.110318 -4.814973 -386.293288
v 258.110318 -4.814973 -385.101342
v 258.110318 -4.814973 -369.790892
v 258.110318 -4.814973 -368.598981
v 242.288799 226.526661 -368.598981
v 241.018130 226.526661 -368.598981
v 241.018130 226.526661 -369.790892
v 241.018130 226.526661 -385.101377
v 241.018130 226.526661 -386.293288
v 242.288799 226.526661 -386.293288
v 256.839666 226.526661 -386.293288
v 258.110335 226.526661 -386.293288
v 258.110335 226.526661 -385.101377
v 258.110335 226.526661 -369.790892
v 258.110335 226.526661 -368.598981
v 256.839666 226.526661 -368.598981
vt 0.096036 0.004798
vt 0.827940 0.754520
vt 0.189143 0.010368
vt 0.096037 0.011128
vt 0.096258 0.976403
vt 0.187065 0.977483
vt 0.581162 0.776036
vt 0.091309 0.976404
vt 0.022562 0.011145
vt 0.168760 0.011148
vt 0.168760 0.004768
vt 0.022561 0.004815
vt 0.091086 0.004800
vt 0.827940 0.770440
vt 0.616616 0.754518
vt 0.284416 0.009878
vt 0.284362 0.016174
vt 0.254967 0.010510
vt 0.091088 0.011129
vt 0.247602 0.977613
vt 0.252888 0.977624
vt 0.276067 0.976334
vt 0.581154 0.969857
vt 0.107856 0.004764
vt 0.107856 0.011145
vt 0.102538 0.011144
vt 0.102538 0.004764
vt 0.633588 0.754518
vt 0.633588 0.770438
vt 0.249680 0.010499
vt 0.377216 0.969849
vt 0.339306 0.976880
vt 0.361338 0.986774
vt 0.361338 0.969848
vt 0.377223 0.776028
vt 0.361346 0.776027
vt 0.027733 0.976419
vt 0.022784 0.976420
vt 0.027511 0.004814
vt 0.027512 0.011144
vt 0.827938 0.974938
vt 0.633586 0.974936
vt 0.347655 0.010424
vt 0.347601 0.016721
vt 0.187075 0.972834
vt 0.247612 0.972964
vt 0.096258 0.971763
vt 0.091308 0.971764
vt 0.027732 0.971778
vt 0.174023 0.979449
vt 0.168705 0.979449
vt 0.107801 0.979445
vt 0.344269 0.972307
vt 0.339346 0.972265
vt 0.276107 0.971718
vt 0.252899 0.972975
vt 0.271184 0.971676
vt 0.597030 0.986783
vt 0.181789 0.972822
vt 0.181779 0.977471
vt 0.279439 0.016132
vt 0.183857 0.010357
vt 0.189157 0.004027
vt 0.249694 0.004157
vt 0.597039 0.776037
vt 0.597031 0.969858
vt 0.254980 0.004168
vt 0.183871 0.004015
vt 0.102482 0.979445
vt 0.352524 0.016763
vt 0.352578 0.010467
vt 0.616616 0.770438
vt 0.279493 0.009835
vt 0.581154 0.986783
vt 0.377214 0.986774
vt 0.616614 0.974936
vt 0.344229 0.976923
vt 0.271144 0.976291
vt 0.022783 0.971780
vt 0.174079 0.011148
vt 0.174079 0.004768
vt 0.827938 0.990858
vt 0.633586 0.990856
vt 0.168705 0.984126
vt 0.107801 0.984123
vt 0.616614 0.990856
vt 0.102482 0.984123
vt 0.174023 0.984127
vt 0.844912 0.770440
vt 0.844912 0.754520
vt 0.581163 0.759111
vt 0.377224 0.759102
vt 0.844910 0.974938
vt 0.361347 0.759102
vt 0.844910 0.990859
vt 0.597039 0.759111
vn 0.000000 0.000000 1.000000
vn 0.000000 0.000000 1.000000
vn 0.000000 0.000000 1.000000
vn 0.000000 0.000000 1.000000
vn 0.000000 1.000000 0.000000
vn 0.000000 1.000000 0.000000
vn 0.000000 1.000000 0.000000
vn 0.000000 1.000000 0.000000
vn 0.000000 0.000000 -1.000000
vn 0.000000 0.000000 -1.000000
vn 0.000000 0.000000 -1.000000
vn 0.000000 0.000000 -1.000000
vn 0.000000 -1.000000 0.000000
vn 0.000000 -1.000000 0.000000
vn 0.000000 -1.000000 0.000000
vn 0.000000 -1.000000 0.000000
vn 1.000000 0.000000 0.000000
vn 1.000000 0.000000 0.000000
vn 1.000000 -0.000000 0.000000
vn 1.000000 -0.000000 0.000000
vn -1.000000 0.000000 0.000000
vn -1.000000 0.000000 0.000000
vn -1.000000 0.000000 0.000000
vn -1.000000 -0.000000 0.000000
vn 0.000000 1.000000 0.000000
vn 0.000000 1.000000 0.000000
vn 0.000000 1.000000 0.000000
vn 0.000000 1.000000 0.000000
vn 0.000000 0.000000 -1.000000
vn 0.000000 0.000000 -1.000000
vn 0.000000 0.000000 -1.000000
vn 0.000000 0.000000 -1.000000
vn 0.000000 -1.000000 0.000000
vn 0.000000 -1.000000 0.000000
vn 0.000000 -1.000000 0.000000
vn 0.000000 -1.000000 0.000000
vn 0.000000 0.000000 1.000000
vn 0.000000 0.000000 1.000000
vn 0.000000 0.000000 1.000000
vn 0.000000 0.000000 1.000000
vn 0.000000 1.000000 0.000000
vn 0.000000 1.000000 0.000000
vn 0.000000 1.000000 0.000000
vn 0.000000 1.000000 0.000000
vn 0.000000 1.000000 0.000000
vn 0.000000 1.000000 0.000000
vn 0.000000 1.000000 0.000000
vn 0.000000 1.000000 0.000000
vn -1.000000 0.000000 0.000000
vn -1.000000 0.000000 0.000000
vn -1.000000 -0.000000 0.000000
vn -1.000000 -0.000000 0.000000
vn 0.000000 -1.000000 0.000000
vn 0.000000 -1.000000 0.000000
vn 0.000000 -1.000000 0.000000
vn 0.000000 -1.000000 0.000000
vn 0.000000 -1.000000 0.000000
vn 0.000000 -1.000000 0.000000
vn 0.000000 -1.000000 0.000000
vn 0.000000 -1.000000 0.000000
vn 1.000000 -0.000000 0.000000
vn 1.000000 0.000000 0.000000
vn 1.000000 0.000000 0.000000
vn 1.000000 -0.000000 0.000000
vn 0.000000 0.000000 1.000000
vn 0.000000 0.000000 1.000000
vn 0.000000 0.000000 1.000000
vn -1.000000 0.000000 0.000000
vn -1.000000 -0.000000 0.000000
vn -1.000000 -0.000000 0.000000
vn -1.000000 -0.000000 0.000000
vn 0.000000 0.000000 -1.000000
vn 0.000000 0.000000 -1.000000
vn 0.000000 0.000000 -1.000000
vn 0.000000 0.000000 -1.000000
vn 1.000000 -0.000000 0.000000
vn 1.000000 -0.000000 0.000000
vn 1.000000 -0.000000 0.000000
vn 1.000000 -0.000000 0.000000
vn 0.000000 0.000000 1.000000
vn 0.000000 0.000000 1.000000
vn 0.000000 0.000000 1.000000
vn -1.000000 0.000000 0.000000
vn -1.000000 0.000000 0.000000
vn -1.000000 0.000000 0.000000
vn -1.000000 0.000000 0.000000
vn 0.000000 0.000000 -1.000000
vn 0.000000 0.000000 -1.000000
vn 0.000000 0.000000 -1.000000
vn 0.000000 0.000000 -1.000000
vn 1.000000 0.000000 0.000000
vn 1.000000 0.000000 0.000000
vn 1.000000 0.000000 0.000000
vn 1.000000 0.000000 0.000000
vn 0.000000 0.000000 1.000000
vn 0.000000 0.000000 1.000000
s 1
g Wooden_house_walls6
usemtl wooden_pole1
f 57/164/97 72/159/98 90/99/99 91/158/100
s 2
f 59/192/101 69/161/102 83/103/103 84/187/104
s 3
f 94/176/105 95/106/106 71/107/107 63/177/108
s 4
f 85/185/109 86/110/110 72/98/111 57/186/112
s 5
f 58/169/113 88/112/114 99/113/115 100/157/116
s 6
f 85/109/117 57/97/118 91/100/119 92/115/120
s 2
f 65/162/121 60/154/122 81/170/123 82/119/124
s 3
f 67/120/125 96/121/126 97/122/127 64/123/128
s 4
f 68/124/129 87/125/130 88/168/131 58/111/132
s 1
f 100/114/133 89/126/134 68/160/135 58/163/136
s 2
f 69/161/102 65/162/121 82/119/124 83/103/103
s 3
f 71/107/107 95/106/106 96/121/126 67/120/125
s 4
f 72/98/111 86/110/110 87/125/130 68/124/129
s 1
f 90/99/99 72/159/98 68/160/135 89/126/134
s 2
f 74/127/137 73/171/138 62/129/139 66/130/140
f 75/131/141 74/127/137 66/130/140 70/132/142
f 76/188/143 75/131/141 70/132/142 61/190/144
s 6
f 63/108/145 77/135/146 93/136/147 94/105/148
s 4
f 63/191/149 71/178/150 78/137/151 77/189/152
f 79/138/153 78/137/151 71/178/150 67/179/154
f 80/172/155 79/138/153 67/179/154 64/182/156
s 5
f 98/140/157 80/139/158 64/167/159 97/166/160
s 2
f 82/119/124 81/170/123 73/171/138 74/127/137
f 83/103/103 82/119/124 74/127/137 75/131/141
f 84/187/104 83/103/103 75/131/141 76/188/143
s 6
f 77/135/146 85/109/117 92/115/120 93/136/147
s 4
f 77/189/152 78/137/151 86/110/110 85/185/109
f 87/125/130 86/110/110 78/137/151 79/138/153
f 88/168/131 87/125/130 79/138/153 80/172/155
s 5
f 99/113/115 88/112/114 80/139/158 98/140/157
s 1
f 101/141/161 90/99/99 89/126/134 112/142/162
f 102/155/163 91/158/100 90/99/99 101/141/161
s 6
f 92/115/120 91/100/119 102/143/164 103/144/165
f 93/136/147 92/115/120 103/144/165 104/145/166
f 94/105/148 93/136/147 104/145/166 105/175/167
s 3
f 95/106/106 94/176/105 105/146/168 106/147/169
f 96/121/126 95/106/106 106/147/169 107/148/170
f 97/122/127 96/121/126 107/148/170 108/165/171
s 5
f 109/150/172 98/140/157 97/166/160 108/149/173
f 110/151/174 99/113/115 98/140/157 109/150/172
f 111/153/175 100/157/116 99/113/115 110/151/174
s 1
f 112/142/162 89/126/134 100/114/133 111/152/176
f 102/155/163 101/141/161 69/102/177 59/156/178
s 6
f 103/144/165 102/143/164 59/101/179 84/104/180
f 104/145/166 103/144/165 84/104/180 76/133/181
f 105/175/167 104/145/166 76/133/181 61/134/182
s 3
f 61/184/183 70/180/184 106/147/169 105/146/168
f 107/148/170 106/147/169 70/180/184 66/181/185
f 108/165/171 107/148/170 66/181/185 62/183/186
s 5
f 73/128/187 109/150/172 108/149/173 62/173/188
f 81/118/189 110/151/174 109/150/172 73/128/187
f 111/153/175 110/151/174 81/118/189 60/174/190
s 1
f 65/116/191 112/142/162 111/152/176 60/117/192
f 69/102/177 101/141/161 112/142/162 65/116/191
