# This file uses centimeters as units for non-parametric coordinates.

mtllib Window.mtl
g default
v 407.467899 245.885782 -352.917728
v 475.608078 245.885782 -352.917728
v 407.467899 245.885782 -377.611155
v 475.608078 245.885782 -377.611155
v 407.467899 239.181794 -377.611155
v 475.608078 239.181794 -377.611155
v 471.570337 245.885782 -352.917728
v 471.570337 245.885782 -377.611155
v 471.570337 239.181794 -377.611155
v 411.505347 245.885782 -352.917728
v 411.505347 245.885782 -377.611155
v 411.505347 239.181794 -377.611155
v 467.565640 245.885782 -352.917728
v 467.565640 245.885782 -377.611155
v 467.565640 239.181820 -377.611155
v 415.510206 245.885782 -352.917728
v 415.510206 245.885782 -377.611155
v 415.510206 239.181820 -377.611155
v 415.510206 342.072445 -377.611155
v 411.505347 342.072433 -377.611155
v 471.570337 342.072433 -377.611155
v 467.565640 342.072445 -377.611155
v 471.570337 336.464755 -352.917728
v 467.565640 336.464755 -352.917728
v 415.510206 336.464755 -352.917728
v 411.505347 336.464755 -352.917728
v 411.505347 336.464755 -377.611155
v 415.510206 336.464755 -377.611155
v 467.565640 336.464755 -377.611155
v 471.570337 336.464755 -377.611155
v 407.520698 336.464755 -352.917728
v 407.520698 336.464755 -377.611155
v 407.520698 342.072433 -377.611155
v 475.555018 336.464755 -377.611155
v 475.555018 336.464755 -352.917728
v 475.555018 342.072433 -377.611155
v 415.510206 245.885782 -374.344102
v 467.565640 245.885782 -374.344102
v 415.510206 336.464755 -374.344102
v 467.565640 336.464755 -374.344102
v 418.726778 336.464755 -352.917728
v 418.726323 245.885782 -352.917728
v 419.790175 239.181820 -377.611155
v 419.790175 245.885782 -377.611155
v 419.790175 245.885782 -374.344102
v 419.790175 336.464755 -374.344102
v 419.790175 336.464755 -377.611155
v 419.790175 342.072445 -377.611155
v 464.348743 336.464755 -352.917728
v 464.349198 245.885782 -352.917728
v 463.285380 239.181820 -377.611155
v 463.285380 245.885782 -377.611155
v 463.285380 245.885782 -374.344102
v 463.285380 336.464755 -374.344102
v 463.285380 336.464755 -377.611155
v 463.285380 342.072445 -377.611155
v 438.737297 336.464755 -352.917728
v 438.748247 245.885782 -352.917728
v 437.671626 239.181820 -377.611155
v 437.671626 245.885782 -377.611155
v 437.671626 245.885782 -374.344102
v 437.671626 336.464755 -374.344102
v 437.671626 336.464755 -377.611155
v 437.671626 342.072445 -377.611155
v 444.338550 336.464755 -352.917728
v 444.327600 245.885782 -352.917728
v 445.404220 239.181820 -377.611155
v 445.404220 245.885782 -377.611155
v 445.404220 245.885782 -374.344102
v 445.404220 336.464755 -374.344102
v 445.404220 336.464755 -377.611155
v 445.404220 342.072445 -377.611155
v 467.565640 288.935760 -352.917728
v 471.570337 288.926579 -352.917728
v 471.570337 287.149541 -377.611155
v 467.565640 287.149541 -377.611155
v 467.565640 287.149541 -374.344102
v 463.285380 287.149541 -374.344102
v 445.404220 287.149541 -374.344102
v 437.671626 287.149541 -374.344102
v 419.790175 287.149541 -374.344102
v 415.510271 287.149541 -374.344102
v 415.510206 287.149541 -377.611155
v 411.505347 287.149541 -377.611155
v 411.505347 288.926579 -352.917728
v 415.510206 288.935760 -352.917728
v 467.565640 293.393308 -352.917728
v 471.570337 293.393308 -352.917728
v 471.570337 295.200983 -377.611155
v 467.565640 295.200983 -377.611155
v 467.565640 295.200983 -374.344102
v 463.285380 295.200983 -374.344102
v 445.404220 295.200983 -374.344102
v 437.671626 295.200983 -374.344102
v 419.790175 295.200983 -374.344102
v 415.510271 295.200983 -374.344102
v 415.510206 295.200983 -377.611155
v 411.505347 295.200983 -377.611155
v 411.505347 293.393308 -352.917728
v 415.510206 293.393308 -352.917728
v 467.565640 328.763580 -352.917728
v 471.570337 328.820097 -352.917728
v 471.570337 326.982782 -377.611155
v 467.565640 326.982782 -377.611155
v 467.565640 326.982782 -374.344102
v 463.285380 326.982782 -374.344102
v 445.404220 326.982782 -374.344102
v 437.671626 326.982782 -374.344102
v 419.790175 326.982782 -374.344102
v 415.510206 326.982782 -374.344102
v 415.510206 326.982782 -377.611155
v 411.505347 326.982782 -377.611155
v 411.505347 328.820097 -352.917728
v 415.510206 328.763580 -352.917728
v 467.565640 252.892311 -352.917728
v 471.570337 252.897835 -352.917728
v 471.570337 254.682168 -377.611155
v 467.565640 254.682193 -377.611155
v 467.565640 254.682193 -374.344102
v 463.285380 254.682193 -374.344102
v 445.404220 254.682193 -374.344102
v 437.671626 254.682193 -374.344102
v 419.790175 254.682372 -374.344102
v 415.510271 254.682372 -374.344102
v 415.510206 254.682193 -377.611155
v 411.505347 254.682168 -377.611155
v 411.505347 252.897835 -352.917728
v 415.510206 252.892311 -352.917728
v 445.404220 254.682193 -358.427202
v 463.285380 254.682193 -358.427202
v 463.285380 287.149541 -358.427202
v 445.404220 287.149541 -358.427202
v 463.285380 287.149541 -373.008281
v 445.404220 287.149541 -373.008281
v 463.285380 254.682193 -373.008281
v 445.404220 254.682193 -373.008281
v 437.671626 287.149541 -373.008281
v 419.790175 287.149541 -373.008281
v 437.671626 254.682193 -373.008281
v 419.790175 254.682193 -373.008281
v 419.790175 254.682193 -358.427202
v 437.671626 254.682193 -358.427202
v 437.671626 287.149541 -358.427202
v 419.790175 287.149541 -358.427202
v 445.404220 295.200983 -358.427202
v 463.285380 295.200983 -358.427202
v 463.285380 326.982782 -358.427202
v 445.404220 326.982782 -358.427202
v 463.285380 326.982782 -373.008281
v 445.404220 326.982782 -373.008281
v 463.285380 295.200983 -373.008281
v 445.404220 295.200983 -373.008281
v 437.671626 326.982782 -373.008281
v 419.790175 326.982782 -373.008281
v 437.671626 295.200983 -373.008281
v 419.790175 295.200983 -373.008281
v 419.790175 295.200983 -358.427202
v 437.671626 295.200983 -358.427202
v 437.671626 326.982782 -358.427202
v 419.790175 326.982782 -358.427202
v 475.555018 342.072433 -367.523829
v 471.570337 342.072433 -367.523829
v 467.565640 342.072445 -367.523829
v 463.285380 342.072445 -367.523829
v 445.404220 342.072445 -367.523829
v 437.671626 342.072445 -367.523829
v 419.790175 342.072445 -367.523829
v 415.510206 342.072445 -367.523829
v 411.505347 342.072433 -367.523829
v 407.520698 342.072433 -367.523829
v 407.520698 336.464755 -367.523829
v 411.505347 336.464755 -367.523829
v 411.505347 328.908441 -367.523829
v 411.505347 293.326779 -367.523829
v 411.505347 288.903499 -367.523829
v 411.505347 252.850978 -367.523829
v 411.505347 245.885782 -367.523829
v 407.467899 245.885782 -367.523829
v 407.467899 239.181794 -367.523829
v 411.505347 239.181794 -367.523829
v 415.510206 239.181820 -367.523829
v 419.790175 239.181820 -367.523829
v 437.671626 239.181820 -367.523829
v 445.404220 239.181820 -367.523829
v 463.285380 239.181820 -367.523829
v 467.565640 239.181820 -367.523829
v 471.570337 239.181794 -367.523829
v 475.608078 239.181794 -367.523829
v 475.608078 245.885782 -367.523829
v 471.570337 245.885782 -367.523829
v 471.570337 252.850978 -367.523829
v 471.570337 288.903499 -367.523829
v 471.570337 293.326779 -367.523829
v 471.570337 328.908441 -367.523829
v 471.570337 336.464755 -367.523829
v 475.555018 336.464755 -367.523829
v 411.505347 339.268888 -352.917728
v 411.505347 342.072433 -355.721212
v 415.510206 342.072445 -355.721212
v 415.510206 339.268977 -352.917728
v 467.565640 339.268977 -352.917728
v 467.565640 342.072445 -355.721212
v 471.570337 342.072433 -355.721212
v 471.570337 339.268888 -352.917728
v 418.726778 339.268977 -352.917728
v 418.726778 342.072445 -355.721212
v 407.520698 342.072433 -355.721212
v 407.520698 339.268888 -352.917728
v 475.555018 339.268888 -352.917728
v 475.555018 342.072433 -355.721212
v 438.737297 339.268977 -352.917728
v 438.737297 342.072445 -355.721212
v 464.348743 339.268977 -352.917728
v 464.348743 342.072445 -355.721212
v 444.338550 339.268977 -352.917728
v 444.338550 342.072445 -355.721212
v 407.467899 239.181794 -356.939651
v 407.467899 243.203839 -352.917728
v 411.505347 243.203839 -352.917728
v 411.505347 239.181794 -356.939651
v 475.608078 239.181794 -356.939651
v 475.608078 243.203839 -352.917728
v 471.570337 243.203839 -352.917728
v 471.570337 239.181794 -356.939651
v 415.510206 243.203839 -352.917728
v 415.510206 239.181820 -356.939651
v 467.565640 243.203839 -352.917728
v 467.565640 239.181820 -356.939651
v 418.726323 243.203839 -352.917728
v 418.726323 239.181820 -356.939651
v 438.748247 243.203839 -352.917728
v 438.748247 239.181820 -356.939651
v 464.349198 239.181820 -356.939651
v 464.349198 243.203839 -352.917728
v 444.327600 243.203839 -352.917728
v 444.327600 239.181820 -356.939651
v 416.575065 247.679558 -356.184721
v 418.724114 247.679558 -356.184721
v 466.500717 247.679558 -356.184721
v 466.500717 252.897068 -356.184721
v 466.500717 334.670992 -356.184721
v 464.350530 334.670992 -356.184721
v 416.575065 252.897068 -356.184721
v 416.575065 334.670992 -356.184721
v 418.725024 334.670992 -356.184721
v 438.748247 247.679532 -356.184721
v 444.338615 334.671005 -356.184721
v 464.351408 247.679558 -356.184721
v 438.737264 334.671005 -356.184721
v 444.327600 247.679532 -356.184721
v 444.339297 288.943253 -356.184721
v 444.339297 252.888673 -356.184721
v 464.350271 288.943253 -356.184721
v 464.350303 252.888622 -356.184721
v 466.500717 288.910889 -356.184721
v 466.500717 293.393308 -356.184721
v 416.575065 288.910889 -356.184721
v 416.575065 293.393308 -356.184721
v 418.725186 288.943253 -356.184721
v 418.725251 252.888641 -356.184721
v 438.736550 288.943253 -356.184721
v 438.736550 252.888622 -356.184721
v 444.339297 293.407259 -356.184721
v 464.350271 293.407259 -356.184721
v 466.500717 328.763580 -356.184721
v 416.575065 328.763580 -356.184721
v 418.725251 293.407323 -356.184721
v 438.736550 293.407259 -356.184721
v 444.339297 328.776494 -356.184721
v 464.350271 328.776520 -356.184721
v 418.725251 328.776520 -356.184721
v 438.736550 328.776430 -356.184721
vt 0.947062 1.829702
vt 0.943555 1.814636
vt 0.263451 1.815187
vt 0.270264 1.833024
vt 0.298040 1.813111
vt 0.305923 1.799545
vt 0.320175 1.825418
vt 0.309807 1.825212
vt 0.291322 1.857922
vt 0.936125 1.849245
vt 0.940704 1.833969
vt 0.673304 1.809366
vt 0.668498 1.821740
vt 0.601660 1.829169
vt 0.122643 1.945100
vt 0.550904 1.824378
vt 0.071746 1.945187
vt 0.572706 1.814051
vt 0.560975 1.825940
vt 0.050858 1.019191
vt 0.333467 1.824544
vt 0.538102 1.823914
vt 0.544812 1.796492
vt 0.522892 1.823993
vt 0.525674 1.796015
vt 0.567407 1.931045
vt 0.567221 1.914253
vt 0.599510 1.914351
vt 0.673961 1.713532
vt 0.054275 1.427259
vt 0.074427 1.427090
vt 0.074826 1.474802
vt 0.054675 1.474972
vt 0.125266 1.436355
vt 0.125585 1.474378
vt 0.641347 1.913716
vt 0.641000 1.930803
vt 0.938681 1.713975
vt 0.914533 1.710485
vt 0.121929 1.526203
vt 0.258358 1.728084
vt 0.071048 1.536006
vt 0.050843 1.536040
vt 0.050761 1.488199
vt 0.070967 1.488164
vt 0.163779 1.621111
vt 0.195583 1.620685
vt 0.198824 1.691402
vt 0.034277 1.488227
vt 0.607319 1.748339
vt 0.671349 1.728017
vt 0.678081 1.731057
vt 0.681314 1.740740
vt 0.662290 1.777017
vt 0.557608 1.734728
vt 0.543630 1.733197
vt 0.344188 1.707866
vt 0.346159 1.732157
vt 0.329871 1.732433
vt 0.315871 1.733223
vt 0.942268 1.727281
vt 0.265656 1.745864
vt 0.947948 1.779489
vt 0.932192 1.741419
vt 0.935764 1.731021
vt 0.576910 1.724612
vt 0.568486 1.737233
vt 0.303745 1.737283
vt 0.297230 1.722929
vt 0.526435 1.782711
vt 0.545274 1.783484
vt 0.565140 1.690779
vt 0.037835 1.427397
vt 0.346044 1.796671
vt 0.348947 1.824342
vt 0.536048 1.007274
vt 0.034418 1.019328
vt 0.533273 1.690366
vt 0.535373 1.620308
vt 0.529343 1.709166
vt 0.527294 1.733115
vt 0.451667 1.824341
vt 0.451817 1.796426
vt 0.339849 1.006972
vt 0.336796 1.619226
vt 0.337446 1.689511
vt 0.420482 1.708533
vt 0.420540 1.732484
vt 0.420095 1.796654
vt 0.420431 1.824405
vt 0.397896 1.007364
vt 0.395442 1.689279
vt 0.394058 1.618747
vt 0.453264 1.708696
vt 0.452965 1.732701
vt 0.827393 1.068465
vt 0.960404 1.069950
vt 0.960340 1.315002
vt 0.826469 1.313639
vt 0.965113 1.915714
vt 0.964984 1.932803
vt 0.811238 1.931854
vt 0.811305 1.914765
vt 0.122583 1.909957
vt 0.122273 1.728051
vt 0.071671 1.900804
vt 0.051465 1.900838
vt 0.051186 1.737022
vt 0.071391 1.736987
vt 0.034701 1.737050
vt 0.165718 1.069301
vt 0.197450 1.069649
vt 0.194786 1.317399
vt 0.315680 1.298224
vt 0.201611 1.311050
vt 0.204624 1.075576
vt 0.332184 1.078457
vt 0.395086 1.318271
vt 0.337558 1.318496
vt 0.338983 1.072178
vt 0.396247 1.072706
vt 0.522500 1.288702
vt 0.401898 1.311932
vt 0.403527 1.078487
vt 0.531256 1.078626
vt 0.569859 1.319459
vt 0.538140 1.319064
vt 0.537991 1.072258
vt 0.034788 1.063591
vt 0.051228 1.063453
vt 0.052596 1.226824
vt 0.071379 1.063284
vt 0.072748 1.226655
vt 0.122061 1.053645
vt 0.249089 1.930086
vt 0.400146 1.930541
vt 0.123580 1.235056
vt 0.249116 1.913295
vt 0.400235 1.913751
vt 0.618818 1.068611
vt 0.751848 1.069367
vt 0.750870 1.314569
vt 0.616967 1.313792
vt 0.792177 1.931736
vt 0.792283 1.914647
vt 0.122235 1.705733
vt 0.051116 1.696398
vt 0.071323 1.696363
vt 0.162560 1.377497
vt 0.194271 1.377727
vt 0.337203 1.378046
vt 0.394641 1.377863
vt 0.537426 1.378928
vt 0.036496 1.267475
vt 0.052936 1.267337
vt 0.073088 1.267169
vt 0.418874 1.930598
vt 0.123766 1.257313
vt 0.418924 1.913807
vt 0.826923 1.385896
vt 0.960812 1.387279
vt 0.958362 1.627099
vt 0.825854 1.626017
vt 0.318724 1.590916
vt 0.202234 1.614213
vt 0.201563 1.383574
vt 0.330436 1.384428
vt 0.519293 1.591718
vt 0.400839 1.612439
vt 0.401910 1.383704
vt 0.530617 1.385254
vt 0.617571 1.386052
vt 0.751440 1.386842
vt 0.750572 1.626895
vt 0.618060 1.625729
vt 0.995012 1.915899
vt 0.919491 1.809676
vt 0.931015 1.782876
vt 0.913624 1.785067
vt 0.895515 1.785969
vt 0.821286 1.786070
vt 0.789509 1.785563
vt 0.715832 1.785969
vt 0.697456 1.784831
vt 0.680269 1.783241
vt 0.934712 1.888141
vt 0.917118 1.889457
vt 0.898297 1.890244
vt 0.822994 1.888944
vt 0.790128 1.889218
vt 0.713006 1.888084
vt 0.693394 1.886624
vt 0.674616 1.883445
vt 0.582063 1.854713
vt 0.684970 1.722267
vt 0.692313 1.737956
vt 0.700815 1.720083
vt 0.705393 1.736663
vt 0.714103 1.719770
vt 0.716417 1.736336
vt 0.911542 1.721112
vt 0.907437 1.737826
vt 0.896195 1.737484
vt 0.898146 1.720966
vt 0.927589 1.723992
vt 0.920307 1.739476
vt 0.794918 1.720328
vt 0.795103 1.736819
vt 0.817544 1.720437
vt 0.817335 1.736917
vt 0.899601 1.709641
vt 0.712468 1.708320
vt 0.817754 1.708903
vt 0.794786 1.708812
vt 0.673708 1.827670
vt 0.674870 1.845000
vt 0.924267 1.846605
vt 0.932447 1.823435
vt 0.910569 1.845306
vt 0.915925 1.820521
vt 0.682940 1.820233
vt 0.688361 1.844122
vt 0.698622 1.818549
vt 0.702248 1.843416
vt 0.899043 1.844708
vt 0.902202 1.820094
vt 0.711978 1.818653
vt 0.713879 1.843355
vt 0.817829 1.843957
vt 0.818307 1.819476
vt 0.795018 1.843777
vt 0.795061 1.819440
vt 0.710955 1.807401
vt 0.903844 1.808902
vt 0.795054 1.808094
vt 0.818625 1.808106
vt 0.227304 1.898822
vt 0.585823 1.049989
vt 0.602803 1.010263
vt 0.767487 1.010096
vt 0.700790 1.792298
vt 0.975973 1.010770
vt 0.965183 1.901050
vt 0.811501 1.900102
vt 0.616229 1.898897
vt 0.641438 1.899053
vt 0.900602 1.694590
vt 0.810371 1.690487
vt 0.584265 1.333142
vt 0.585683 1.645289
vt 0.702194 1.693843
vt 0.602920 1.690170
vt 0.766424 1.690566
vt 0.811312 1.010014
vt 0.977167 1.333696
vt 0.810217 1.333156
vt 0.810719 1.049771
vt 0.976525 1.050440
vt 0.792374 1.899984
vt 0.584346 1.367365
vt 0.767641 1.333219
vt 0.600652 1.333383
vt 0.602203 1.049960
vt 0.768000 1.049776
vt 0.809768 1.645582
vt 0.810200 1.367165
vt 0.977140 1.367726
vt 0.974857 1.645820
vt 0.602063 1.645305
vt 0.600729 1.367404
vt 0.767633 1.367236
vt 0.767182 1.645560
vt 0.971317 1.768157
vt 0.287046 1.765049
vt 0.607994 1.992930
vt 0.640239 1.993129
vt 0.792077 1.994067
vt 0.810952 1.994183
vt 0.964799 1.995133
vt 0.618033 1.841644
vt 0.628646 1.857404
vt 0.655619 1.876415
vt 0.563712 1.862000
vt 0.545625 1.864790
vt 0.526824 1.865919
vt 0.452053 1.866380
vt 0.420049 1.866080
vt 0.345814 1.866123
vt 0.327359 1.865010
vt 0.309686 1.862869
vt 0.953655 1.882440
vt 0.981197 1.866572
vt 0.219505 1.991236
vt 0.248708 1.991324
vt 0.399865 1.991780
vt 0.418410 1.991835
vt 0.567593 1.992285
vt 0.629476 1.751870
vt 0.640996 1.762479
vt 0.585348 1.766048
vt 0.566847 1.773057
vt 0.548523 1.775390
vt 0.529551 1.776199
vt 0.452780 1.775949
vt 0.419836 1.775510
vt 0.343406 1.775288
vt 0.324422 1.774413
vt 0.306187 1.772654
vt 0.418968 1.899400
vt 0.567264 1.899846
vt 0.400174 1.899343
vt 0.991239 1.645867
vt 0.993523 1.367747
vt 0.993559 1.333514
vt 0.710237 1.791935
vt 0.794999 1.792438
vt 0.794628 1.693607
vt 0.818016 1.693766
vt 0.818987 1.792517
vt 0.711559 1.693351
vt 0.586469 1.690217
vt 0.249180 1.898888
vt 0.973978 1.690746
vt 0.990427 1.690796
vt 0.992907 1.050527
vt 0.992427 1.010808
vt 0.905033 1.793403
vt 0.586350 1.010292
vt 0.631823 1.593830
vt 0.630969 1.401073
vt 0.740275 1.593350
vt 0.739421 1.400592
vt 0.839292 1.596154
vt 0.840909 1.403084
vt 0.947918 1.597064
vt 0.949534 1.403994
vt 0.634443 1.289547
vt 0.634200 1.098379
vt 0.739730 1.289413
vt 0.739487 1.098244
vt 0.841427 1.275705
vt 0.840318 1.084231
vt 0.946880 1.275095
vt 0.945771 1.083621
vt 0.592032 1.899921
vt 0.697271 1.708929
vt 0.608484 1.913512
vt 0.909869 1.695194
vt 0.984740 1.755614
vt 0.608378 1.930601
vt 0.599459 1.931142
vt 0.599274 1.992380
vt 0.914657 1.794075
vt 0.219740 1.913206
vt 0.696050 1.807681
vt 0.987448 1.901188
vt 0.994907 1.932988
vt 0.219690 1.929997
vt 0.992707 1.854962
vt 0.994522 1.995317
vt 0.569800 1.072230
vt 0.036157 1.226962
vt 0.034981 1.900866
vt 0.162974 1.317542
vt 0.567147 1.620593
vt 0.549308 1.696319
vt 0.034359 1.536068
vt 0.166888 1.692208
vt 0.569234 1.378905
vt 0.034632 1.696426
vt 0.420486 1.694655
vt 0.343625 1.694090
vt 0.451997 1.783017
vt 0.200966 1.003997
vt 0.453503 1.694863
vt 0.419993 1.783259
vt 0.168849 1.003315
vt 0.530061 1.695367
vt 0.345426 1.783324
vt 0.567994 1.006982
vt 0.519832 1.402408
vt 0.528192 1.614457
vt 0.413320 1.402105
vt 0.412781 1.591415
vt 0.317252 1.401317
vt 0.329573 1.613429
vt 0.210579 1.402145
vt 0.212051 1.591744
vt 0.521853 1.100645
vt 0.530882 1.313200
vt 0.418280 1.101001
vt 0.418927 1.289058
vt 0.318291 1.109897
vt 0.330306 1.312641
vt 0.214571 1.108460
vt 0.211961 1.296786
vt 0.606886 1.813636
vt 0.565372 1.799275
vt 0.121767 1.018597
vt 0.071009 1.019022
vt 0.615205 1.730508
vt 0.570098 1.711446
vt 0.324534 1.708333
vt 0.324414 1.694752
vt 0.548869 1.709973
vt 0.038235 1.475109
vt 0.051541 1.945221
vt 0.035057 1.945249
vt 0.326824 1.797395
vt 0.326604 1.784163
vt 0.303394 1.711501
vt 0.121864 1.488077
vn 0.000000 1.000000 0.000000
vn 0.000000 1.000000 0.000000
vn 0.000000 1.000000 0.000000
vn 0.000000 1.000000 0.000000
vn 0.000000 0.000000 -1.000000
vn -0.000000 0.000000 -1.000000
vn -0.000000 0.000000 -1.000000
vn 0.000000 0.000000 -1.000000
vn -1.000000 0.000000 0.000000
vn -1.000000 0.000000 0.000000
vn -1.000000 0.000000 0.000000
vn -1.000000 0.000000 0.000000
vn -1.000000 0.000000 0.000000
vn 0.000000 1.000000 0.000000
vn 0.000000 1.000000 0.000000
vn 0.000000 1.000000 0.000000
vn 0.000000 1.000000 0.000000
vn 0.000000 0.000000 -1.000000
vn 0.000000 0.000000 -1.000000
vn 0.000000 0.000000 -1.000000
vn 0.000000 0.000000 -1.000000
vn -0.000000 0.000000 -1.000000
vn -0.000000 0.000000 -1.000000
vn 0.000000 0.000000 -1.000000
vn 0.000000 0.000000 -1.000000
vn 0.000000 0.000000 -1.000000
vn 0.000000 0.000000 -1.000000
vn 0.000000 0.000000 1.000000
vn 0.000000 0.000000 1.000000
vn 0.000000 0.000000 1.000000
vn 0.000000 0.000000 1.000000
vn 0.000000 0.000000 -1.000000
vn 0.000000 0.000000 -1.000000
vn 0.000000 0.000000 -1.000000
vn 0.000000 0.000000 -1.000000
vn -1.000000 0.000000 0.000000
vn -1.000000 0.000000 0.000000
vn -1.000000 0.000000 0.000000
vn -1.000000 0.000000 0.000000
vn 0.000000 0.000000 1.000000
vn 0.000000 0.000000 1.000000
vn 0.000000 0.000000 1.000000
vn 0.000000 0.000000 1.000000
vn 1.000000 0.000000 0.000000
vn 1.000000 0.000000 0.000000
vn 1.000000 0.000000 0.000000
vn 1.000000 0.000000 0.000000
vn 0.000000 0.000000 -1.000000
vn 0.000000 0.000000 -1.000000
vn 0.000000 0.000000 -1.000000
vn 0.000000 0.000000 -1.000000
vn 0.000000 0.000000 -1.000000
vn 0.000000 0.000000 -1.000000
vn 0.000000 0.000000 -1.000000
vn 0.000000 0.000000 -1.000000
vn -1.000000 0.000000 0.000000
vn -1.000000 0.000000 0.000000
vn -1.000000 0.000000 0.000000
vn -1.000000 0.000000 0.000000
vn -1.000000 0.000000 0.000000
vn 0.000000 0.000000 -1.000000
vn 0.000000 0.000000 -1.000000
vn 0.000000 0.000000 -1.000000
vn 0.000000 0.000000 -1.000000
vn 0.000000 0.000000 -1.000000
vn 0.000000 0.000000 -1.000000
vn 0.000000 0.000000 -1.000000
vn 0.000000 0.000000 -1.000000
vn 1.000000 0.000000 0.000000
vn 1.000000 0.000000 0.000000
vn 1.000000 0.000000 0.000000
vn 1.000000 0.000000 0.000000
vn 1.000000 0.000000 0.000000
vn 0.000000 -1.000000 0.000000
vn 0.000000 -1.000000 0.000000
vn 0.000000 -1.000000 0.000000
vn 0.000000 -1.000000 0.000000
vn 0.000000 0.000000 -1.000000
vn 0.000000 0.000000 -1.000000
vn 0.000000 0.000000 -1.000000
vn 0.000000 0.000000 -1.000000
vn 0.000000 -1.000000 0.000000
vn 0.000000 -1.000000 0.000000
vn 0.000000 -1.000000 0.000000
vn 0.000000 -1.000000 0.000000
vn 0.000000 0.000000 -1.000000
vn 0.000000 0.000000 -1.000000
vn 0.000000 0.000000 -1.000000
vn 0.000000 0.000000 -1.000000
vn 0.000000 1.000000 0.000000
vn 0.000000 1.000000 0.000000
vn 0.000000 1.000000 0.000000
vn 0.000000 1.000000 0.000000
vn 1.000000 0.000001 -0.000008
vn 1.000000 0.000000 0.000000
vn 1.000000 0.000000 0.000000
vn 1.000000 0.000001 -0.000008
vn 0.000000 -1.000000 0.000000
vn 0.000000 -1.000000 0.000000
vn 0.000000 -1.000000 0.000000
vn 0.000000 -1.000000 0.000000
vn -1.000000 0.000000 0.000000
vn -1.000000 0.000000 0.000000
vn -1.000000 0.000000 0.000000
vn -1.000000 0.000000 0.000000
vn 0.000000 0.000000 -1.000000
vn 0.000000 0.000000 -1.000000
vn 0.000000 1.000000 0.000000
vn 0.000000 1.000000 0.000000
vn 0.000000 1.000000 0.000000
vn 0.000000 1.000000 0.000000
vn 0.000000 0.000000 -1.000000
vn 0.000000 0.000000 -1.000000
vn 0.000000 0.000000 -1.000000
vn 0.000000 0.000000 -1.000000
vn 0.000000 -1.000000 0.000000
vn 0.000000 -1.000000 0.000000
vn 0.000000 -1.000000 0.000000
vn 0.000000 -1.000000 0.000000
vn 0.000000 0.000000 -1.000000
vn 0.000000 0.000000 -1.000000
vn 0.000000 0.000000 -1.000000
vn 0.000000 0.000000 -1.000000
vn 0.000000 0.000000 -1.000000
vn 0.000000 0.000000 -1.000000
vn 0.000000 1.000000 0.000000
vn 0.000000 1.000000 0.000000
vn 0.000000 0.000000 -1.000000
vn 0.000000 0.000000 -1.000000
vn 0.000000 -1.000000 0.000000
vn 0.000000 -1.000000 0.000000
vn 0.000000 0.000000 -1.000000
vn 0.000000 0.000000 -1.000000
vn 0.000000 0.000000 -1.000000
vn 0.000000 0.000000 -1.000000
vn 0.000000 1.000000 0.000000
vn 0.000000 1.000000 0.000000
vn 0.000000 0.000000 -1.000000
vn 0.000000 0.000000 -1.000000
vn 0.000000 -1.000000 0.000000
vn 0.000000 -1.000000 0.000000
vn 0.000000 0.000000 -1.000000
vn 0.000000 0.000000 -1.000000
vn 0.000000 0.000000 1.000000
vn 0.000000 0.000000 1.000000
vn 0.000000 0.000000 1.000000
vn 0.000000 0.000000 1.000000
vn -0.000000 0.000000 1.000000
vn -0.000000 0.000000 1.000000
vn -0.000000 0.000000 1.000000
vn -0.000000 0.000000 1.000000
vn 1.000000 0.000000 0.000000
vn 1.000000 0.000000 0.000000
vn 1.000000 0.000000 0.000000
vn 1.000000 0.000000 0.000000
vn 0.000000 0.000000 -1.000000
vn 0.000000 0.000000 -1.000000
vn 0.000000 0.000000 -1.000000
vn 0.000000 0.000000 -1.000000
vn -1.000000 0.000000 0.000000
vn -1.000000 0.000000 0.000000
vn -1.000000 0.000000 0.000000
vn -1.000000 0.000000 0.000000
vn 0.000000 0.000000 -1.000000
vn 0.000000 0.000000 -1.000000
vn 0.000000 0.000000 -1.000000
vn 0.000000 0.000000 -1.000000
vn 0.000000 0.000000 -1.000000
vn 0.000000 0.000000 -1.000000
vn 0.000000 0.000000 -1.000000
vn 0.000000 0.000000 -1.000000
vn 0.000000 0.000000 -1.000000
vn 0.000000 0.000000 -1.000000
vn 0.000000 0.000000 -1.000000
vn 0.000000 0.000000 -1.000000
vn 0.000000 0.000000 -1.000000
vn 0.000000 0.000000 -1.000000
vn 0.000000 0.000000 -1.000000
vn 0.000000 0.000000 -1.000000
vn 0.000000 0.000000 -1.000000
vn 0.000000 0.000000 -1.000000
vn 0.000000 0.000000 -1.000000
vn 0.000000 0.000000 -1.000000
vn 1.000000 -0.000001 -0.000018
vn 1.000000 0.000000 -0.000020
vn 1.000000 0.000000 -0.000020
vn 1.000000 -0.000001 -0.000018
vn -0.000000 0.000000 -1.000000
vn -0.000000 0.000000 -1.000000
vn 0.000000 0.000000 -1.000000
vn 0.000000 0.000000 -1.000000
vn -1.000000 0.000000 0.000000
vn -1.000000 0.000000 0.000000
vn -1.000000 0.000000 0.000000
vn -1.000000 0.000000 0.000000
vn 0.000000 0.000000 1.000000
vn 0.000000 0.000000 1.000000
vn 0.000000 0.000000 1.000000
vn 0.000000 0.000000 1.000000
vn 0.000000 0.000000 1.000000
vn 0.000000 0.000000 1.000000
vn 0.000000 0.000000 1.000000
vn 0.000000 0.000000 1.000000
vn 0.000000 0.000000 1.000000
vn 0.000000 0.000000 1.000000
vn 1.000000 0.000000 0.000000
vn 1.000000 0.000000 0.000000
vn 0.000000 0.000000 -1.000000
vn 0.000000 0.000000 -1.000000
vn -1.000000 0.000000 0.000000
vn -1.000000 0.000000 0.000000
vn 0.000000 0.000000 -1.000000
vn 0.000000 0.000000 -1.000000
vn 0.000000 0.000000 -1.000000
vn 0.000000 0.000000 -1.000000
vn 0.000000 0.000000 -1.000000
vn 0.000000 0.000000 -1.000000
vn 1.000000 0.000001 -0.000012
vn 1.000000 0.000001 -0.000012
vn 0.000000 0.000000 -1.000000
vn 0.000000 0.000000 -1.000000
vn -1.000000 0.000000 0.000000
vn -1.000000 0.000000 0.000000
vn 0.000000 0.000000 1.000000
vn 0.000000 0.000000 1.000000
vn 0.000000 0.000000 1.000000
vn 0.000000 0.000000 1.000000
vn 0.000000 0.000000 1.000000
vn 0.000000 0.000000 1.000000
vn 0.000000 0.000000 -1.000000
vn 0.000000 0.000000 -1.000000
vn 0.000000 0.000000 -1.000000
vn 0.000000 0.000000 -1.000000
vn 0.000000 0.000000 -1.000000
vn 0.000000 0.000000 -1.000000
vn 0.000000 0.000000 -1.000000
vn 0.000000 0.000000 -1.000000
vn 0.000000 0.000000 1.000000
vn 0.000000 0.000000 1.000000
vn 0.000000 0.000000 1.000000
vn 0.000000 0.000000 1.000000
vn 0.000000 0.000000 1.000000
vn 0.000000 0.000000 1.000000
vn 1.000000 0.000000 0.000000
vn 1.000000 0.000000 0.000000
vn 0.000000 0.000000 -1.000000
vn 0.000000 0.000000 -1.000000
vn -1.000000 0.000000 0.000000
vn -1.000000 0.000000 0.000000
vn 0.000000 0.000000 -1.000000
vn 0.000000 0.000000 -1.000000
vn 0.000000 0.000000 -1.000000
vn 0.000000 0.000000 -1.000000
vn 0.000000 0.000000 -1.000000
vn 0.000000 0.000000 -1.000000
vn 1.000000 -0.000004 -0.000010
vn 1.000000 -0.000004 -0.000010
vn -0.000000 0.000000 -1.000000
vn -0.000000 0.000000 -1.000000
vn -1.000000 0.000000 0.000000
vn -1.000000 0.000000 0.000000
vn 0.000000 0.000000 1.000000
vn 0.000000 0.000000 1.000000
vn 0.000000 -1.000000 0.000000
vn 0.000000 -1.000000 0.000000
vn 0.000000 -1.000000 0.000000
vn 0.000000 -1.000000 0.000000
vn -1.000000 0.000000 0.000000
vn -1.000000 0.000000 0.000000
vn -1.000000 0.000000 0.000000
vn -1.000000 0.000000 0.000000
vn 0.000000 1.000000 0.000000
vn 0.000000 1.000000 0.000000
vn 0.000000 1.000000 0.000000
vn 0.000000 1.000000 0.000000
vn 1.000000 0.000000 0.000000
vn 1.000000 0.000000 0.000000
vn 1.000000 0.000000 0.000000
vn 1.000000 0.000000 0.000000
vn 0.000000 -1.000000 0.000000
vn 0.000000 -1.000000 0.000000
vn 0.000000 -1.000000 0.000000
vn 0.000000 -1.000000 0.000000
vn -1.000000 0.000000 0.000000
vn -1.000000 0.000000 0.000000
vn -1.000000 0.000000 0.000000
vn -1.000000 0.000000 0.000000
vn 0.000005 1.000000 0.000067
vn 0.000005 1.000000 0.000067
vn 0.000005 1.000000 0.000067
vn 0.000005 1.000000 0.000067
vn 1.000000 0.000000 0.000000
vn 1.000000 0.000000 0.000000
vn 1.000000 0.000000 0.000000
vn 1.000000 0.000000 0.000000
vn 0.000000 -1.000000 0.000000
vn 0.000000 -1.000000 0.000000
vn 0.000000 -1.000000 0.000000
vn 0.000000 -1.000000 0.000000
vn -1.000000 0.000000 0.000000
vn -1.000000 0.000000 0.000000
vn -1.000000 0.000000 0.000000
vn -1.000000 0.000000 0.000000
vn 0.000000 1.000000 0.000000
vn 0.000000 1.000000 0.000000
vn 0.000000 1.000000 0.000000
vn 0.000000 1.000000 0.000000
vn 1.000000 0.000000 0.000000
vn 1.000000 0.000000 0.000000
vn 1.000000 0.000000 0.000000
vn 1.000000 0.000000 0.000000
vn 0.000000 -1.000000 0.000000
vn 0.000000 -1.000000 0.000000
vn 0.000000 -1.000000 0.000000
vn 0.000000 -1.000000 0.000000
vn -1.000000 0.000000 0.000000
vn -1.000000 0.000000 0.000000
vn -1.000000 0.000000 0.000000
vn -1.000000 0.000000 0.000000
vn 0.000000 1.000000 0.000000
vn 0.000000 1.000000 0.000000
vn 0.000000 1.000000 0.000000
vn 0.000000 1.000000 0.000000
vn 1.000000 0.000000 0.000000
vn 1.000000 0.000000 0.000000
vn 1.000000 0.000000 0.000000
vn 1.000000 0.000000 0.000000
vn 0.000000 1.000000 0.000000
vn 0.000002 1.000000 0.000000
vn 0.000000 1.000000 0.000000
vn 0.000000 1.000000 0.000000
vn 0.000002 1.000000 -0.000000
vn 0.000003 1.000000 0.000000
vn 0.000002 1.000000 0.000000
vn 0.000000 1.000000 0.000000
vn 0.000000 1.000000 0.000000
vn 0.000000 1.000000 0.000000
vn 0.000000 1.000000 0.000000
vn 0.000000 1.000000 -0.000000
vn 0.000000 1.000000 0.000000
vn 0.000000 1.000000 -0.000000
vn 0.000000 1.000000 0.000000
vn -0.000002 1.000000 0.000000
vn -0.000002 1.000000 0.000000
vn -0.000002 1.000000 0.000000
vn -0.000003 1.000000 0.000000
vn 0.000000 1.000000 0.000000
vn 0.000000 1.000000 0.000000
vn 0.000000 1.000000 0.000000
vn -1.000000 0.000000 0.000000
vn -1.000000 0.000000 0.000000
vn 0.000000 -1.000000 0.000000
vn 0.000000 -1.000000 0.000000
vn -1.000000 0.000000 0.000000
vn -1.000000 0.000000 0.000000
vn -1.000000 0.000000 0.000000
vn -1.000000 0.000000 0.000000
vn -1.000000 0.000000 0.000000
vn -1.000000 0.000000 0.000000
vn 0.000000 1.000000 0.000000
vn 0.000000 1.000000 0.000000
vn -1.000000 0.000000 0.000000
vn -1.000000 0.000000 0.000000
vn 0.000000 -1.000000 0.000000
vn 0.000003 -1.000000 0.000000
vn 0.000003 -1.000000 0.000000
vn 0.000000 -1.000000 0.000000
vn 0.000003 -1.000000 0.000000
vn 0.000003 -1.000000 0.000000
vn 0.000000 -1.000000 0.000000
vn 0.000000 -1.000000 0.000000
vn 0.000000 -1.000000 0.000000
vn 0.000000 -1.000000 0.000000
vn 0.000000 -1.000000 0.000000
vn 0.000000 -1.000000 0.000000
vn 0.000000 -1.000000 0.000000
vn 0.000000 -1.000000 0.000000
vn -0.000003 -1.000000 0.000000
vn -0.000003 -1.000000 0.000000
vn -0.000003 -1.000000 0.000000
vn -0.000003 -1.000000 0.000000
vn 0.000000 -1.000000 0.000000
vn 0.000000 -1.000000 0.000000
vn 1.000000 0.000000 0.000000
vn 1.000000 0.000000 0.000000
vn 1.000000 0.000000 0.000000
vn 1.000000 0.000000 0.000000
vn 0.000000 1.000000 0.000000
vn 0.000000 1.000000 0.000000
vn 1.000000 0.000000 0.000000
vn 1.000000 0.000000 0.000000
vn 1.000000 0.000000 0.000000
vn 1.000000 0.000000 0.000000
vn 1.000000 0.000000 0.000000
vn 1.000000 0.000000 0.000000
vn 0.000000 -1.000000 0.000000
vn 0.000000 -1.000000 0.000000
vn 1.000000 0.000000 0.000000
vn 1.000000 0.000000 0.000000
vn -0.000005 0.707102 0.707112
vn -0.000005 0.707102 0.707112
vn 0.000000 0.707099 0.707114
vn 0.000000 0.707099 0.707114
vn -0.000005 0.707106 0.707108
vn -0.000005 0.707106 0.707107
vn 0.000000 0.707108 0.707106
vn 0.000000 0.707108 0.707106
vn 0.000005 0.707106 0.707108
vn 0.000005 0.707106 0.707108
vn 0.000000 0.707109 0.707105
vn 0.000000 0.707109 0.707105
vn 0.000005 0.707102 0.707112
vn 0.000005 0.707102 0.707112
vn 0.000000 0.707099 0.707115
vn 0.000000 0.707099 0.707115
vn 0.000000 0.707108 0.707106
vn 0.000000 0.707108 0.707106
vn 0.000000 0.707109 0.707105
vn 0.000000 0.707109 0.707105
vn -0.000002 1.000000 0.000000
vn -0.000002 1.000000 0.000000
vn 0.000002 1.000000 -0.000000
vn 0.000002 1.000000 0.000000
vn 0.000000 1.000000 0.000000
vn 0.000000 0.000000 1.000000
vn 0.000000 0.000000 1.000000
vn 0.000000 0.000000 1.000000
vn 0.000000 0.000000 1.000000
vn 0.000000 0.000000 1.000000
vn 0.000000 0.000000 1.000000
vn 0.000000 0.000000 1.000000
vn 0.000000 0.000000 1.000000
vn 0.000000 1.000000 0.000000
vn 0.000000 1.000000 0.000000
vn 0.000000 0.000000 1.000000
vn 0.000000 0.000000 1.000000
vn 0.000000 1.000000 -0.000000
vn 0.000000 0.000000 1.000000
vn 0.000000 0.000000 1.000000
vn 0.000000 1.000000 0.000000
vn 0.000000 0.000000 1.000000
vn 0.000000 0.000000 1.000000
vn 0.000000 1.000000 -0.000000
vn 0.000000 0.000000 1.000000
vn 0.000000 0.000000 1.000000
vn 1.000000 0.000000 0.000000
vn 1.000000 0.000000 0.000000
vn 1.000000 0.000000 0.000000
vn 0.000000 -0.707096 0.707118
vn 0.000000 -0.707096 0.707118
vn 0.000001 -0.707097 0.707117
vn 0.000001 -0.707097 0.707117
vn 0.000001 -0.707098 0.707116
vn 0.000001 -0.707098 0.707116
vn 0.000000 -0.707096 0.707118
vn 0.000000 -0.707096 0.707118
vn -0.000001 -0.707097 0.707117
vn -0.000001 -0.707096 0.707117
vn -0.000001 -0.707098 0.707116
vn -0.000001 -0.707098 0.707116
vn 0.000000 -0.707098 0.707115
vn 0.000000 -0.707098 0.707115
vn 0.000000 -0.707098 0.707115
vn 0.000000 -0.707098 0.707115
vn 0.000000 -0.707098 0.707115
vn 0.000000 -0.707098 0.707115
vn 0.000000 -0.707098 0.707115
vn 0.000000 -0.707098 0.707115
vn 0.000000 0.000000 1.000000
vn 0.000000 0.000000 1.000000
vn 0.000000 0.000000 1.000000
vn 0.000003 -1.000000 0.000000
vn 0.000000 -1.000000 0.000000
vn -0.000003 -1.000000 0.000000
vn 0.000000 -1.000000 0.000000
vn 0.000000 0.000000 1.000000
vn 0.000000 0.000000 1.000000
vn 0.000000 0.000000 1.000000
vn 0.000003 -1.000000 0.000000
vn 0.000000 0.000000 1.000000
vn -0.000003 -1.000000 0.000000
vn 0.000000 0.000000 1.000000
vn 0.000000 -1.000000 0.000000
vn 0.000000 0.000000 1.000000
vn 0.000000 0.000000 1.000000
vn 0.000000 0.000000 1.000000
vn 0.000000 0.000000 1.000000
vn 0.000000 -1.000000 0.000000
vn 0.000000 0.000000 1.000000
vn 0.000000 0.000000 1.000000
vn 0.000000 -1.000000 0.000000
vn 0.000000 0.000000 1.000000
vn 0.000000 0.000000 1.000000
vn 0.000000 -1.000000 0.000000
vn 0.950770 0.000000 0.309898
vn 0.950770 0.000000 0.309898
vn 0.950770 0.000000 0.309898
vn 0.950770 0.000000 0.309898
vn 0.000001 0.876565 0.481284
vn 0.000000 0.876564 0.481286
vn 0.000000 0.876563 0.481286
vn 0.000001 0.876565 0.481284
vn 0.000000 0.876565 0.481283
vn 0.000000 0.876565 0.481283
vn 0.000000 0.876563 0.481286
vn -0.000001 0.876565 0.481284
vn -0.000001 0.876565 0.481284
vn 0.000000 0.876563 0.481286
vn -0.950764 0.000000 0.309915
vn -0.950764 0.000000 0.309915
vn -0.950764 0.000000 0.309915
vn -0.950764 0.000000 0.309915
vn -0.950764 0.000000 0.309915
vn -0.950764 0.000000 0.309915
vn -0.950764 0.000000 0.309915
vn -0.950764 0.000000 0.309915
vn -0.950764 0.000000 0.309915
vn -0.950764 0.000000 0.309915
vn -0.000000 -0.876565 0.481283
vn 0.000000 -0.876565 0.481283
vn 0.000000 -0.876565 0.481283
vn -0.000000 -0.876565 0.481283
vn -0.000000 -0.876566 0.481282
vn -0.000000 -0.876566 0.481282
vn 0.950770 0.000000 0.309898
vn 0.950770 0.000000 0.309898
vn 0.950770 0.000000 0.309898
vn 0.950770 0.000000 0.309898
vn 0.950770 0.000000 0.309898
vn 0.950770 0.000000 0.309898
vn 0.000000 -0.876565 0.481284
vn 0.000000 -0.876566 0.481282
vn 0.000000 -0.876566 0.481282
vn 0.000000 -0.876565 0.481284
vn 0.000000 -0.876566 0.481281
vn 0.000000 -0.876566 0.481281
vn -0.000000 0.876565 0.481283
vn -0.000000 0.876565 0.481283
vn 0.000000 -0.780915 0.624637
vn 0.000000 -0.780915 0.624637
vn 0.000000 -0.780915 0.624637
vn 0.000000 -0.780915 0.624637
vn 0.903317 0.000000 0.428973
vn 0.903317 0.000000 0.428973
vn 0.903317 0.000000 0.428973
vn 0.903317 0.000000 0.428973
vn 0.000001 0.780943 0.624602
vn 0.000001 0.780943 0.624602
vn 0.000001 0.780943 0.624602
vn 0.000001 0.780943 0.624602
vn -0.903320 -0.000000 0.428968
vn -0.903320 -0.000000 0.428968
vn -0.903320 -0.000000 0.428968
vn -0.903320 -0.000000 0.428968
vn -0.950764 0.000000 0.309915
vn -0.950764 0.000000 0.309915
vn 0.950770 0.000000 0.309898
vn 0.950770 0.000000 0.309898
vn 0.000000 -0.780915 0.624638
vn 0.000000 -0.780915 0.624638
vn 0.000000 -0.780915 0.624638
vn 0.000000 -0.780915 0.624638
vn 0.903312 0.000001 0.428984
vn 0.903312 0.000001 0.428984
vn 0.903312 0.000001 0.428984
vn 0.903312 0.000001 0.428984
vn 0.000000 0.780941 0.624605
vn 0.000000 0.780941 0.624605
vn 0.000000 0.780941 0.624605
vn 0.000000 0.780941 0.624605
vn -0.903317 0.000000 0.428973
vn -0.903317 0.000000 0.428973
vn -0.903317 0.000000 0.428973
vn -0.903317 0.000000 0.428973
vn 0.903317 0.000000 0.428973
vn 0.903317 0.000000 0.428973
vn 0.903317 0.000000 0.428973
vn 0.903317 0.000000 0.428973
vn 0.000000 0.780913 0.624640
vn 0.000000 0.780913 0.624640
vn 0.000000 0.780913 0.624640
vn 0.000000 0.780913 0.624640
vn -0.903322 0.000000 0.428962
vn -0.903322 0.000000 0.428962
vn -0.903322 0.000000 0.428962
vn -0.903322 0.000000 0.428962
vn 0.903317 0.000000 0.428973
vn 0.903317 0.000000 0.428973
vn 0.903317 0.000000 0.428973
vn 0.903317 0.000000 0.428973
vn 0.000001 0.780919 0.624633
vn 0.000001 0.780919 0.624633
vn 0.000001 0.780919 0.624633
vn 0.000001 0.780919 0.624633
vn -0.903317 0.000000 0.428973
vn -0.903317 0.000000 0.428973
vn -0.903317 0.000000 0.428973
vn -0.903317 0.000000 0.428973
vn 0.000001 -0.780914 0.624639
vn 0.000001 -0.780914 0.624639
vn 0.000001 -0.780914 0.624639
vn 0.000001 -0.780914 0.624639
vn -0.000002 -0.780918 0.624634
vn -0.000002 -0.780918 0.624634
vn -0.000002 -0.780918 0.624634
vn -0.000002 -0.780918 0.624634
vn 0.000000 0.000000 1.000000
vn 0.000000 0.000000 1.000000
vn 0.000000 0.000000 1.000000
vn 0.000000 0.000000 1.000000
vn -0.000000 0.000000 1.000000
vn -0.000000 0.000000 1.000000
vn -0.000000 0.000000 1.000000
vn -0.000000 0.000000 1.000000
vn -0.000000 0.000000 1.000000
vn -0.000000 0.000000 1.000000
vn 0.000000 0.000000 1.000000
vn 0.000000 0.000000 1.000000
vn -0.000000 0.000000 1.000000
vn -0.000000 0.000000 1.000000
vn -0.000000 0.000000 1.000000
vn -0.000000 0.000000 1.000000
vn -0.000000 0.000000 1.000000
vn -0.000000 0.000000 1.000000
vn 0.000000 0.000000 1.000000
vn 0.000000 0.000000 1.000000
vn 0.000000 0.000000 1.000000
vn -0.000000 0.000000 1.000000
vn 0.000000 0.000000 1.000000
vn 0.000000 0.000000 1.000000
vn 0.000000 0.000000 1.000000
vn 0.000000 0.000000 1.000000
vn 0.000000 0.000000 1.000000
vn -0.000000 0.000000 1.000000
vn -0.000000 0.000000 1.000000
vn 0.000000 0.000000 1.000000
vn -0.000000 0.000000 1.000000
vn 0.000000 0.000000 1.000000
vn 0.000001 0.000000 1.000000
vn -0.000001 0.000000 1.000000
vn -0.000000 0.000000 1.000000
vn 0.000000 0.000000 1.000000
s 1
g Window3 All_Home
usemtl set5
f 1/1/1 10/2/2 177/359/3 178/292/4
s 2
f 3/5/5 11/6/6 12/7/7 5/8/8
s 3
f 179/291/9 217/10/10 218/11/11 1/1/12 178/292/13
s 4
f 7/12/14 2/13/15 189/281/16 190/280/17
s 2
f 9/16/18 8/398/19 4/18/20 6/19/21
f 12/7/7 11/6/6 17/409/22 18/21/23
f 15/22/24 14/23/25 8/398/19 9/16/18
f 51/24/26 52/25/27 14/23/25 15/22/24
s 6
f 113/26/28 114/27/29 25/28/30 26/351/31
s 7
f 111/30/32 112/31/33 27/32/34 28/33/35
s 8
f 173/297/36 113/26/37 26/351/38 172/352/39
s 6
f 101/36/40 102/37/41 23/350/42 24/347/43
s 10
f 102/37/44 194/276/45 195/275/46 23/350/47
s 11
f 103/42/48 104/43/49 29/44/50 30/45/51
s 12
f 105/46/52 106/47/53 54/48/54 40/368/55
s 13
f 171/299/56 31/51/57 208/52/58 207/53/59 170/54/60
s 7
f 28/405/35 27/402/34 20/55/61 19/56/62
s 14
f 29/403/63 55/57/64 56/58/65 22/59/66
s 11
f 30/411/51 29/403/50 22/59/67 21/60/68
s 15
f 35/61/69 196/273/70 161/63/71 210/64/72 209/65/73
s 16
f 172/298/74 26/29/75 31/51/76 171/299/77
s off
f 20/55/78 27/402/79 32/66/80 33/67/81
s 17
f 23/38/82 195/349/83 196/273/84 35/61/85
s off
f 30/411/86 21/60/87 36/68/88 34/69/89
s 18
f 14/23/90 52/25/91 53/70/92 38/71/93
s 19
f 111/30/94 28/33/95 39/406/96 110/73/97
s 20
f 55/57/98 29/403/99 40/404/100 54/372/101
s 21
f 29/44/102 104/43/103 105/367/104 40/49/105
s 2
f 18/21/23 17/409/22 44/74/106 43/75/107
s 18
f 45/379/108 44/74/109 17/409/110 37/410/111
s 12
f 46/78/112 109/79/113 110/365/114 39/72/115
s 20
f 28/405/116 47/80/117 46/378/118 39/366/119
s 14
f 48/81/120 47/80/121 28/405/122 19/56/123
s 2
f 67/82/124 68/83/125 52/25/27 51/24/26
s 18
f 53/70/92 52/25/91 68/83/126 69/373/127
s 12
f 54/48/54 106/47/53 107/85/128 70/86/129
s 20
f 71/87/130 55/57/98 54/372/101 70/371/131
s 14
f 56/58/65 55/57/64 71/87/132 72/88/133
s 2
f 43/75/107 44/74/106 60/89/134 59/90/135
s 18
f 61/376/136 60/89/137 44/74/109 45/379/108
s 12
f 62/92/138 108/93/139 109/79/113 46/78/112
s 20
f 47/80/117 63/94/140 62/375/141 46/378/118
s 14
f 64/95/142 63/94/143 47/80/121 48/81/120
s 2
f 59/90/135 60/89/134 68/83/125 67/82/124
s 18
f 69/373/127 68/83/126 60/89/137 61/376/136
s 12
f 70/86/129 107/85/128 108/93/139 62/92/138
s 20
f 63/94/140 71/87/130 70/371/131 62/375/141
s 14
f 72/88/133 71/87/132 63/94/143 64/95/142
s off
f 129/342/144 130/344/145 131/343/146 132/341/147
s 6
f 115/100/148 116/101/149 74/102/150 73/103/151
s 10
f 116/101/152 191/279/153 192/278/154 74/102/155
s 11
f 117/106/156 118/107/157 76/108/158 75/109/159
s 21
f 77/110/160 76/108/161 118/107/162 119/363/163
s 12
f 119/111/164 120/112/165 78/113/166 77/364/167
s off
f 134/114/168 133/396/169 135/395/170 136/393/171
s 12
f 80/118/172 79/119/173 121/120/174 122/121/175
s off
f 138/122/176 137/392/177 139/391/178 140/389/179
s 12
f 82/126/180 81/127/181 123/128/182 124/361/183
s 19
f 125/130/184 83/131/185 82/362/186 124/129/187
s 7
f 125/130/188 126/132/189 84/133/190 83/131/191
s 8
f 176/294/192 127/135/193 85/136/194 175/295/195
s 6
f 127/135/196 128/138/197 86/139/198 85/136/199
s off
f 141/338/200 142/340/201 143/339/202 144/337/203
s 6
f 73/103/151 74/102/150 88/144/204 87/145/205
s 10
f 74/102/155 192/278/154 193/277/206 88/144/207
s 11
f 75/109/159 76/108/158 90/147/208 89/148/209
s 21
f 91/370/210 90/147/211 76/108/161 77/110/160
s 12
f 77/364/167 78/113/166 92/150/212 91/149/213
f 93/151/214 92/150/212 78/113/166 79/119/173
f 94/152/215 93/151/214 79/119/173 80/118/172
f 95/153/216 94/152/215 80/118/172 81/127/181
f 96/369/217 95/153/216 81/127/181 82/126/180
s 19
f 83/131/185 97/155/218 96/154/219 82/362/186
s 7
f 83/131/191 84/133/190 98/156/220 97/155/221
s 8
f 175/295/195 85/136/194 99/157/222 174/296/223
s 6
f 85/136/199 86/139/198 100/159/224 99/157/225
s off
f 145/334/226 146/336/227 147/335/228 148/333/229
s 6
f 87/145/205 88/144/204 102/37/41 101/36/40
s 10
f 88/144/207 193/277/206 194/276/45 102/37/44
s 11
f 89/148/209 90/147/208 104/43/49 103/42/48
s 21
f 105/367/104 104/43/103 90/147/211 91/370/210
s 12
f 91/149/213 92/150/212 106/47/53 105/46/52
s off
f 150/164/230 149/388/231 151/387/232 152/385/233
s 12
f 108/93/139 107/85/128 93/151/214 94/152/215
s off
f 154/168/234 153/384/235 155/383/236 156/381/237
s 12
f 110/365/114 109/79/113 95/153/216 96/369/217
s 19
f 97/155/218 111/30/94 110/73/97 96/154/219
s 7
f 97/155/221 98/156/220 112/31/33 111/30/32
s 8
f 174/296/223 99/157/222 113/26/37 173/297/36
s 6
f 99/157/225 100/159/224 114/27/29 113/26/28
s off
f 157/330/238 158/332/239 159/331/240 160/329/241
s 6
f 13/176/242 7/357/243 116/101/149 115/100/148
s 10
f 7/357/244 190/360/245 191/279/153 116/101/152
s 11
f 8/17/246 14/407/247 118/107/157 117/106/156
s 21
f 119/363/163 118/107/162 14/407/248 38/408/249
s 12
f 38/377/250 53/374/251 120/112/165 119/111/164
f 121/120/174 120/112/165 53/374/251 69/84/252
f 122/121/175 121/120/174 69/84/252 61/91/253
f 123/128/182 122/121/175 61/91/253 45/76/254
f 124/361/183 123/128/182 45/76/254 37/380/255
s 19
f 17/20/256 125/130/184 124/129/187 37/77/257
s 7
f 17/20/258 11/400/259 126/132/189 125/130/188
s 8
f 177/293/260 10/358/261 127/135/193 176/294/192
s 6
f 10/358/262 16/354/263 128/138/197 127/135/196
s off
f 79/119/264 78/113/265 133/115/266 134/394/267
f 78/113/268 120/112/269 135/116/270 133/115/271
f 120/112/272 121/120/273 136/117/274 135/116/275
f 121/120/276 79/119/277 134/394/278 136/117/279
f 81/127/280 80/118/281 137/123/282 138/390/283
f 80/118/284 122/121/285 139/124/286 137/123/287
f 122/121/288 123/128/289 140/125/290 139/124/291
f 123/128/292 81/127/293 138/390/294 140/125/295
f 107/85/296 106/47/297 149/165/298 150/386/299
f 106/47/300 92/150/301 151/166/302 149/165/303
f 92/150/304 93/151/305 152/167/306 151/166/307
f 93/151/308 107/85/309 150/386/310 152/167/311
f 109/79/312 108/93/313 153/169/314 154/382/315
f 108/93/316 94/152/317 155/170/318 153/169/319
f 94/152/320 95/153/321 156/171/322 155/170/323
f 95/153/324 109/79/325 154/382/326 156/171/327
s 37
f 21/60/328 162/308/329 161/274/330 36/68/331
f 163/307/332 162/308/329 21/60/333 22/59/334
f 164/306/335 163/307/332 22/59/334 56/58/336
f 165/305/337 164/306/335 56/58/336 72/88/338
f 166/304/339 165/305/337 72/88/338 64/95/340
f 167/303/341 166/304/339 64/95/340 48/81/342
f 168/302/343 167/303/341 48/81/342 19/56/344
f 169/301/345 168/302/343 19/56/344 20/55/346
f 170/300/347 169/301/345 20/55/348 33/67/349
s 13
f 32/66/350 171/50/56 170/300/60 33/67/351
s 16
f 27/402/352 172/401/74 171/50/77 32/66/353
s 8
f 112/31/354 173/34/36 172/35/39 27/32/355
f 98/156/356 174/158/223 173/34/36 112/31/354
f 84/133/357 175/137/195 174/158/223 98/156/356
f 126/132/358 176/134/192 175/137/195 84/133/357
f 11/400/359 177/399/260 176/134/192 126/132/358
s 1
f 178/4/4 177/3/3 11/6/360 3/5/361
s 3
f 5/8/362 179/9/9 178/4/13 3/5/363
s 40
f 5/8/364 12/7/365 180/290/366 179/9/367
f 181/289/368 180/290/366 12/7/365 18/21/369
f 182/288/370 181/289/368 18/21/369 43/75/371
f 183/287/372 182/288/370 43/75/371 59/90/373
f 184/286/374 183/287/372 59/90/373 67/82/375
f 185/285/376 184/286/374 67/82/375 51/24/377
f 186/284/378 185/285/376 51/24/377 15/22/379
f 187/283/380 186/284/378 15/22/379 9/16/381
f 188/194/382 187/283/380 9/16/381 6/19/383
s 41
f 189/14/384 188/194/385 6/19/386 4/18/387
s 4
f 190/397/17 189/14/16 4/18/388 8/398/389
s 10
f 191/104/153 190/15/245 8/17/390 117/106/391
f 192/105/154 191/104/153 117/106/391 75/109/392
f 193/146/206 192/105/154 75/109/392 89/148/393
f 194/40/45 193/146/206 89/148/393 103/42/394
f 195/412/46 194/40/45 103/42/394 30/45/395
s 17
f 196/62/84 195/41/83 30/411/396 34/69/397
s 15
f 161/274/71 196/62/70 34/69/398 36/68/399
s 42
f 197/195/400 198/196/401 207/53/402 208/52/403
f 198/196/401 197/195/400 200/197/404 199/198/405
f 199/198/405 200/197/404 205/199/406 206/200/407
f 201/201/408 202/202/409 214/203/410 213/204/411
f 202/202/409 201/201/408 204/205/412 203/206/413
f 203/206/413 204/205/412 209/65/414 210/64/415
f 206/200/407 205/199/406 211/207/416 212/208/417
f 212/208/417 211/207/416 215/209/418 216/210/419
f 213/204/411 214/203/410 216/210/419 215/209/418
s 37
f 198/196/420 199/198/421 168/184/343 169/185/345
f 202/202/422 203/206/423 162/178/329 163/179/332
f 214/203/424 202/202/422 163/179/332 164/180/335
s 6
f 24/39/43 23/38/42 204/205/425 201/201/426
f 213/204/427 49/211/428 24/39/43 201/201/426
f 26/29/31 25/346/30 200/197/429 197/195/430
f 26/29/31 197/195/430 208/52/431 31/51/432
s 37
f 198/196/420 169/185/345 170/54/347 207/53/433
f 162/178/329 203/206/423 210/64/434 161/63/330
s 6
f 204/205/425 23/38/42 35/61/435 209/65/436
s 37
f 199/198/421 206/200/437 167/183/341 168/184/343
s 6
f 25/346/30 41/212/438 205/199/439 200/197/429
s 37
f 216/210/440 214/203/424 164/180/335 165/181/337
s 6
f 215/209/441 65/213/442 49/211/428 213/204/427
s 37
f 206/200/437 212/208/443 166/182/339 167/183/341
s 6
f 205/199/439 41/212/438 57/214/444 211/207/445
s 37
f 212/208/443 216/210/440 165/181/337 166/182/339
s 6
f 211/207/445 57/214/444 65/213/442 215/209/441
s 41
f 222/215/446 221/216/447 188/282/385 189/281/384 2/13/448
s 44
f 218/11/449 217/10/450 220/217/451 219/218/452
f 219/218/452 220/217/451 226/219/453 225/220/454
f 221/216/455 222/215/456 223/221/457 224/222/458
f 224/222/458 223/221/457 227/223/459 228/224/460
f 225/220/454 226/219/453 230/225/461 229/226/462
f 228/224/460 227/223/459 234/227/463 233/228/464
f 229/226/462 230/225/461 232/229/465 231/230/466
f 231/230/466 232/229/465 236/231/467 235/232/468
f 233/228/464 234/227/463 235/232/468 236/231/467
s 6
f 218/11/469 219/218/470 10/2/262 1/1/471
s 40
f 179/291/367 180/186/366 220/217/472 217/10/473
f 224/222/474 187/193/380 188/282/382 221/216/475
s 6
f 7/12/243 223/221/476 222/215/477 2/13/478
s 40
f 220/217/472 180/186/366 181/187/368 226/219/479
s 6
f 10/2/262 219/218/470 225/220/480 16/177/263
s 40
f 228/224/481 186/192/378 187/193/380 224/222/474
s 6
f 13/355/242 227/223/482 223/221/476 7/12/243
s 40
f 233/228/483 185/191/376 186/192/378 228/224/481
s 6
f 50/233/484 234/227/485 227/223/482 13/355/242
f 16/177/263 225/220/480 229/226/486 42/234/487
s 40
f 226/219/479 181/187/368 182/188/370 230/225/488
s 6
f 66/235/489 235/232/490 234/227/485 50/233/484
s 40
f 236/231/491 184/190/374 185/191/376 233/228/483
s 6
f 42/234/487 229/226/486 231/230/492 58/236/493
s 40
f 230/225/488 182/188/370 183/189/372 232/229/494
s 6
f 58/236/493 231/230/492 235/232/490 66/235/489
s 40
f 232/229/494 183/189/372 184/190/374 236/231/491
s 46
f 237/237/495 243/322/496 128/138/497 16/354/498
s 47
f 238/327/499 237/353/500 16/177/501 42/234/502
f 246/319/503 238/327/499 42/234/502 58/236/504
f 239/241/505 248/315/506 50/233/507 13/355/508
s 49
f 240/243/509 239/356/510 13/176/511 115/100/512
f 255/244/513 240/243/509 115/100/512 73/103/514
f 241/245/515 265/246/516 101/36/517 24/347/518
s 51
f 242/247/519 241/348/520 24/39/521 49/211/522
f 247/318/523 242/247/519 49/211/522 65/213/524
s 46
f 243/322/496 257/311/525 86/139/526 128/138/497
f 266/310/527 244/345/528 25/28/529 114/27/530
s 51
f 244/251/531 245/320/532 41/212/533 25/346/534
f 245/320/532 249/317/535 57/214/536 41/212/533
s 47
f 250/316/537 246/319/503 58/236/504 66/235/538
s 51
f 249/317/535 247/318/523 65/213/524 57/214/536
s 47
f 248/315/506 250/316/537 66/235/538 50/233/507
s off
f 253/255/539 251/256/540 132/99/541 131/98/542
f 251/256/543 252/257/544 129/96/545 132/99/546
f 252/257/547 254/258/548 130/97/549 129/96/550
f 254/258/551 253/255/552 131/98/553 130/97/554
s 49
f 256/259/555 255/244/513 73/103/514 87/145/556
f 265/246/516 256/259/555 87/145/556 101/36/517
s 46
f 257/311/525 258/309/557 100/159/558 86/139/526
f 258/309/557 266/310/527 114/27/530 100/159/558
s off
f 261/261/559 259/262/560 144/143/561 143/142/562
f 259/262/563 260/263/564 141/140/565 144/143/566
f 260/263/567 262/264/568 142/141/569 141/140/570
f 262/264/571 261/261/572 143/142/573 142/141/574
f 269/265/575 263/266/576 145/160/577 148/163/578
f 263/266/579 264/267/580 146/161/581 145/160/582
f 264/267/583 270/268/584 147/162/585 146/161/586
f 271/269/587 267/270/588 157/172/589 160/175/590
f 267/270/591 268/271/592 158/173/593 157/172/594
f 268/271/595 272/272/596 159/174/597 158/173/598
f 270/268/599 269/265/600 148/163/601 147/162/602
f 272/272/603 271/269/604 160/175/605 159/174/606
s 54
f 270/268/607 265/312/608 241/324/609 242/323/610
f 266/250/611 271/269/612 245/252/613 244/321/614
f 269/265/615 270/268/607 242/323/610 247/248/616
f 271/269/612 272/272/617 249/253/618 245/252/613
f 272/272/617 269/265/615 247/248/616 249/253/618
f 254/258/619 240/325/620 255/314/621 253/255/622
f 243/238/623 260/263/624 259/262/625 257/249/626
f 262/264/627 252/257/628 251/256/629 261/261/630
f 251/256/629 253/255/622 264/267/631 263/266/632
f 253/255/622 255/314/621 256/313/633 264/267/631
f 257/249/626 259/262/625 267/270/634 258/260/635
f 259/262/625 261/261/630 268/271/636 267/270/634
f 261/261/630 251/256/629 263/266/632 268/271/636
f 264/267/631 256/313/633 265/312/608 270/268/607
f 258/260/635 267/270/634 271/269/612 266/250/611
f 268/271/636 263/266/632 269/265/615 272/272/617
f 250/254/637 248/242/638 254/258/619 252/257/628
f 248/242/638 239/326/639 240/325/620 254/258/619
f 237/328/640 238/239/641 260/263/624 243/238/623
f 238/239/641 246/240/642 262/264/627 260/263/624
f 246/240/642 250/254/637 252/257/628 262/264/627
