# This file uses centimeters as units for non-parametric coordinates.

mtllib Porp_Coffin_3.mtl
g default
v 39.133252 1.008596 171.815664
v 69.918537 1.008596 171.815664
v 39.133252 1.008596 157.778343
v 69.918537 1.008596 157.778343
v 39.133252 8.854506 171.815664
v 39.133252 8.854506 157.778343
v 69.918537 8.854506 171.815664
v 69.918537 8.854506 157.778343
v 42.713498 8.854506 170.183178
v 42.713498 8.854506 159.410816
v 66.338283 8.854506 170.183178
v 66.338283 8.854506 159.410816
v 42.713498 14.325310 170.183178
v 42.713498 14.325310 159.410816
v 66.338283 14.325310 170.183178
v 66.338283 14.325310 159.410816
v 51.806530 14.325310 166.966251
v 51.806530 14.325310 162.627689
v 57.245264 14.325310 166.966251
v 57.245264 14.325310 162.627689
v 51.806530 47.811021 166.966251
v 51.806530 47.811021 162.627689
v 57.245264 47.811021 166.966251
v 57.245264 47.811021 162.627689
v 51.806530 41.538103 166.966251
v 51.806530 41.538103 162.627689
v 57.245264 41.538103 162.627689
v 57.245264 41.538103 166.966251
v 51.806530 36.737334 166.966251
v 51.806530 36.737334 162.627689
v 57.245264 36.737334 162.627689
v 57.245264 36.737334 166.966251
v 46.152561 36.737334 166.966251
v 46.152561 36.737334 162.627689
v 46.152561 41.538103 166.966251
v 46.152561 41.538103 162.627689
v 62.899233 36.737334 162.627689
v 62.899233 36.737334 166.966251
v 62.899233 41.538103 162.627689
v 62.899233 41.538103 166.966251
vt 0.171028 0.518238
vt 0.171416 0.186160
vt 0.322835 0.186338
vt 0.322447 0.518415
vt 0.086784 0.186061
vt 0.322934 0.101705
vt 0.407080 0.518514
vt 0.170929 0.602870
vt 0.760357 0.000000
vt 0.986112 0.473079
vt 0.660087 0.495246
vt 0.941363 0.529163
vt 0.424734 0.479915
vt 0.188493 0.641511
vt 0.305370 0.063064
vt 0.069129 0.224661
vt 0.520970 0.515675
vt 0.520970 0.672737
vt 0.865421 0.515675
vt 0.865421 0.672737
vt 0.580790 0.007022
vt 0.941415 0.011125
vt 0.986061 0.991116
vt 0.839655 0.488224
vt 0.580790 0.333791
vt 0.941392 0.242256
vt 0.986084 0.759985
vt 0.839655 0.161456
vt 0.760357 0.091460
vt 0.986118 0.408387
vt 0.941357 0.593854
vt 0.660087 0.403786
vt 0.941386 0.300565
vt 0.498355 0.333791
vt 0.986124 0.350079
vt 0.677922 0.091460
vt 0.986089 0.701677
vt 0.922090 0.161455
vt 0.941351 0.652163
vt 0.742523 0.403786
vt 0.010116 0.224592
vt 0.188424 0.700524
vt 0.305439 0.004052
vt 0.483747 0.479984
vt 0.742523 0.333791
vt 0.986094 0.652167
vt 0.986100 0.593859
vt 0.660087 0.333791
vt 0.986129 0.300569
vt 0.498355 0.403786
vt 0.580790 0.403786
vt 0.986135 0.242261
vt 0.986106 0.529167
vt 0.580790 0.495246
vt 0.732844 0.562579
vt 0.660087 0.007022
vt 0.653547 0.562579
vt 0.986158 0.011130
vt 0.732844 0.625835
vt 0.653547 0.625836
vt 0.941347 0.701672
vt 0.922090 0.091460
vt 0.839655 0.091459
vt 0.941341 0.759981
vt 0.677922 0.161455
vt 0.941381 0.350074
vt 0.941375 0.408383
vt 0.760357 0.161455
vt 0.839655 0.000000
vt 0.941369 0.473074
vt 0.941318 0.991112
vt 0.760357 0.488224
vt 0.189170 0.062928
vt 0.189239 0.003916
vt 0.425032 0.225077
vt 0.484045 0.225146
vt 0.068831 0.479498
vt 0.009818 0.479429
vt 0.304693 0.641647
vt 0.304624 0.700660
vt 0.171515 0.101528
vt 0.407468 0.186437
vt 0.086395 0.518139
vt 0.322348 0.603048
vn 0.000000 -1.000000 0.000000
vn 0.000000 -1.000000 0.000000
vn 0.000000 -1.000000 0.000000
vn 0.000000 -1.000000 0.000000
vn 1.000000 0.000000 0.000000
vn 1.000000 0.000000 0.000000
vn 1.000000 0.000000 0.000000
vn 1.000000 0.000000 0.000000
vn -1.000000 0.000000 0.000000
vn -1.000000 0.000000 0.000000
vn -1.000000 0.000000 0.000000
vn -1.000000 0.000000 0.000000
vn 0.000000 1.000000 0.000000
vn 0.000000 1.000000 0.000000
vn 0.000000 1.000000 0.000000
vn 0.000000 1.000000 0.000000
vn 0.000000 0.000000 1.000000
vn 0.000000 0.000000 1.000000
vn 0.000000 0.000000 1.000000
vn 0.000000 0.000000 1.000000
vn 0.000000 0.000000 -1.000000
vn 0.000000 0.000000 -1.000000
vn 0.000000 0.000000 -1.000000
vn 0.000000 0.000000 -1.000000
vn 0.000000 1.000000 0.000000
vn 0.000000 1.000000 0.000000
vn 0.000000 1.000000 0.000000
vn 0.000000 1.000000 0.000000
vn 0.000000 1.000000 -0.000000
vn 0.000000 1.000000 -0.000000
vn 0.000000 1.000000 -0.000000
vn 0.000000 1.000000 -0.000000
vn 0.000000 1.000000 0.000000
vn 0.000000 1.000000 0.000000
vn 0.000000 1.000000 0.000000
vn 0.000000 1.000000 0.000000
vn 0.000000 1.000000 -0.000000
vn 0.000000 1.000000 -0.000000
vn 0.000000 1.000000 -0.000000
vn 0.000000 1.000000 -0.000000
vn -1.000000 0.000000 0.000000
vn -1.000000 0.000000 0.000000
vn -1.000000 0.000000 0.000000
vn -1.000000 0.000000 0.000000
vn 0.000000 0.000000 1.000000
vn 0.000000 0.000000 1.000000
vn 0.000000 0.000000 1.000000
vn 0.000000 0.000000 1.000000
vn 1.000000 0.000000 0.000000
vn 1.000000 0.000000 0.000000
vn 1.000000 0.000000 0.000000
vn 1.000000 0.000000 0.000000
vn 0.000000 0.000000 -1.000000
vn 0.000000 0.000000 -1.000000
vn 0.000000 0.000000 -1.000000
vn 0.000000 0.000000 -1.000000
vn 0.000000 1.000000 0.000000
vn 0.000000 1.000000 0.000000
vn 0.000000 1.000000 0.000000
vn 0.000000 1.000000 0.000000
vn 0.000000 1.000000 -0.000000
vn 0.000000 1.000000 -0.000000
vn 0.000000 1.000000 -0.000000
vn 0.000000 1.000000 -0.000000
vn 0.000000 1.000000 0.000000
vn 0.000000 1.000000 0.000000
vn 0.000000 1.000000 0.000000
vn 0.000000 1.000000 0.000000
vn 0.000000 1.000000 0.000000
vn 0.000000 1.000000 0.000000
vn 0.000000 1.000000 0.000000
vn 0.000000 1.000000 0.000000
vn -1.000000 0.000000 0.000000
vn -1.000000 0.000000 0.000000
vn -1.000000 0.000000 0.000000
vn -1.000000 0.000000 0.000000
vn 0.000000 0.000000 1.000000
vn 0.000000 0.000000 1.000000
vn 0.000000 0.000000 1.000000
vn 0.000000 0.000000 1.000000
vn 1.000000 0.000000 0.000000
vn 1.000000 0.000000 0.000000
vn 1.000000 0.000000 0.000000
vn 1.000000 0.000000 0.000000
vn 0.000000 0.000000 -1.000000
vn 0.000000 0.000000 -1.000000
vn 0.000000 0.000000 -1.000000
vn 0.000000 0.000000 -1.000000
vn -1.000000 0.000000 0.000000
vn -1.000000 0.000000 0.000000
vn -1.000000 0.000000 0.000000
vn -1.000000 0.000000 0.000000
vn 0.000000 0.000000 -1.000000
vn 0.000000 0.000000 -1.000000
vn 0.000000 0.000000 -1.000000
vn 0.000000 0.000000 -1.000000
vn 1.000000 0.000000 0.000000
vn 1.000000 0.000000 0.000000
vn 1.000000 0.000000 0.000000
vn 1.000000 0.000000 0.000000
vn 0.000000 0.000000 1.000000
vn 0.000000 0.000000 1.000000
vn 0.000000 0.000000 1.000000
vn 0.000000 0.000000 1.000000
vn -1.000000 0.000000 0.000000
vn -1.000000 0.000000 0.000000
vn -1.000000 0.000000 0.000000
vn -1.000000 0.000000 0.000000
vn 1.000000 0.000000 0.000000
vn 1.000000 0.000000 0.000000
vn 1.000000 0.000000 0.000000
vn 1.000000 0.000000 0.000000
vn 0.000000 -1.000000 0.000000
vn 0.000000 -1.000000 0.000000
vn 0.000000 -1.000000 0.000000
vn 0.000000 -1.000000 0.000000
vn 0.000000 0.000000 1.000000
vn 0.000000 0.000000 1.000000
vn 0.000000 0.000000 1.000000
vn 0.000000 0.000000 1.000000
vn 0.000000 1.000000 0.000000
vn 0.000000 1.000000 0.000000
vn 0.000000 1.000000 0.000000
vn 0.000000 1.000000 0.000000
vn 0.000000 0.000000 -1.000000
vn 0.000000 0.000000 -1.000000
vn 0.000000 0.000000 -1.000000
vn 0.000000 0.000000 -1.000000
vn 0.000000 -1.000000 0.000000
vn 0.000000 -1.000000 0.000000
vn 0.000000 -1.000000 0.000000
vn 0.000000 -1.000000 0.000000
vn 0.000000 0.000000 -1.000000
vn 0.000000 0.000000 -1.000000
vn 0.000000 0.000000 -1.000000
vn 0.000000 0.000000 -1.000000
vn 0.000000 1.000000 0.000000
vn 0.000000 1.000000 0.000000
vn 0.000000 1.000000 0.000000
vn 0.000000 1.000000 0.000000
vn 0.000000 0.000000 1.000000
vn 0.000000 0.000000 1.000000
vn 0.000000 0.000000 1.000000
vn 0.000000 0.000000 1.000000
s off
g Porp_Coffin_3
usemtl lambert1SG
f 3/1/1 4/2/2 2/3/3 1/4/4
f 2/3/5 4/2/6 8/81/7 7/6/8
f 3/1/9 1/4/10 5/84/11 6/8/12
f 22/70/13 21/10/14 23/53/15 24/12/16
f 5/7/17 1/4/18 2/3/19 7/82/20
f 8/5/21 4/2/22 3/1/23 6/83/24
f 6/8/25 5/84/26 9/79/27 10/14/28
f 5/7/29 7/82/30 11/75/31 9/13/32
f 7/6/33 8/81/34 12/73/35 11/15/36
f 8/5/37 6/83/38 10/77/39 12/16/40
f 10/14/41 9/79/42 13/80/43 14/42/44
f 9/13/45 11/75/46 15/76/47 13/44/48
f 11/15/49 12/73/50 16/74/51 15/43/52
f 12/16/53 10/77/54 14/78/55 16/41/56
f 14/18/57 13/17/58 17/57/59 18/60/60
f 13/17/61 15/19/62 19/55/63 17/57/64
f 15/19/65 16/20/66 20/59/67 19/55/68
f 16/20/69 14/18/70 18/60/71 20/59/72
f 18/22/73 17/58/74 29/52/75 30/26/76
s 1
f 17/21/77 19/56/78 32/48/79 29/25/80
s off
f 19/23/81 20/71/82 31/64/83 32/27/84
s 2
f 20/24/85 18/72/86 30/68/87 31/28/88
s off
f 26/67/89 25/30/90 21/10/91 22/70/92
s 2
f 27/63/93 26/29/94 22/9/95 24/69/96
s off
f 28/47/97 27/31/98 24/12/99 23/53/100
s 1
f 25/51/101 28/32/102 23/11/103 21/54/104
s off
f 34/33/105 33/49/106 35/35/107 36/66/108
s 2
f 31/28/88 30/68/87 26/29/94 27/63/93
s off
f 38/37/109 37/61/110 39/39/111 40/46/112
s 1
f 29/25/80 32/48/79 28/32/102 25/51/101
s off
f 30/26/113 29/52/114 33/49/115 34/33/116
f 29/25/117 25/51/118 35/50/119 33/34/120
f 25/30/121 26/67/122 36/66/123 35/35/124
f 26/29/125 30/68/126 34/65/127 36/36/128
f 32/27/129 31/64/130 37/61/131 38/37/132
f 31/28/133 27/63/134 39/62/135 37/38/136
f 27/31/137 28/47/138 40/46/139 39/39/140
f 28/32/141 32/48/142 38/45/143 40/40/144
