# This file uses centimeters as units for non-parametric coordinates.

mtllib Porp_Dead_5.mtl
g default
v 199.802594 -2.876779 168.115211
v 220.825091 -2.876779 168.115211
v 199.802594 262.188844 173.182008
v 220.825091 262.188844 173.182008
v 199.802594 261.794749 152.545000
v 220.825091 261.794749 152.545000
v 199.802594 -3.270925 147.478213
v 220.825091 -3.270925 147.478213
v 199.802594 239.732819 172.752754
v 199.802594 239.338705 152.115736
v 220.825091 239.338705 152.115736
v 220.825091 239.732819 172.752754
v 199.802594 261.420992 132.981416
v 220.825091 261.420992 132.981416
v 220.825091 238.965160 132.552153
v 199.802594 238.965160 132.552153
v 220.825091 242.621218 323.978630
v 199.802594 242.621218 323.978630
v 220.825091 265.077070 324.407865
v 199.802594 265.077070 324.407865
v 199.802594 263.036314 217.547597
v 220.825091 263.036314 217.547597
v 220.825033 240.580154 217.118343
v 199.802594 240.580154 217.118343
v 199.802594 263.488589 241.237816
v 220.825091 263.488589 241.237816
v 220.825091 241.032622 240.808523
v 199.802594 241.032622 240.808523
v 199.802594 202.973543 172.050105
v 199.802594 202.579428 151.413068
v 220.825091 202.579428 151.413068
v 220.825091 202.973543 172.050105
v 199.802594 181.508130 171.639781
v 199.802594 181.114016 151.002764
v 220.825091 181.114016 151.002764
v 220.825091 181.508130 171.639781
v 220.825091 12.275364 168.404853
v 199.802594 12.275364 168.404853
v 199.802594 11.881215 147.767836
v 220.825091 11.881215 147.767836
v 220.825091 28.842068 168.721531
v 199.802594 28.842068 168.721531
v 199.802594 28.447922 148.084513
v 220.825091 28.447922 148.084513
v 199.802594 13.917431 163.767002
v 199.802594 13.701706 152.471875
v 199.802594 27.021584 164.017491
v 199.802594 26.805862 152.722365
v 220.825091 13.701706 152.471875
v 220.825091 13.917431 163.767002
v 220.825091 26.805862 152.722365
v 220.825091 27.021584 164.017491
v 165.236323 -2.494909 163.453277
v 165.236323 -2.710635 152.158141
v 165.236285 10.609257 163.703767
v 165.236285 10.393530 152.408640
v 255.391362 -2.710620 152.158141
v 255.391362 -2.494899 163.453277
v 255.391362 10.393511 152.408640
v 255.391362 10.609244 163.703767
vt 0.493773 0.003086
vt 0.727936 0.354828
vt 0.810127 0.661576
vt 0.962691 0.506627
vt 0.000000 0.171816
vt 0.308230 0.161341
vt 0.303832 0.084050
vt 0.386163 0.079793
vt 0.960904 0.489349
vt 0.957625 0.678973
vt 0.646816 0.000064
vt 0.417976 0.000249
vt 0.117375 0.081255
vt 0.494494 0.894773
vt 0.117409 0.084494
vt 0.301126 0.009747
vt 0.214075 0.008498
vt 0.126098 0.004962
vt 0.571746 0.894711
vt 0.214231 0.085171
vt 0.166692 0.740370
vt 0.247594 0.736987
vt 0.334363 0.736909
vt 0.415815 0.733595
vt 0.999674 0.267483
vt 0.811391 0.270062
vt 0.315252 0.326871
vt 0.060667 0.339381
vt 0.066562 0.425576
vt 0.319271 0.416119
vt 0.945073 0.335307
vt 0.867829 0.336365
vt 0.724680 0.756585
vt 0.805156 0.054455
vt 0.647428 0.756647
vt 0.727936 0.056688
vt 0.724616 0.677691
vt 0.494321 0.680774
vt 0.647364 0.677753
vt 0.571573 0.680712
vt 0.855932 0.697192
vt 0.895733 0.512993
vt 0.389798 0.055257
vt 0.952062 0.333832
vt 0.906544 0.354015
vt 0.862015 0.354180
vt 0.866745 0.513357
vt 0.897133 0.684628
vt 0.728306 0.001354
vt 0.957648 0.513030
vt 0.908270 0.530921
vt 0.863765 0.530310
vt 0.952106 0.491321
vt 0.963203 0.482732
vt 0.901299 0.510693
vt 0.873131 0.509722
vt 0.944793 0.663475
vt 0.814891 0.665188
vt 0.895549 0.683386
vt 0.864422 0.687304
vt 0.819199 0.508673
vt 0.772874 0.000000
vt 0.772504 0.044842
vt 0.774900 0.513143
vt 0.727937 0.046195
vt 0.804020 0.656314
vt 0.434362 0.056716
vt 0.996504 0.339291
vt 0.812471 0.335616
vt 0.434626 0.101559
vt 0.390062 0.100100
vt 0.823970 0.487306
vt 0.571119 0.119603
vt 0.863801 0.688223
vt 0.646910 0.116644
vt 0.898211 0.701869
vt 0.571070 0.058713
vt 0.804075 0.678975
vt 0.646861 0.055755
vt 0.805930 0.663015
vt 0.724163 0.116581
vt 0.418071 0.116829
vt 0.872957 0.509931
vt 0.493867 0.119665
vt 0.903009 0.530852
vt 0.418021 0.055940
vt 0.724113 0.055692
vt 0.813066 0.504439
vt 0.493818 0.058776
vt 0.956962 0.487834
vt 0.804484 0.354828
vt 0.724068 0.000002
vt 0.940480 0.000001
vt 0.863235 0.001059
vt 0.571637 0.759606
vt 0.418525 0.677938
vt 0.494385 0.759668
vt 0.418588 0.756832
vt 0.232984 0.414165
vt 0.152651 0.414509
vt 0.400496 0.414192
vt 0.732636 0.354828
vt 0.080157 0.748519
vt 0.228406 0.325245
vt 0.155724 0.232979
vt 0.149650 0.320370
vt 0.396579 0.326116
vt 0.732633 0.272294
vt 0.809888 0.354826
vt 0.390286 0.159038
vt 0.809885 0.272291
vt 0.120505 0.181546
vt 0.219822 0.160303
vt 0.382694 0.004696
vt 0.036180 0.000000
vt 0.117418 0.167028
vt 0.194670 0.167020
vt 0.194661 0.084486
vt 0.022823 0.076218
vt 0.076241 0.166889
vt 0.647538 0.891752
vt 0.418698 0.891937
vt 0.724790 0.891690
vt 0.804484 0.431376
vt 0.571025 0.003023
vt 0.727936 0.431376
vt 1.000000 0.051786
vt 0.734171 0.272295
vn 0.000000 -0.019112 0.999817
vn 0.000000 -0.019112 0.999817
vn 0.000000 -0.019112 0.999817
vn 0.000000 -0.019112 0.999817
vn 0.000000 0.999818 -0.019092
vn 0.000000 0.999818 -0.019092
vn 0.000000 0.999818 -0.019092
vn 0.000000 0.999818 -0.019092
vn 0.000000 0.019111 -0.999817
vn 0.000000 0.019111 -0.999817
vn 0.000000 0.019111 -0.999817
vn 0.000000 0.019111 -0.999817
vn 0.000000 -0.999818 0.019096
vn 0.000000 -0.999818 0.019096
vn 0.000000 -0.999818 0.019096
vn 0.000000 -0.999818 0.019096
vn 1.000000 -0.000000 0.000000
vn 1.000000 -0.000000 0.000000
vn 1.000000 -0.000000 0.000000
vn 1.000000 -0.000000 0.000000
vn -1.000000 0.000000 0.000000
vn -1.000000 0.000000 0.000000
vn -1.000000 0.000000 0.000000
vn -1.000000 0.000000 0.000000
vn -1.000000 -0.000000 0.000000
vn -1.000000 -0.000000 0.000000
vn -1.000000 -0.000000 0.000000
vn -1.000000 -0.000000 0.000000
vn 0.000000 0.019112 -0.999817
vn 0.000000 0.019112 -0.999817
vn 0.000000 0.019112 -0.999817
vn 0.000000 0.019112 -0.999817
vn 1.000000 -0.000000 0.000000
vn 1.000000 -0.000000 0.000000
vn 1.000000 -0.000000 0.000000
vn 1.000000 -0.000000 0.000000
vn 0.000000 -0.019111 0.999817
vn 0.000000 -0.019111 0.999817
vn 0.000000 -0.019111 0.999817
vn 0.000000 -0.019111 0.999817
vn 0.000000 0.999818 -0.019101
vn 0.000000 0.999818 -0.019101
vn 0.000000 0.999818 -0.019101
vn 0.000000 0.999818 -0.019101
vn 1.000000 0.000000 0.000000
vn 1.000000 0.000000 0.000000
vn 1.000000 0.000000 0.000000
vn 1.000000 0.000000 0.000000
vn 0.000000 -0.999818 0.019090
vn 0.000000 -0.999818 0.019090
vn 0.000000 -0.999818 0.019090
vn 0.000000 -0.999818 0.019090
vn -1.000000 0.000000 0.000000
vn -1.000000 0.000000 0.000000
vn -1.000000 0.000000 0.000000
vn -1.000000 0.000000 0.000000
vn 0.000000 -0.999818 0.019095
vn 0.000000 -0.999818 0.019095
vn 0.000000 0.019111 -0.999817
vn 0.000000 0.019111 -0.999817
vn 1.000000 -0.000001 0.000001
vn 1.000000 -0.000001 0.000001
vn 1.000000 -0.000001 0.000000
vn 1.000000 -0.000001 0.000000
vn 0.000000 0.999818 -0.019099
vn 0.000000 0.999818 -0.019099
vn 0.000000 0.999818 -0.019095
vn 0.000000 0.999818 -0.019095
vn -1.000000 0.000000 0.000000
vn -1.000000 0.000000 0.000000
vn -1.000000 0.000000 0.000000
vn -1.000000 0.000000 0.000000
vn 0.000000 0.999818 -0.019094
vn 0.000000 0.999818 -0.019094
vn 1.000000 -0.000000 -0.000000
vn 1.000000 -0.000000 -0.000000
vn -1.000000 0.000000 0.000000
vn -1.000000 0.000000 0.000000
vn 0.000000 0.999818 -0.019096
vn 0.000000 0.999818 -0.019096
vn 1.000000 0.000000 0.000000
vn 1.000000 0.000000 0.000000
vn 0.000000 -0.928103 0.372323
vn 0.000000 -0.928103 0.372323
vn 0.000000 -0.999818 0.019097
vn 0.000000 -0.999818 0.019097
vn -1.000000 0.000000 0.000000
vn -1.000000 0.000000 0.000000
vn -1.000000 -0.000000 0.000000
vn -1.000000 -0.000000 0.000000
vn 0.000000 0.019112 -0.999817
vn 0.000000 0.019112 -0.999817
vn 0.000000 0.019112 -0.999817
vn 0.000000 0.019112 -0.999817
vn 1.000000 0.000000 0.000000
vn 1.000000 0.000000 0.000000
vn 0.000000 -0.019111 0.999817
vn 0.000000 -0.019111 0.999817
vn 0.000000 -0.019111 0.999817
vn 0.000000 -0.019111 0.999817
vn -1.000000 -0.000000 0.000000
vn -1.000000 -0.000000 0.000000
vn 0.000000 0.019112 -0.999817
vn 0.000000 0.019112 -0.999817
vn 1.000000 0.000000 0.000000
vn 1.000000 0.000000 0.000000
vn 0.000000 -0.757972 0.652287
vn 0.000000 -0.757972 0.652287
vn 1.000000 0.000002 -0.000001
vn 1.000000 0.000002 -0.000001
vn 1.000000 0.000002 -0.000001
vn 1.000000 0.000002 -0.000001
vn 0.000000 0.767804 -0.640684
vn 0.000000 0.767804 -0.640684
vn -1.000000 0.000000 0.000000
vn -1.000000 0.000000 0.000000
vn -1.000000 0.000000 0.000000
vn -1.000000 0.000000 0.000000
vn 0.000000 -0.019112 0.999817
vn 0.000000 -0.019112 0.999817
vn -1.000000 -0.000003 0.000000
vn -1.000000 -0.000003 0.000000
vn -1.000000 -0.000003 0.000000
vn -1.000000 -0.000003 0.000000
vn 0.000000 0.019112 -0.999817
vn 0.000000 0.019112 -0.999817
vn 1.000000 -0.000000 0.000000
vn 1.000000 -0.000000 0.000000
vn 1.000000 -0.000000 0.000000
vn 1.000000 -0.000000 0.000000
vn 0.000000 -0.019112 0.999817
vn 0.000000 -0.019112 0.999817
vn -1.000000 0.000000 0.000000
vn -1.000000 0.000000 0.000000
vn 1.000000 0.000000 0.000000
vn 1.000000 0.000000 0.000000
vn -1.000000 -0.000001 0.000000
vn -1.000000 -0.000001 0.000000
vn -1.000000 -0.000001 0.000000
vn -1.000000 -0.000001 0.000000
vn -1.000000 0.000000 0.000000
vn -1.000000 0.000000 0.000000
vn -1.000000 0.000000 0.000000
vn -1.000000 0.000000 0.000000
vn -1.000000 0.000001 0.000000
vn -1.000000 0.000001 0.000000
vn -1.000000 0.000001 0.000000
vn -1.000000 0.000001 0.000000
vn -1.000000 0.000000 0.000000
vn -1.000000 0.000000 0.000000
vn -1.000000 0.000000 0.000000
vn -1.000000 0.000000 0.000000
vn 1.000000 0.000000 0.000000
vn 1.000000 0.000000 0.000000
vn 1.000000 0.000000 0.000000
vn 1.000000 0.000000 0.000000
vn 1.000000 -0.000000 0.000000
vn 1.000000 -0.000000 0.000000
vn 1.000000 -0.000000 0.000000
vn 1.000000 -0.000000 0.000000
vn 1.000000 0.000000 0.000000
vn 1.000000 0.000000 0.000000
vn 1.000000 0.000000 0.000000
vn 1.000000 0.000000 0.000000
vn 1.000000 0.000000 0.000000
vn 1.000000 0.000000 0.000000
vn 1.000000 0.000000 0.000000
vn 1.000000 0.000000 0.000000
vn 0.428724 -0.903271 0.017252
vn 0.428724 -0.903271 0.017252
vn 0.428724 -0.903271 0.017252
vn 0.428724 -0.903271 0.017252
vn 0.000000 -0.019112 0.999817
vn 0.000000 -0.019112 0.999817
vn 0.000000 -0.019112 0.999817
vn 0.000000 -0.019112 0.999817
vn -0.428723 0.903271 -0.017252
vn -0.428723 0.903271 -0.017251
vn -0.428723 0.903271 -0.017252
vn -0.428723 0.903271 -0.017251
vn -0.000000 0.019112 -0.999817
vn -0.000000 0.019112 -0.999817
vn -0.000000 0.019112 -0.999817
vn -0.000000 0.019112 -0.999817
vn -0.428723 -0.903271 0.017251
vn -0.428723 -0.903271 0.017251
vn -0.428723 -0.903271 0.017251
vn -0.428723 -0.903271 0.017251
vn 0.000000 0.019112 -0.999817
vn 0.000000 0.019112 -0.999817
vn 0.000000 0.019112 -0.999817
vn 0.000000 0.019112 -0.999817
vn 0.428724 0.903271 -0.017252
vn 0.428724 0.903271 -0.017252
vn 0.428724 0.903271 -0.017252
vn 0.428724 0.903271 -0.017252
vn -0.000000 -0.019112 0.999817
vn -0.000000 -0.019112 0.999817
vn -0.000000 -0.019112 0.999817
vn -0.000000 -0.019112 0.999817
s 1
g Porp_Dead_5
usemtl Porp_Dead___
f 1/1/1 2/125/2 37/77/3 38/89/4
s off
f 3/110/5 4/6/6 6/7/7 5/8/8
s 2
f 39/87/9 40/79/10 8/11/11 7/92/12
s off
f 7/2/13 8/91/14 2/124/15 1/126/16
f 2/125/17 8/11/18 40/79/19 37/77/20
f 7/12/21 1/1/22 38/89/23 39/86/24
s 3
f 10/13/25 9/120/26 3/5/27 5/119/28
s off
f 13/15/29 14/118/30 15/117/31 16/116/32
s 4
f 12/113/33 11/20/34 6/7/35 4/6/36
s off
f 18/108/37 17/111/38 19/109/39 20/102/40
f 5/8/41 6/7/42 14/16/43 13/114/44
f 6/7/45 11/20/46 15/17/47 14/16/48
f 11/20/49 10/13/50 16/18/51 15/17/52
f 10/13/53 5/119/54 13/115/55 16/18/56
s 5
f 9/120/57 12/112/58 23/105/59 24/106/60
s 6
f 12/113/61 4/6/62 22/27/63 23/104/64
s 7
f 4/6/65 3/110/66 21/107/67 22/27/68
s 8
f 3/5/69 9/120/70 24/106/71 21/28/72
s 7
f 22/27/68 21/107/67 25/101/73 26/30/74
s 6
f 23/104/64 22/27/63 26/30/75 27/99/76
s 8
f 21/28/72 24/106/71 28/100/77 25/29/78
s 7
f 26/30/74 25/101/73 20/24/79 19/23/80
s 6
f 27/99/76 26/30/75 19/23/81 17/22/82
s 9
f 28/100/83 27/99/84 17/22/85 18/21/86
s 8
f 25/29/78 28/100/77 18/21/87 20/103/88
s 3
f 30/98/89 29/97/90 9/14/26 10/122/25
s 2
f 10/123/91 11/121/92 31/35/93 30/33/94
s 4
f 32/95/95 31/35/96 11/121/34 12/19/33
s off
f 29/97/97 32/95/98 12/19/99 9/14/100
s 3
f 34/96/101 33/38/102 29/97/90 30/98/89
s 2
f 30/33/94 31/35/93 35/39/103 34/37/104
s 4
f 36/40/105 35/39/106 31/35/96 32/95/95
s 9
f 33/94/107 36/93/108 27/31/84 28/32/83
s off
f 36/93/109 32/127/110 23/25/111 27/31/112
s 5
f 32/36/113 29/34/114 24/26/60 23/128/59
s off
f 29/34/115 33/94/116 28/32/117 24/26/118
s 1
f 38/89/4 37/77/3 41/73/119 42/84/120
s off
f 54/43/121 53/67/122 55/70/123 56/71/124
s 2
f 43/81/125 44/75/126 40/79/10 39/87/9
s off
f 58/49/127 57/62/128 59/63/129 60/65/130
s 1
f 42/84/120 41/73/119 36/40/131 33/38/132
s 3
f 43/82/133 42/84/134 33/38/102 34/96/101
s 2
f 34/37/104 35/39/103 44/75/126 43/81/125
s 4
f 41/73/135 44/75/136 35/39/106 36/40/105
s off
f 39/9/137 38/90/138 45/53/139 46/54/140
f 38/4/141 42/85/142 47/55/143 45/53/144
f 42/42/145 43/83/146 48/56/147 47/55/148
f 43/47/149 39/88/150 46/72/151 48/56/152
f 37/3/153 40/80/154 49/66/155 50/58/156
f 40/10/157 44/76/158 51/59/159 49/57/160
f 44/48/161 41/74/162 52/60/163 51/59/164
f 41/41/165 37/78/166 50/58/167 52/60/168
f 46/54/169 45/53/170 53/44/171 54/68/172
f 45/53/173 47/55/174 55/45/175 53/44/176
f 47/55/177 48/56/178 56/46/179 55/45/180
f 48/56/181 46/72/182 54/69/183 56/46/184
f 50/58/185 49/66/186 57/64/187 58/61/188
f 49/57/189 51/59/190 59/51/191 57/50/192
f 51/59/193 52/60/194 60/52/195 59/51/196
f 52/60/197 50/58/198 58/61/199 60/52/200
