# This file uses centimeters as units for non-parametric coordinates.

mtllib Porp_Coffin_1.mtl
g default
v -71.049853 1.085717 172.387490
v -22.229399 1.085717 172.387490
v -47.218242 81.098313 172.387493
v -46.061011 81.098313 172.387493
v -47.218242 81.098313 156.925907
v -46.061011 81.098313 156.925907
v -71.049853 1.085717 156.925905
v -22.229399 1.085717 156.925905
v -71.049853 7.025247 172.387490
v -71.049853 7.025248 156.925905
v -22.229399 7.025248 156.925905
v -22.229399 7.025247 172.387490
v -69.422504 10.863896 172.387490
v -69.422504 10.863896 156.925905
v -23.856746 10.863896 156.925905
v -23.856746 10.863896 172.387490
v -66.167810 14.941227 172.387490
v -66.167810 14.941225 156.925905
v -27.111446 14.941225 156.925905
v -27.111446 14.941227 172.387490
v -66.264245 48.162195 172.387490
v -66.264245 48.162195 156.925905
v -27.015011 48.162195 156.925905
v -27.015011 48.162195 172.387490
v -63.455564 63.121348 172.387490
v -63.455564 63.121348 156.925905
v -29.823689 63.121348 156.925905
v -29.823689 63.121348 172.387490
v -55.318818 74.680691 172.387490
v -55.318818 74.680691 156.925905
v -37.960435 74.680691 156.925905
v -37.960435 74.680691 172.387490
v -68.892184 7.025247 172.043857
v -68.892184 7.025248 157.269539
v -67.408678 10.084360 172.043857
v -67.408678 10.084360 157.269539
v -25.870572 10.084360 157.269539
v -24.387068 7.025248 157.269539
v -24.387068 7.025247 172.043857
v -25.870572 10.084360 172.043857
vt 0.114891 0.000000
vt 0.507412 0.000045
vt 0.289801 0.626280
vt 0.299493 0.626516
vt 0.816598 0.737726
vt 0.620273 0.171124
vt 0.999991 0.118980
vt 0.624401 0.118950
vt 1.000000 0.000030
vt 0.624410 0.000000
vt 0.621900 0.020051
vt 0.394805 0.705372
vt 0.000000 0.014433
vt 0.184216 0.701110
vt 0.118622 0.046556
vt 0.012115 0.056945
vt 0.999987 0.164675
vt 0.624397 0.164645
vt 0.607367 0.063855
vt 0.503615 0.046612
vt 0.129941 0.083218
vt 0.023181 0.106084
vt 0.987465 0.197406
vt 0.636914 0.197378
vt 0.598610 0.113652
vt 0.489995 0.082696
vt 0.150279 0.117327
vt 0.027325 0.143614
vt 0.962423 0.228772
vt 0.661951 0.228748
vt 0.592258 0.148786
vt 0.470086 0.116550
vt 0.159255 0.368078
vt 0.044780 0.395089
vt 0.963145 0.484350
vt 0.661189 0.484326
vt 0.564306 0.413880
vt 0.449093 0.379620
vt 0.181401 0.479790
vt 0.074564 0.522498
vt 0.941528 0.599434
vt 0.682788 0.599413
vt 0.521713 0.543000
vt 0.420239 0.489926
vt 0.233496 0.570627
vt 0.131250 0.632389
vt 0.878922 0.688358
vt 0.745379 0.688347
vt 0.452100 0.644514
vt 0.361077 0.574632
vt 0.019412 0.071401
vt 0.135944 0.049620
vt 0.144847 0.075235
vt 0.024856 0.092264
vt 0.971972 0.190851
vt 0.652408 0.190825
vt 0.640997 0.167290
vt 0.983387 0.167317
vt 0.485926 0.049574
vt 0.600800 0.076804
vt 0.596769 0.097882
vt 0.475833 0.074895
vt 0.611370 0.171137
vt 0.807696 0.737725
vt 0.611206 0.052186
vt 0.620109 0.052174
vn 0.000000 0.000000 1.000000
vn 0.000000 0.000000 1.000000
vn 0.000000 0.000000 1.000000
vn 0.000000 0.000000 1.000000
vn 0.000000 1.000000 0.000000
vn 0.000000 1.000000 0.000000
vn 0.000000 1.000000 0.000000
vn 0.000000 1.000000 0.000000
vn 0.000000 0.000000 -1.000000
vn 0.000000 0.000000 -1.000000
vn 0.000000 0.000000 -1.000000
vn 0.000000 0.000000 -1.000000
vn 0.000000 -1.000000 0.000000
vn 0.000000 -1.000000 0.000000
vn 0.000000 -1.000000 0.000000
vn 0.000000 -1.000000 0.000000
vn 1.000000 0.000000 0.000000
vn 1.000000 0.000000 0.000000
vn 1.000000 0.000000 0.000000
vn 1.000000 0.000000 0.000000
vn -1.000000 0.000000 0.000000
vn -1.000000 0.000000 0.000000
vn -1.000000 0.000000 0.000000
vn -1.000000 0.000000 0.000000
vn -0.899779 0.436345 0.000000
vn -0.899779 0.436345 0.000000
vn -0.899779 0.436345 0.000000
vn -0.899779 0.436345 0.000000
vn 0.000000 0.000000 -1.000000
vn 0.000000 0.000000 -1.000000
vn 0.000000 0.000000 -1.000000
vn 0.000000 0.000000 -1.000000
vn 0.899780 0.436344 0.000000
vn 0.899780 0.436344 0.000000
vn 0.899780 0.436344 0.000000
vn 0.899780 0.436344 0.000000
vn 0.000000 0.000000 1.000000
vn 0.000000 0.000000 1.000000
vn 0.000000 0.000000 1.000000
vn 0.000000 0.000000 1.000000
vn -0.781539 0.623857 -0.000000
vn -0.781539 0.623857 -0.000000
vn -0.996434 0.084374 -0.000000
vn -0.996434 0.084374 -0.000000
vn 0.000000 0.000000 -1.000000
vn 0.000000 0.000000 -1.000000
vn 0.000000 0.000000 -1.000000
vn 0.000000 0.000000 -1.000000
vn 0.781538 0.623857 -0.000000
vn 0.781538 0.623857 -0.000000
vn 0.996434 0.084374 -0.000000
vn 0.996434 0.084374 -0.000000
vn 0.000000 0.000000 1.000000
vn 0.000000 0.000000 1.000000
vn 0.000000 0.000000 1.000000
vn 0.000000 0.000000 1.000000
vn -0.998419 0.056205 0.000000
vn -0.998419 0.056205 0.000000
vn 0.000000 0.000000 -1.000000
vn 0.000000 0.000000 -1.000000
vn 0.998419 0.056205 0.000000
vn 0.998419 0.056205 0.000000
vn 0.000000 0.000000 1.000000
vn 0.000000 0.000000 1.000000
vn -0.924358 0.381526 0.000000
vn -0.924358 0.381526 0.000000
vn 0.000000 0.000000 -1.000000
vn 0.000000 0.000000 -1.000000
vn 0.924358 0.381526 0.000000
vn 0.924358 0.381526 0.000000
vn 0.000000 0.000000 1.000000
vn 0.000000 0.000000 1.000000
vn -0.742101 0.670288 0.000000
vn -0.742101 0.670288 0.000000
vn 0.000000 0.000000 -1.000000
vn 0.000000 0.000000 -1.000000
vn 0.742101 0.670288 0.000000
vn 0.742101 0.670288 0.000000
vn 0.000000 -0.000000 1.000000
vn 0.000000 -0.000000 1.000000
vn -0.620980 0.783826 0.000000
vn -0.620980 0.783826 0.000000
vn 0.000000 0.000000 -1.000000
vn 0.000000 0.000000 -1.000000
vn 0.620980 0.783826 0.000000
vn 0.620980 0.783826 0.000000
vn 0.000000 -0.000000 1.000000
vn 0.000000 -0.000000 1.000000
vn 0.000000 1.000000 0.000000
vn 0.000000 1.000000 0.000000
vn 0.000000 1.000000 0.000000
vn 0.000000 1.000000 0.000000
vn -0.360990 -0.932570 0.000000
vn -0.360990 -0.932570 0.000000
vn -0.360990 -0.932570 0.000000
vn -0.360990 -0.932570 0.000000
vn 0.000000 -0.403366 -0.915039
vn 0.000000 -0.403366 -0.915039
vn 0.000000 -0.403366 -0.915039
vn 0.000000 -0.403366 -0.915039
vn 0.000000 1.000000 0.000000
vn 0.000000 1.000000 0.000000
vn 0.000000 1.000000 0.000000
vn 0.000000 1.000000 0.000000
vn 0.000000 1.000000 0.000000
vn 0.000000 1.000000 0.000000
vn 0.000000 1.000000 0.000000
vn 0.000000 1.000000 0.000000
vn 0.360990 -0.932570 0.000000
vn 0.360990 -0.932570 0.000000
vn 0.360990 -0.932570 0.000000
vn 0.360990 -0.932570 0.000000
vn 0.000000 1.000000 -0.000000
vn 0.000000 1.000000 -0.000000
vn 0.000000 1.000000 -0.000000
vn 0.000000 1.000000 -0.000000
vn 0.000000 -0.403366 0.915039
vn 0.000000 -0.403366 0.915039
vn 0.000000 -0.403366 0.915039
vn 0.000000 -0.403366 0.915039
s off
g Porp_Coffin_1
usemtl lambert1SG
f 1/1/1 2/2/2 12/20/3 9/15/4
f 3/65/5 4/66/6 6/6/7 5/63/8
f 10/17/9 11/18/10 8/8/11 7/7/12
f 7/7/13 8/8/14 2/10/15 1/9/16
f 2/2/17 8/11/18 11/19/19 12/20/20
f 7/13/21 1/1/22 9/15/23 10/16/24
f 34/51/25 33/52/26 35/53/27 36/54/28
f 36/55/29 37/56/30 38/57/31 34/58/32
f 39/59/33 38/60/34 37/61/35 40/62/36
f 33/52/37 39/59/38 40/62/39 35/53/40
s 1
f 14/22/41 13/21/42 17/27/43 18/28/44
s 2
f 18/29/45 19/30/46 15/24/47 14/23/48
s 3
f 16/26/49 15/25/50 19/31/51 20/32/52
s 4
f 13/21/53 16/26/54 20/32/55 17/27/56
s 1
f 18/28/44 17/27/43 21/33/57 22/34/58
s 2
f 22/35/59 23/36/60 19/30/46 18/29/45
s 3
f 20/32/52 19/31/51 23/37/61 24/38/62
s 4
f 17/27/56 20/32/55 24/38/63 21/33/64
s 1
f 22/34/58 21/33/57 25/39/65 26/40/66
s 2
f 26/41/67 27/42/68 23/36/60 22/35/59
s 3
f 24/38/62 23/37/61 27/43/69 28/44/70
s 4
f 21/33/64 24/38/63 28/44/71 25/39/72
s 1
f 26/40/66 25/39/65 29/45/73 30/46/74
s 2
f 30/47/75 31/48/76 27/42/68 26/41/67
s 3
f 28/44/70 27/43/69 31/49/77 32/50/78
s 4
f 25/39/72 28/44/71 32/50/79 29/45/80
s 1
f 30/46/74 29/45/73 3/3/81 5/14/82
s 2
f 5/5/83 6/64/84 31/48/76 30/47/75
s 3
f 32/50/78 31/49/77 6/12/85 4/4/86
s 4
f 29/45/80 32/50/79 4/4/87 3/3/88
s off
f 10/16/89 9/15/90 33/52/91 34/51/92
f 13/21/93 14/22/94 36/54/95 35/53/96
f 14/23/97 15/24/98 37/56/99 36/55/100
f 11/18/101 10/17/102 34/58/103 38/57/104
f 12/20/105 11/19/106 38/60/107 39/59/108
f 15/25/109 16/26/110 40/62/111 37/61/112
f 9/15/113 12/20/114 39/59/115 33/52/116
f 16/26/117 13/21/118 35/53/119 40/62/120
