# This file uses centimeters as units for non-parametric coordinates.

mtllib Roof_pillars.mtl
g default
v 241.018130 271.714997 -1108.529264
v 258.110318 271.714997 -1108.529264
v 241.018130 271.714997 -285.238004
v 258.110335 271.714997 -285.238004
v 241.018130 289.409304 -285.238004
v 258.110335 289.409304 -285.238004
v 241.018130 289.409304 -1108.529264
v 258.110318 289.409304 -1108.529264
v 256.839666 271.714997 -285.238004
v 256.839666 289.409304 -285.238004
v 256.839666 289.409304 -1108.529264
v 256.839666 271.714997 -1108.529264
v 242.288799 271.714997 -285.238004
v 242.288799 289.409304 -285.238004
v 242.288799 289.409304 -1108.529264
v 242.288799 271.714997 -1108.529264
v 258.110335 288.217393 -285.238004
v 256.839666 288.217358 -285.238004
v 242.288799 288.217358 -285.238004
v 241.018130 288.217393 -285.238004
v 241.018130 288.217358 -1108.529264
v 242.288799 288.217358 -1108.529264
v 256.839666 288.217358 -1108.529264
v 258.110318 288.217358 -1108.529264
v 258.110335 272.906908 -285.238004
v 256.839666 272.906908 -285.238004
v 242.288799 272.906908 -285.238004
v 241.018130 272.906908 -285.238004
v 241.018130 272.906908 -1108.529264
v 242.288799 272.906908 -1108.529264
v 256.839666 272.906908 -1108.529264
v 258.110318 272.906908 -1108.529264
v 256.839666 271.714997 -1107.004907
v 242.288799 271.714997 -1107.004907
v 241.018130 271.714997 -1107.004907
v 241.018130 272.906908 -1107.004907
v 241.018130 288.217358 -1107.004907
v 241.018130 289.409304 -1107.004907
v 242.288799 289.409304 -1107.004907
v 256.839666 289.409304 -1107.004907
v 258.110318 289.409304 -1107.004907
v 258.110318 288.217358 -1107.004907
v 258.110318 272.906908 -1107.004907
v 258.110318 271.714997 -1107.004907
v 242.288799 271.714997 -286.355486
v 241.018130 271.714997 -286.355486
v 241.018130 272.906908 -286.355486
v 241.018130 288.217393 -286.355486
v 241.018130 289.409304 -286.355486
v 242.288799 289.409304 -286.355486
v 256.839666 289.409304 -286.355486
v 258.110335 289.409304 -286.355486
v 258.110335 288.217393 -286.355486
v 258.110335 272.906908 -286.355486
v 258.110335 271.714997 -286.355486
v 256.839666 271.714997 -286.355486
vt 0.070430 0.015360
vt 0.362559 0.669861
vt 0.140385 0.020810
vt 0.070430 0.021553
vt 0.070506 0.965991
vt 0.139676 0.967047
vt 0.361198 0.842330
vt 0.068816 0.965992
vt 0.045353 0.021570
vt 0.116725 0.021573
vt 0.116725 0.015330
vt 0.045353 0.015377
vt 0.068740 0.015361
vt 0.362559 0.679185
vt 0.238796 0.669860
vt 0.187218 0.020330
vt 0.187200 0.026491
vt 0.162850 0.020949
vt 0.068741 0.021555
vt 0.160337 0.967175
vt 0.162141 0.967186
vt 0.184369 0.965923
vt 0.361193 0.955843
vt 0.095939 0.015327
vt 0.095939 0.021569
vt 0.094124 0.021569
vt 0.094124 0.015327
vt 0.248736 0.669860
vt 0.248736 0.679184
vt 0.161046 0.020937
vt 0.241755 0.955838
vt 0.205952 0.966458
vt 0.232456 0.965750
vt 0.232456 0.955838
vt 0.241759 0.842325
vt 0.232461 0.842325
vt 0.047118 0.966007
vt 0.045429 0.966008
vt 0.047042 0.015376
vt 0.047042 0.021569
vt 0.362558 0.798951
vt 0.248735 0.798949
vt 0.208802 0.020865
vt 0.208783 0.027025
vt 0.139679 0.962498
vt 0.160340 0.962626
vt 0.070505 0.961451
vt 0.068816 0.961452
vt 0.047118 0.961466
vt 0.118522 0.968972
vt 0.116706 0.968971
vt 0.095920 0.968968
vt 0.207646 0.961983
vt 0.205966 0.961942
vt 0.184382 0.961407
vt 0.162145 0.962637
vt 0.182702 0.961366
vt 0.370491 0.965756
vt 0.137875 0.962487
vt 0.137871 0.967036
vt 0.185519 0.026449
vt 0.138581 0.020799
vt 0.140390 0.014605
vt 0.161051 0.014733
vt 0.370496 0.842331
vt 0.370491 0.955843
vt 0.162855 0.014744
vt 0.138585 0.014594
vt 0.094105 0.968967
vt 0.210463 0.027067
vt 0.210482 0.020906
vt 0.238796 0.679184
vt 0.185538 0.020288
vt 0.361193 0.965756
vt 0.241754 0.965751
vt 0.238795 0.798949
vt 0.207632 0.966500
vt 0.182688 0.965882
vt 0.045428 0.961468
vt 0.118541 0.021573
vt 0.118541 0.015331
vt 0.362558 0.808275
vt 0.248734 0.808273
vt 0.116706 0.973548
vt 0.095920 0.973544
vt 0.238795 0.808273
vt 0.094105 0.973544
vt 0.118522 0.973548
vt 0.372499 0.679185
vt 0.372499 0.669861
vt 0.361198 0.832418
vt 0.241760 0.832413
vt 0.372498 0.798951
vt 0.232461 0.832412
vt 0.372498 0.808275
vt 0.370496 0.832418
vn 0.000000 -1.000000 0.000000
vn 0.000000 -1.000000 0.000000
vn 0.000000 -1.000000 0.000000
vn 0.000000 -1.000000 0.000000
vn 0.000000 0.000000 1.000000
vn 0.000000 0.000000 1.000000
vn 0.000000 0.000000 1.000000
vn 0.000000 0.000000 1.000000
vn 0.000000 1.000000 0.000000
vn 0.000000 1.000000 0.000000
vn 0.000000 1.000000 0.000000
vn 0.000000 1.000000 0.000000
vn 0.000000 -0.000000 -1.000000
vn 0.000000 -0.000000 -1.000000
vn 0.000000 -0.000000 -1.000000
vn 0.000000 -0.000000 -1.000000
vn 1.000000 0.000000 0.000000
vn 1.000000 0.000000 0.000000
vn 1.000000 -0.000000 -0.000000
vn 1.000000 -0.000000 -0.000000
vn -1.000000 0.000000 0.000000
vn -1.000000 0.000000 0.000000
vn -1.000000 0.000000 0.000000
vn -1.000000 0.000000 -0.000000
vn 0.000000 0.000000 1.000000
vn 0.000000 0.000000 1.000000
vn 0.000000 0.000000 1.000000
vn 0.000000 0.000000 1.000000
vn 0.000000 1.000000 0.000000
vn 0.000000 1.000000 0.000000
vn 0.000000 1.000000 0.000000
vn 0.000000 1.000000 0.000000
vn 0.000000 -0.000000 -1.000000
vn 0.000000 -0.000000 -1.000000
vn 0.000000 -0.000000 -1.000000
vn 0.000000 -0.000000 -1.000000
vn 0.000000 -1.000000 0.000000
vn 0.000000 -1.000000 0.000000
vn 0.000000 -1.000000 0.000000
vn 0.000000 -1.000000 0.000000
vn 0.000000 0.000000 1.000000
vn 0.000000 0.000000 1.000000
vn 0.000000 0.000000 1.000000
vn 0.000000 0.000000 1.000000
vn 0.000000 0.000000 1.000000
vn 0.000000 0.000000 1.000000
vn 0.000000 0.000000 1.000000
vn 0.000000 0.000000 1.000000
vn -1.000000 0.000000 0.000000
vn -1.000000 0.000000 0.000000
vn -1.000000 0.000000 -0.000000
vn -1.000000 0.000000 -0.000000
vn 0.000000 -0.000000 -1.000000
vn 0.000000 -0.000000 -1.000000
vn 0.000000 -0.000000 -1.000000
vn 0.000000 -0.000000 -1.000000
vn 0.000000 -0.000000 -1.000000
vn 0.000000 -0.000000 -1.000000
vn 0.000000 -0.000000 -1.000000
vn 0.000000 -0.000000 -1.000000
vn 1.000000 -0.000000 -0.000000
vn 1.000000 0.000000 0.000000
vn 1.000000 0.000000 0.000000
vn 1.000000 -0.000000 -0.000000
vn 0.000000 -1.000000 0.000000
vn 0.000000 -1.000000 0.000000
vn 0.000000 -1.000000 0.000000
vn -1.000000 0.000000 0.000000
vn -1.000000 0.000000 -0.000000
vn -1.000000 0.000000 -0.000000
vn -1.000000 0.000000 -0.000000
vn 0.000000 1.000000 0.000000
vn 0.000000 1.000000 0.000000
vn 0.000000 1.000000 0.000000
vn 0.000000 1.000000 0.000000
vn 1.000000 -0.000000 -0.000000
vn 1.000000 -0.000000 -0.000000
vn 1.000000 -0.000000 -0.000000
vn 1.000000 -0.000000 -0.000000
vn 0.000000 -1.000000 0.000000
vn 0.000000 -1.000000 0.000000
vn 0.000000 -1.000000 0.000000
vn -1.000000 0.000000 0.000000
vn -1.000000 0.000000 0.000000
vn -1.000000 0.000000 0.000000
vn -1.000000 0.000000 0.000000
vn 0.000000 1.000000 0.000000
vn 0.000000 1.000000 0.000000
vn 0.000000 1.000000 0.000000
vn 0.000000 1.000000 0.000000
vn 1.000000 0.000000 0.000000
vn 1.000000 0.000000 0.000000
vn 1.000000 0.000000 0.000000
vn 1.000000 0.000000 0.000000
vn 0.000000 -1.000000 0.000000
vn 0.000000 -1.000000 0.000000
s 1
g Roof_pillars All_Home
usemtl Roof_pillars2
f 1/68/1 16/63/2 34/3/3 35/62/4
s 2
f 3/96/5 13/65/6 27/7/7 28/91/8
s 3
f 38/80/9 39/10/10 15/11/11 7/81/12
s 4
f 29/89/13 30/14/14 16/2/15 1/90/16
s 5
f 2/73/17 32/16/18 43/17/19 44/61/20
s 6
f 29/13/21 1/1/22 35/4/23 36/19/24
s 2
f 9/66/25 4/58/26 25/74/27 26/23/28
s 3
f 11/24/29 40/25/30 41/26/31 8/27/32
s 4
f 12/28/33 31/29/34 32/72/35 2/15/36
s 1
f 44/18/37 33/30/38 12/64/39 2/67/40
s 2
f 13/65/6 9/66/25 26/23/28 27/7/7
s 3
f 15/11/11 39/10/10 40/25/30 11/24/29
s 4
f 16/2/15 30/14/14 31/29/34 12/28/33
s 1
f 34/3/3 16/63/2 12/64/39 33/30/38
s 2
f 18/31/41 17/75/42 6/33/43 10/34/44
f 19/35/45 18/31/41 10/34/44 14/36/46
f 20/92/47 19/35/45 14/36/46 5/94/48
s 6
f 7/12/49 21/39/50 37/40/51 38/9/52
s 4
f 7/95/53 15/82/54 22/41/55 21/93/56
f 23/42/57 22/41/55 15/82/54 11/83/58
f 24/76/59 23/42/57 11/83/58 8/86/60
s 5
f 42/44/61 24/43/62 8/71/63 41/70/64
s 2
f 26/23/28 25/74/27 17/75/42 18/31/41
f 27/7/7 26/23/28 18/31/41 19/35/45
f 28/91/8 27/7/7 19/35/45 20/92/47
s 6
f 21/39/50 29/13/21 36/19/24 37/40/51
s 4
f 21/93/56 22/41/55 30/14/14 29/89/13
f 31/29/34 30/14/14 22/41/55 23/42/57
f 32/72/35 31/29/34 23/42/57 24/76/59
s 5
f 43/17/19 32/16/18 24/43/62 42/44/61
s 1
f 45/45/65 34/3/3 33/30/38 56/46/66
f 46/59/67 35/62/4 34/3/3 45/45/65
s 6
f 36/19/24 35/4/23 46/47/68 47/48/69
f 37/40/51 36/19/24 47/48/69 48/49/70
f 38/9/52 37/40/51 48/49/70 49/79/71
s 3
f 39/10/10 38/80/9 49/50/72 50/51/73
f 40/25/30 39/10/10 50/51/73 51/52/74
f 41/26/31 40/25/30 51/52/74 52/69/75
s 5
f 53/54/76 42/44/61 41/70/64 52/53/77
f 54/55/78 43/17/19 42/44/61 53/54/76
f 55/57/79 44/61/20 43/17/19 54/55/78
s 1
f 56/46/66 33/30/38 44/18/37 55/56/80
f 46/59/67 45/45/65 13/6/81 3/60/82
s 6
f 47/48/69 46/47/68 3/5/83 28/8/84
f 48/49/70 47/48/69 28/8/84 20/37/85
f 49/79/71 48/49/70 20/37/85 5/38/86
s 3
f 5/88/87 14/84/88 50/51/73 49/50/72
f 51/52/74 50/51/73 14/84/88 10/85/89
f 52/69/75 51/52/74 10/85/89 6/87/90
s 5
f 17/32/91 53/54/76 52/53/77 6/77/92
f 25/22/93 54/55/78 53/54/76 17/32/91
f 55/57/79 54/55/78 25/22/93 4/78/94
s 1
f 9/20/95 56/46/66 55/56/80 4/21/96
f 13/6/81 45/45/65 56/46/66 9/20/95
