# This file uses centimeters as units for non-parametric coordinates.

mtllib Roof_top.mtl
g default
v 219.311282 227.838720 -359.829937
v 726.899152 227.838720 -359.829937
v 219.311254 246.701849 -359.829937
v 726.899263 246.701849 -359.829937
v 219.311254 246.701849 -1025.333866
v 726.899263 246.701849 -1025.333866
v 219.311282 227.838955 -1025.333866
v 726.899152 227.838955 -1025.333866
v 472.401164 432.223818 -359.829937
v 472.401164 432.223818 -1025.333866
v 219.311199 246.701849 -1025.333866
v 726.899263 246.701849 -1025.333866
v 726.899152 227.838720 -1025.333866
v 219.311366 227.838720 -1025.333866
v 472.401164 432.223818 -1025.333866
v 709.812719 227.838722 -359.830071
v 709.774599 246.701849 -359.829937
v 472.313052 421.826302 -359.829937
v 238.347697 227.838722 -359.830071
v 237.780826 246.701849 -359.829937
v 219.311366 227.838720 -339.728770
v 238.347781 227.838720 -339.728770
v 237.780826 246.701849 -339.728770
v 219.311254 246.701849 -339.728770
v 472.313052 421.826302 -339.728770
v 472.401164 432.223818 -339.728770
v 709.812719 227.838720 -339.728770
v 709.774599 246.701849 -339.728770
v 726.899152 227.838720 -339.728770
v 726.899263 246.701849 -339.728770
v 239.180127 227.838716 -1025.333866
v 239.626925 246.701790 -1025.333866
v 472.845398 416.447651 -1025.333866
v 707.020804 246.701790 -1025.333866
v 706.504120 227.838716 -1025.333866
v 219.311199 246.701849 -1055.465337
v 239.626925 246.701849 -1055.465337
v 239.180127 227.838720 -1055.465337
v 219.311366 227.838720 -1055.465337
v 472.845398 416.447651 -1055.465337
v 472.401164 432.223818 -1055.465337
v 707.020804 246.701849 -1055.465337
v 726.899263 246.701849 -1055.465337
v 706.504120 227.838720 -1055.465337
v 726.899152 227.838720 -1055.465337
vt 0.953111 0.569374
vt 0.958242 0.568745
vt 0.963463 0.583448
vt 0.957089 0.577325
vt 0.544140 0.780516
vt 0.961401 0.775282
vt 0.950517 0.971190
vt 0.548927 0.966273
vt 0.579923 0.567070
vt 0.506036 0.593351
vt 0.513770 0.972299
vt 0.543821 0.989266
vt 0.947868 0.558371
vt 0.946868 0.569726
vt 0.538407 0.583503
vt 0.538406 0.583503
vt 0.950747 0.982299
vt 0.546892 0.977322
vt 0.946456 0.580857
vt 0.541309 0.594512
vt 0.978706 0.774717
vt 0.973946 0.774810
vt 0.499051 0.782650
vt 0.546892 0.977321
vt 0.548921 0.966276
vt 0.541304 0.594515
vt 0.544136 0.780510
vt 0.967462 0.968844
vt 0.959410 0.980922
vt 0.955879 0.976916
vt 0.961832 0.973996
vt 0.973810 0.577909
vt 0.759011 0.056357
vt 0.977958 0.973505
vt 0.991174 0.774304
vt 0.526474 0.594092
vt 0.520873 0.600078
vt 0.526789 0.587514
vt 0.529823 0.589682
vt 0.525336 0.781657
vt 0.517848 0.781993
vt 0.533764 0.969607
vt 0.527730 0.963566
vt 0.531043 0.976820
vt 0.536292 0.976672
vt 0.400139 0.314172
vt 0.758470 0.009763
vt 0.014428 0.077678
vt 0.940387 0.311495
vt 0.008035 0.039893
vt 0.380949 0.318237
vt 0.008931 0.009904
vt 0.758415 0.039751
vt 0.951895 0.992253
vt 0.045889 0.854437
vt 0.014571 0.853585
vt 0.327650 0.465579
vt 0.045747 0.078414
vt 0.533883 0.572371
vn 0.000000 0.000000 1.000000
vn 0.000000 0.000000 1.000000
vn 0.000000 0.000000 1.000000
vn 0.000000 0.000000 1.000000
vn 0.589069 0.808082 0.000000
vn 0.589069 0.808082 0.000000
vn 0.589069 0.808082 0.000000
vn 0.589069 0.808082 0.000000
vn 0.000000 0.000000 -1.000000
vn 0.000000 0.000000 -1.000000
vn 0.000000 0.000000 -1.000000
vn 0.000000 0.000000 -1.000000
vn -0.000000 -1.000000 0.000000
vn -0.000000 -1.000000 0.000000
vn -0.000006 -1.000000 0.000000
vn -0.000006 -1.000000 0.000000
vn -0.000006 -1.000000 0.000000
vn 1.000000 -0.000006 -0.000000
vn 1.000000 -0.000006 -0.000000
vn 1.000000 -0.000006 -0.000000
vn 1.000000 -0.000006 -0.000000
vn -1.000000 -0.000002 -0.000000
vn -1.000000 -0.000002 -0.000000
vn -1.000000 -0.000002 -0.000000
vn -1.000000 -0.000002 -0.000000
vn 0.000000 0.000000 1.000000
vn 0.000000 0.000000 1.000000
vn 0.000000 0.000000 1.000000
vn 0.000000 0.000000 1.000000
vn 0.000000 0.000000 -1.000000
vn 0.000000 0.000000 -1.000000
vn 0.000000 0.000000 -1.000000
vn -0.591204 0.806522 0.000000
vn -0.591204 0.806522 0.000000
vn -0.591204 0.806522 0.000000
vn -0.591204 0.806522 0.000000
vn 0.000000 0.000000 0.000000
vn 0.000000 0.000000 0.000000
vn 0.000000 0.000000 0.000000
vn 0.000000 0.000000 0.000000
vn 0.863581 0.000000 -0.504210
vn 0.863581 0.000000 -0.504210
vn 0.863581 0.000000 -0.504210
vn 0.863581 0.000000 -0.504210
vn 0.000000 0.000000 1.000000
vn 0.000000 0.000000 0.000000
vn 0.000000 0.000000 0.000000
vn 0.000000 0.000000 1.000000
vn 0.000000 0.000000 0.000000
vn 0.000000 0.000000 0.000000
vn 0.000000 0.000000 0.000000
vn 0.000000 0.000000 0.000000
vn 0.000000 0.000000 1.000000
vn 0.000000 0.000000 1.000000
vn 0.000000 0.000000 1.000000
vn 0.000000 0.000000 1.000000
vn 0.000000 0.000000 1.000000
vn 0.000000 0.000000 1.000000
vn 0.000000 -0.000007 1.000000
vn 0.000000 -0.000007 1.000000
vn 0.000000 -0.000007 1.000000
vn 0.000000 -0.000007 1.000000
vn 0.000000 0.000000 1.000000
vn 0.000000 0.000000 1.000000
vn 0.000000 0.000000 1.000000
vn 0.000000 -1.000000 0.000000
vn 0.000000 -1.000000 0.000000
vn 0.000000 -1.000000 0.000000
vn 0.000000 -1.000000 0.000000
vn 0.999549 0.030041 -0.000002
vn 0.999549 0.030041 -0.000002
vn 0.999549 0.030041 -0.000002
vn 0.999549 0.030041 -0.000002
vn -1.000000 -0.000004 0.000002
vn -1.000000 -0.000004 0.000002
vn -1.000000 -0.000004 0.000002
vn -1.000000 -0.000004 0.000002
vn 0.598305 -0.801269 0.000000
vn 0.598305 -0.801269 0.000000
vn 0.598305 -0.801269 0.000000
vn 0.598305 -0.801269 0.000000
vn -0.591203 0.806522 0.000000
vn -0.591203 0.806522 0.000000
vn -0.591203 0.806522 0.000000
vn -0.591203 0.806522 0.000000
vn -0.999998 -0.002021 -0.000000
vn -0.999998 -0.002021 -0.000000
vn -0.999998 -0.002021 -0.000000
vn -0.999998 -0.002021 -0.000000
vn -0.000000 -1.000000 -0.000000
vn -0.000000 -1.000000 -0.000000
vn -0.000000 -1.000000 -0.000000
vn -0.000000 -1.000000 -0.000000
vn 1.000000 -0.000006 0.000000
vn 1.000000 -0.000006 0.000000
vn 1.000000 -0.000006 0.000000
vn 1.000000 -0.000006 0.000000
vn -0.593535 -0.804808 0.000000
vn -0.593535 -0.804808 0.000000
vn -0.593535 -0.804808 0.000000
vn -0.593535 -0.804808 0.000000
vn 0.589069 0.808082 0.000000
vn 0.589069 0.808082 0.000000
vn 0.589069 0.808082 0.000000
vn 0.589069 0.808082 0.000000
vn 0.000000 0.000000 -1.000000
vn 0.000000 0.000000 -1.000000
vn 0.000000 0.000000 -1.000000
vn 0.000000 0.000000 -1.000000
vn -0.000000 0.000000 -1.000000
vn 0.000000 0.000000 -1.000000
vn -0.000002 0.000000 -1.000000
vn -0.000002 0.000000 -1.000000
vn 0.000002 0.000000 -1.000000
vn 0.000002 0.000000 -1.000000
vn 0.000000 0.000000 -1.000000
vn 0.000000 0.000000 -1.000000
vn 0.000000 0.000000 -1.000000
vn 0.000000 0.000000 -1.000000
vn 0.999720 -0.023681 -0.000000
vn 0.999720 -0.023681 -0.000000
vn 0.999720 -0.023681 -0.000000
vn 0.999720 -0.023681 -0.000000
vn -0.000000 -1.000000 -0.000000
vn -0.000000 -1.000000 -0.000000
vn -0.000000 -1.000000 -0.000000
vn -0.000000 -1.000000 -0.000000
vn -1.000000 -0.000008 0.000000
vn -1.000000 -0.000008 0.000000
vn -1.000000 -0.000008 0.000000
vn -1.000000 -0.000008 0.000000
vn 0.588471 -0.808518 -0.000001
vn 0.588471 -0.808518 -0.000001
vn 0.588471 -0.808518 -0.000001
vn 0.588471 -0.808518 -0.000001
vn -0.591204 0.806522 0.000000
vn -0.591204 0.806522 0.000000
vn -0.591204 0.806522 0.000000
vn -0.591204 0.806522 0.000000
vn -0.586896 -0.809662 -0.000001
vn -0.586896 -0.809662 -0.000001
vn -0.586896 -0.809662 -0.000001
vn -0.586896 -0.809662 -0.000001
vn 0.589069 0.808082 0.000000
vn 0.589069 0.808082 0.000000
vn 0.589069 0.808082 0.000000
vn 0.589069 0.808082 0.000000
vn -0.999625 0.027380 0.000000
vn -0.999625 0.027380 0.000000
vn -0.999625 0.027380 0.000000
vn -0.999625 0.027380 0.000000
vn 1.000000 -0.000006 0.000000
vn 1.000000 -0.000006 0.000000
vn 1.000000 -0.000006 0.000000
vn 1.000000 -0.000006 0.000000
vn 0.000000 -1.000000 -0.000000
vn 0.000000 -1.000000 -0.000000
vn 0.000000 -1.000000 -0.000000
vn 0.000000 -1.000000 -0.000000
vn 0.000000 -1.000000 0.000000
vn 0.000000 -1.000000 0.000000
vn 0.000006 -1.000000 0.000000
vn 0.000006 -1.000000 0.000000
vn 0.000006 -1.000000 0.000000
s off
g Roof_top All_Home
usemtl set6
f 21/1/1 22/2/2 23/3/3 24/4/4
f 10/5/5 9/6/6 4/7/7 6/8/8
f 31/48/9 32/58/10 34/55/11 35/56/12
s 1
f 31/59/13 19/13/14 1/14/15 7/15/16 14/16/17
s off
f 6/8/18 4/7/19 2/17/20 8/18/21
f 1/14/22 3/19/23 5/20/24 7/15/25
s 2
f 24/4/26 23/3/27 25/21/28 26/22/29
s off
f 33/57/30 34/55/31 32/58/32
f 3/19/33 9/6/34 10/5/35 5/20/36
f 6/8/37 8/18/38 13/24/39 12/25/40
f 7/15/41 5/20/42 11/26/43 14/16/44
f 5/20/45 10/5/46 15/27/47 11/26/48
f 10/5/49 6/8/50 12/25/51 15/27/52
f 28/28/53 27/29/54 29/30/55 30/31/56
s 2
f 26/22/29 25/21/28 28/28/57 30/31/58
s off
f 20/50/59 19/52/60 16/47/61 17/53/62
f 18/51/63 20/50/64 17/53/65
f 1/14/66 19/13/67 22/2/68 21/1/69
f 19/13/70 20/32/71 23/3/72 22/2/73
f 3/19/74 1/14/75 21/1/76 24/4/77
f 20/32/78 18/35/79 25/21/80 23/3/81
f 9/6/82 3/19/83 24/4/84 26/22/85
f 17/34/86 16/54/87 27/29/88 28/28/89
f 16/54/90 2/17/91 29/30/92 27/29/93
f 2/17/94 4/7/95 30/31/96 29/30/97
f 18/35/98 17/34/99 28/28/100 25/21/101
f 4/7/102 9/6/103 26/22/104 30/31/105
f 36/36/106 37/37/107 38/38/108 39/39/109
s 3
f 41/40/110 40/41/111 37/37/112 36/36/113
f 43/42/114 42/43/115 40/41/111 41/40/110
s off
f 44/44/116 42/43/117 43/42/118 45/45/119
f 32/10/120 31/59/121 38/38/122 37/37/123
f 31/59/124 14/16/125 39/39/126 38/38/127
f 14/16/128 11/26/129 36/36/130 39/39/131
f 33/23/132 32/10/133 37/37/134 40/41/135
f 11/26/136 15/27/137 41/40/138 36/36/139
f 34/11/140 33/23/141 40/41/142 42/43/143
f 15/27/144 12/25/145 43/42/146 41/40/147
f 35/12/148 34/11/149 42/43/150 44/44/151
f 12/25/152 13/24/153 45/45/154 43/42/155
f 13/24/156 35/12/157 44/44/158 45/45/159
s 1
f 35/46/160 16/33/161 19/49/14 31/9/13
f 8/18/162 2/17/163 16/54/161 35/12/160 13/24/164
