# This file uses centimeters as units for non-parametric coordinates.

mtllib Porp_Coffin_2.mtl
g default
v -10.690074 1.008596 171.815677
v 25.319598 1.008596 171.815677
v -10.690074 1.008596 157.778343
v 25.319598 1.008596 157.778343
v -0.687859 56.543187 171.815677
v -5.944407 53.030883 171.815677
v -9.456699 47.774334 171.815677
v -10.690074 41.573818 171.815677
v 5.512667 57.776547 171.815677
v -10.690074 41.573818 157.778343
v -9.456699 47.774334 157.778343
v -5.944407 53.030883 157.778343
v -0.687859 56.543187 157.778343
v 5.512667 57.776547 157.778343
v 24.086224 47.774334 171.815677
v 20.573932 53.030883 171.815677
v 15.317375 56.543187 171.815677
v 9.116857 57.776547 171.815677
v 25.319598 41.573818 171.815677
v 25.319598 41.573818 157.778343
v 9.116857 57.776547 157.778343
v 15.317375 56.543187 157.778343
v 20.573932 53.030883 157.778343
v 24.086224 47.774334 157.778343
vt 0.650231 0.135840
vt 0.998983 0.000000
vt 0.650214 0.000028
vt 0.000000 0.010537
vt 0.014230 0.407668
vt 0.506298 0.000000
vt 0.646948 0.013674
vt 0.148165 0.384866
vt 0.836385 0.673187
vt 0.324540 0.536383
vt 0.617522 0.423111
vt 0.292724 0.535420
vt 0.137985 0.000458
vt 0.487468 0.397124
vt 0.649571 0.528053
vt 0.999079 0.135855
vt 1.000000 0.528708
vt 0.323138 0.648203
vt 0.237577 0.524626
vt 0.183897 0.496034
vt 0.158087 0.443412
vt 0.030293 0.472998
vt 0.988565 0.588915
vt 0.170536 0.675403
vt 0.049833 0.532646
vt 0.233387 0.653952
vt 0.473700 0.455784
vt 0.444911 0.507548
vt 0.382250 0.529311
vt 0.378423 0.659211
vt 0.580508 0.549377
vt 0.432298 0.688063
vt 0.601351 0.488050
vt 0.661034 0.587846
vt 0.694586 0.638527
vt 0.749306 0.664884
vt 0.804668 0.673463
vt 0.291242 0.647113
vt 0.893539 0.663937
vt 0.955033 0.639965
vn -0.124809 0.992181 0.000000
vn -0.124809 0.992181 0.000000
vn 0.124809 0.992181 0.000000
vn 0.124809 0.992181 0.000000
vn 0.000000 -1.000000 0.000000
vn 0.000000 -1.000000 0.000000
vn 0.000000 -1.000000 0.000000
vn 0.000000 -1.000000 0.000000
vn 1.000000 0.000000 0.000000
vn 1.000000 0.000000 0.000000
vn 0.999652 0.026364 0.000000
vn 0.999652 0.026364 0.000000
vn -1.000000 0.000000 0.000000
vn -1.000000 0.000000 0.000000
vn -0.999652 0.026364 0.000000
vn -0.999652 0.026364 0.000000
vn -0.923880 0.382683 0.000000
vn -0.923880 0.382683 0.000000
vn -0.707107 0.707106 0.000000
vn -0.707107 0.707106 0.000000
vn -0.382683 0.923880 0.000000
vn -0.382683 0.923880 0.000000
vn 0.382683 0.923880 0.000000
vn 0.382683 0.923880 0.000000
vn 0.707107 0.707107 0.000000
vn 0.707107 0.707107 0.000000
vn 0.923880 0.382683 0.000000
vn 0.923880 0.382683 0.000000
vn 0.000000 0.000000 1.000000
vn 0.000000 0.000000 1.000000
vn 0.000000 0.000000 1.000000
vn 0.000000 0.000000 1.000000
vn 0.000000 0.000000 1.000000
vn 0.000000 0.000000 1.000000
vn 0.000000 0.000000 1.000000
vn 0.000000 0.000000 1.000000
vn 0.000000 0.000000 1.000000
vn 0.000000 0.000000 1.000000
vn 0.000000 0.000000 1.000000
vn 0.000000 0.000000 1.000000
vn 0.000000 0.000000 -1.000000
vn 0.000000 0.000000 -1.000000
vn 0.000000 0.000000 -1.000000
vn 0.000000 0.000000 -1.000000
vn 0.000000 0.000000 -1.000000
vn 0.000000 0.000000 -1.000000
vn 0.000000 0.000000 -1.000000
vn 0.000000 0.000000 -1.000000
vn 0.000000 0.000000 -1.000000
vn 0.000000 0.000000 -1.000000
vn 0.000000 0.000000 -1.000000
vn 0.000000 0.000000 -1.000000
s 1
g Porp_Coffin_2
usemtl lambert1SG
f 14/38/1 9/12/2 18/10/3 21/18/4
s off
f 3/16/5 4/1/6 2/3/7 1/2/8
s 1
f 2/6/9 4/7/10 20/11/11 19/14/12
f 3/4/13 1/13/14 8/8/15 10/5/16
f 8/8/15 7/21/17 11/22/18 10/5/16
f 7/21/17 6/20/19 12/25/20 11/22/18
f 6/20/19 5/19/21 13/26/22 12/24/20
f 5/19/21 9/12/2 14/38/1 13/26/22
f 18/10/3 17/29/23 22/30/24 21/18/4
f 17/29/23 16/28/25 23/32/26 22/30/24
f 16/28/25 15/27/27 24/33/28 23/31/26
f 15/27/27 19/14/12 20/11/11 24/33/28
s off
f 15/27/29 16/28/30 17/29/31 18/10/32 9/12/33 5/19/34 6/20/35 7/21/36 8/8/37 1/13/38 2/6/39 19/14/40
f 20/15/41 4/1/42 3/16/43 10/17/44 11/23/45 12/40/46 13/39/47 14/9/48 21/37/49 22/36/50 23/35/51 24/34/52
