# This file uses centimeters as units for non-parametric coordinates.

mtllib Door_Big.mtl
g default
v 266.539243 3.518840 -371.294545
v 349.035154 3.518840 -371.294545
v 266.539243 176.579768 -371.294545
v 349.035154 176.579768 -371.294545
v 266.539253 176.579768 -380.017606
v 349.035164 176.579768 -380.017606
v 266.539253 3.518840 -380.017606
v 349.035164 3.518840 -380.017606
v 349.035154 96.912713 -371.294545
v 266.539243 96.912713 -371.294545
v 266.539253 96.912713 -380.017606
v 349.035164 96.912713 -380.017606
v 349.035154 81.122262 -371.294545
v 266.539243 81.122262 -371.294545
v 266.539253 81.122262 -380.017606
v 349.035164 81.122262 -380.017606
v 346.328547 176.579768 -371.294578
v 346.328557 176.579768 -380.017640
v 346.328557 96.912713 -380.017640
v 346.328557 81.122262 -380.017640
v 346.328557 3.518840 -380.017640
v 346.328547 3.518840 -371.294578
v 346.328547 81.122262 -371.294578
v 346.328547 96.912713 -371.294578
v 269.246008 176.579768 -371.294578
v 269.246019 176.579768 -380.017640
v 269.246019 96.912713 -380.017640
v 269.246019 81.122262 -380.017640
v 269.246019 3.518840 -380.017640
v 269.246008 3.518840 -371.294578
v 269.246008 81.122262 -371.294578
v 269.246008 96.912713 -371.294578
v 349.035164 176.579768 -378.834390
v 346.328547 176.579768 -378.834390
v 269.246019 176.579768 -378.834357
v 266.539243 176.579768 -378.834390
v 266.539243 96.912713 -378.834390
v 266.539243 81.122262 -378.834390
v 266.539243 3.518840 -378.834390
v 269.246019 3.518840 -378.834357
v 346.328547 3.518840 -378.834390
v 349.035164 3.518840 -378.834390
v 349.035164 81.122262 -378.834390
v 349.035164 96.912713 -378.834390
v 349.035154 176.579768 -372.477828
v 346.328557 176.579768 -372.477828
v 269.246029 176.579768 -372.477828
v 266.539243 176.579768 -372.477828
v 266.539243 96.912713 -372.477828
v 266.539243 81.122262 -372.477828
v 266.539243 3.518840 -372.477828
v 269.246029 3.518840 -372.477828
v 346.328557 3.518840 -372.477828
v 349.035154 3.518840 -372.477828
v 349.035154 81.122262 -372.477828
v 349.035154 96.912713 -372.477828
v 346.328547 13.512401 -371.294578
v 269.246008 13.512401 -371.294578
v 266.539243 13.512401 -371.294545
v 266.539243 13.512401 -372.477828
v 266.539243 13.512401 -378.834390
v 266.539253 13.512401 -380.017606
v 269.246019 13.512401 -380.017640
v 346.328557 13.512401 -380.017640
v 349.035164 13.512401 -380.017606
v 349.035164 13.512401 -378.834390
v 349.035154 13.512401 -372.477828
v 349.035154 13.512401 -371.294545
v 346.328547 165.198829 -371.294578
v 269.246008 165.198829 -371.294578
v 266.539243 165.198829 -371.294545
v 266.539243 165.198829 -372.477828
v 266.539243 165.198829 -378.834390
v 266.539253 165.198829 -380.017606
v 269.246019 165.198829 -380.017640
v 346.328557 165.198829 -380.017640
v 349.035164 165.198829 -380.017606
v 349.035164 165.198829 -378.834390
v 349.035154 165.198829 -372.477828
v 349.035154 165.198829 -371.294545
v 266.539243 3.518840 -369.462668
v 269.246019 3.518840 -369.462668
v 269.246019 13.512401 -369.462668
v 266.539243 13.512401 -369.462668
v 349.035154 13.512401 -369.462668
v 346.328547 13.512401 -369.462668
v 346.328547 3.518840 -369.462668
v 349.035154 3.518840 -369.462668
v 266.539232 13.512401 -381.769686
v 269.246019 13.512401 -381.769719
v 269.246019 3.518840 -381.769719
v 266.539232 3.518840 -381.769686
v 346.328557 13.512401 -381.769719
v 346.328557 3.518840 -381.769719
v 349.035164 13.512401 -381.769719
v 349.035164 3.518840 -381.769719
v 269.246029 81.122262 -369.211862
v 266.539243 81.122262 -369.211829
v 269.246029 96.912713 -369.211862
v 266.539243 96.912713 -369.211829
v 346.328557 81.122262 -369.211829
v 346.328557 96.912713 -369.211829
v 349.035154 81.122262 -369.211862
v 349.035154 96.912713 -369.211862
v 266.539243 96.912713 -382.094066
v 269.246019 96.912713 -382.094066
v 269.246019 81.122262 -382.094066
v 266.539243 81.122262 -382.094066
v 346.328536 96.912713 -382.094033
v 346.328536 81.122262 -382.094033
v 349.035164 96.912713 -382.094066
v 349.035164 81.122262 -382.094066
v 346.328547 175.407640 -371.294578
v 269.246008 175.407640 -371.294578
v 266.539243 175.407640 -371.294545
v 266.539243 175.407640 -372.477828
v 266.539243 175.407640 -378.834390
v 266.539253 175.407640 -380.017606
v 269.246019 175.407640 -380.017640
v 346.328557 175.407640 -380.017640
v 349.035164 175.407640 -380.017606
v 349.035164 175.407640 -378.834390
v 349.035154 175.407640 -372.477828
v 349.035154 175.407640 -371.294545
v 269.246008 165.198829 -369.511086
v 269.246008 175.407640 -369.511086
v 346.328547 165.198829 -369.511052
v 346.328547 175.407640 -369.511052
v 266.539253 165.198829 -369.511086
v 266.539253 175.407640 -369.511086
v 349.035154 175.407640 -369.511052
v 349.035154 165.198829 -369.511052
v 266.539243 175.407640 -381.750951
v 269.246029 175.407640 -381.750984
v 269.246029 165.198829 -381.750984
v 266.539243 165.198829 -381.750951
v 346.328547 165.198829 -381.750984
v 346.328547 175.407640 -381.750984
v 349.035154 165.198829 -381.750984
v 349.035154 175.407640 -381.750984
vt 0.566752 0.719117
vt 0.579728 0.715942
vt 0.579141 0.767758
vt 0.567195 0.764582
vt 0.665631 0.693470
vt 0.674877 0.694415
vt 0.069136 0.686074
vt 0.069152 0.675602
vt 0.095846 0.986234
vt 0.092418 0.972288
vt 0.147787 0.972804
vt 0.144485 0.985638
vt 0.660016 0.004953
vt 0.008901 0.025145
vt 0.577945 0.706630
vt 0.558762 0.715208
vt 0.996150 0.717532
vt 0.008181 0.328064
vt 0.990907 0.044598
vt 0.997447 0.771564
vt 0.560062 0.769236
vt 0.070104 0.044757
vt 0.453436 0.915162
vt 0.509898 0.886211
vt 0.530606 0.895708
vt 0.477057 0.904625
vt 0.653130 0.378679
vt 0.657568 0.650237
vt 0.205146 0.025552
vt 0.194299 0.001640
vt 0.289242 0.545806
vt 0.298371 0.524177
vt 0.994414 0.915408
vt 0.996964 0.887046
vt 0.007339 0.682632
vt 0.993899 0.647519
vt 0.518645 0.797069
vt 0.533067 0.793519
vt 0.532780 0.883964
vt 0.519157 0.880462
vt 0.069710 0.306314
vt 0.508380 0.792176
vt 0.188976 0.012569
vt 0.192651 0.028069
vt 0.095688 0.026950
vt 0.099563 0.012372
vt 0.997234 0.793070
vt 0.990639 0.314323
vt 0.977482 0.692729
vt 0.986929 0.691898
vt 0.989358 0.694800
vt 0.068686 0.984276
vt 0.188956 0.525684
vt 0.199856 0.502876
vt 0.296833 0.026164
vt 0.286173 0.002556
vt 0.090402 0.498962
vt 0.187358 0.500264
vt 0.183085 0.515698
vt 0.093597 0.513592
vt 0.150927 0.548079
vt 0.095543 0.547592
vt 0.099249 0.533648
vt 0.147992 0.535251
vt 0.978724 0.709663
vt 0.008206 0.317788
vt 0.989458 0.767652
vt 0.976483 0.770825
vt 0.977071 0.719009
vt 0.989017 0.722186
vt 0.973060 0.885216
vt 0.973518 0.794775
vt 0.987943 0.798643
vt 0.986675 0.882122
vt 0.975364 0.896926
vt 0.972828 0.905957
vt 0.044095 0.984239
vt 0.030752 0.985144
vt 0.317462 0.697062
vt 0.326707 0.698151
vt 0.044546 0.686037
vt 0.630270 0.697781
vt 0.044561 0.675565
vt 0.640016 0.697156
vt 0.045026 0.367364
vt 0.044628 0.631537
vt 0.093505 0.002418
vt 0.045119 0.306277
vt 0.149260 0.992961
vt 0.045572 0.006059
vt 0.642891 0.043065
vt 0.091891 0.994443
vt 0.157344 0.974448
vt 0.622732 0.001878
vt 0.323308 0.003749
vt 0.160482 0.546416
vt 0.309873 0.006976
vt 0.152059 0.527009
vt 0.032224 0.366061
vt 0.094693 0.526305
vt 0.305384 0.381227
vt 0.031614 0.622741
vt 0.088242 0.524548
vt 0.030855 0.941937
vt 0.530610 0.781850
vt 0.577488 0.777104
vt 0.978263 0.780138
vt 0.975869 0.783063
vt 0.083154 0.024526
vt 0.082891 0.974064
vt 0.077864 0.501316
vt 0.086008 0.545826
vt 0.478806 0.981325
vt 0.479220 0.915839
vt 0.970927 0.917230
vt 0.970526 0.982714
vt 0.463112 0.919825
vt 0.463933 0.977481
vt 0.455301 0.983100
vt 0.069159 0.671068
vt 0.645193 0.694566
vt 0.221269 0.548172
vt 0.225715 0.538659
vt 0.221559 0.522439
vt 0.287353 0.522386
vt 0.283677 0.537397
vt 0.285885 0.028289
vt 0.220092 0.028348
vt 0.281727 0.012071
vt 0.223765 0.013337
vt 0.030763 0.980694
vt 0.218197 0.004930
vt 0.992235 0.689546
vt 0.996325 0.983349
vt 0.986633 0.978721
vt 0.985799 0.921053
vt 0.476893 0.992595
vt 0.972704 0.993927
vt 0.210611 0.524563
vt 0.209075 0.026558
vt 0.006630 0.980637
vt 0.068671 0.994747
vt 0.312165 0.694993
vt 0.315139 0.700459
vt 0.044568 0.671031
vt 0.647013 0.652355
vt 0.660071 0.691440
vt 0.069219 0.631574
vt 0.006722 0.941879
vt 0.309124 0.653987
vt 0.646276 0.378778
vt 0.069617 0.367401
vt 0.008091 0.366004
vt 0.007481 0.622684
vt 0.305646 0.048370
vt 0.305136 0.317486
vt 0.045513 0.044720
vt 0.635382 0.003078
vt 0.655396 0.046103
vt 0.008925 0.014869
vt 0.991478 0.376368
vt 0.984858 0.004989
vt 0.972291 0.003330
vt 0.673287 0.001953
vt 0.652788 0.314718
vt 0.662824 0.696858
vt 0.674564 0.699103
vt 0.977873 0.697422
vt 0.031471 0.682689
vt 0.032314 0.328121
vt 0.032338 0.317845
vt 0.033033 0.025203
vt 0.645777 0.315861
vt 0.642379 0.700055
vt 0.630594 0.702509
vt 0.326387 0.702867
vt 0.033058 0.014926
vt 0.070163 0.006096
vt 0.006620 0.985087
vt 0.044079 0.994710
vt 0.987766 0.688295
vt 0.977329 0.688056
vt 0.674983 0.689740
vt 0.664489 0.690049
vt 0.989192 0.647382
vt 0.978472 0.647444
vt 0.673009 0.649449
vt 0.662259 0.649983
vt 0.668583 0.378406
vt 0.657826 0.378590
vt 0.668241 0.315009
vt 0.657484 0.314808
vt 0.976030 0.376514
vt 0.975305 0.314605
vt 0.985939 0.314525
vt 0.986782 0.376413
vt 0.986268 0.045288
vt 0.975568 0.046750
vt 0.671164 0.046391
vt 0.660103 0.046473
vt 0.673547 0.006664
vt 0.971846 0.008020
vt 0.981566 0.007875
vt 0.663441 0.007421
vt 0.326823 0.693452
vt 0.316627 0.693503
vt 0.313853 0.653685
vt 0.630188 0.693090
vt 0.640680 0.693321
vt 0.642280 0.652195
vt 0.324684 0.653025
vt 0.631473 0.652222
vt 0.630316 0.316155
vt 0.320683 0.317628
vt 0.630729 0.378821
vt 0.320937 0.381067
vt 0.309862 0.317532
vt 0.310109 0.381130
vt 0.641047 0.316065
vt 0.641549 0.378791
vt 0.321402 0.048506
vt 0.310361 0.048680
vt 0.313524 0.009416
vt 0.627487 0.045456
vt 0.638235 0.043826
vt 0.632299 0.006411
vt 0.622432 0.006598
vt 0.323686 0.008473
vn 0.000000 0.000000 1.000000
vn 0.000000 0.000000 1.000000
vn 0.000000 0.000000 1.000000
vn 0.000000 0.000000 1.000000
vn 0.000000 1.000000 0.000000
vn 0.000000 1.000000 0.000001
vn 0.000000 1.000000 0.000000
vn 0.000000 1.000000 -0.000001
vn -0.000012 0.000000 -1.000000
vn -0.000000 0.000000 -1.000000
vn -0.000000 0.000000 -1.000000
vn -0.000012 0.000000 -1.000000
vn 0.000000 -1.000000 0.000000
vn 0.000000 -1.000000 0.000000
vn 0.000000 -1.000000 0.000000
vn 0.000000 -1.000000 0.000000
vn 1.000000 0.000000 0.000000
vn 1.000000 0.000000 0.000001
vn 1.000000 0.000000 0.000001
vn 1.000000 0.000000 0.000000
vn -1.000000 0.000000 0.000000
vn -1.000000 0.000000 0.000000
vn -1.000000 0.000000 0.000000
vn -1.000000 0.000000 0.000000
vn 0.000012 0.000000 1.000000
vn 0.000012 0.000000 1.000000
vn 0.000000 0.000000 1.000000
vn 0.000000 0.000000 1.000000
vn -1.000000 0.000000 0.000000
vn -1.000000 0.000000 0.000000
vn -1.000000 0.000000 0.000000
vn -1.000000 0.000000 0.000000
vn -0.000000 0.000000 -1.000000
vn -0.000012 0.000000 -1.000000
vn -0.000012 0.000000 -1.000000
vn -0.000000 0.000000 -1.000000
vn 1.000000 0.000000 0.000000
vn 1.000000 0.000000 0.000000
vn 1.000000 0.000000 0.000001
vn 1.000000 0.000000 0.000001
vn 0.000012 0.000000 1.000000
vn 0.000000 0.000000 1.000000
vn 0.000000 0.000000 1.000000
vn 0.000012 0.000000 1.000000
vn -1.000000 0.000000 0.000000
vn -1.000000 0.000000 0.000000
vn 0.000000 0.000000 -1.000000
vn 0.000000 0.000000 -1.000000
vn 0.000000 0.000000 -1.000000
vn 0.000000 0.000000 -1.000000
vn 1.000000 0.000000 0.000000
vn 1.000000 0.000000 0.000001
vn 0.000000 1.000000 0.000001
vn 0.000000 1.000000 -0.000006
vn 0.000000 1.000000 0.000000
vn 0.000000 1.000000 0.000000
vn 0.000012 0.000000 -1.000000
vn 0.000000 0.000000 -1.000000
vn 0.000000 0.000000 -1.000000
vn 0.000012 0.000000 -1.000000
vn 0.000000 0.000000 -1.000000
vn 0.000000 0.000000 -1.000000
vn -0.000012 0.000000 -1.000000
vn -0.000012 0.000000 -1.000000
vn 0.000000 0.000000 -1.000000
vn 0.000000 0.000000 -1.000000
vn 0.000000 0.000000 -1.000000
vn 0.000000 0.000000 -1.000000
vn 0.000000 -1.000000 0.000000
vn 0.000000 -1.000000 -0.000000
vn 0.000000 -1.000000 -0.000000
vn 0.000000 -1.000000 0.000000
vn 0.000000 0.000000 1.000000
vn 0.000000 0.000000 1.000000
vn 0.000000 0.000000 1.000000
vn 0.000000 0.000000 1.000000
vn 0.000000 0.000000 1.000000
vn 0.000000 0.000000 1.000000
vn 0.000012 0.000000 1.000000
vn 0.000012 0.000000 1.000000
vn -0.000000 0.000000 1.000000
vn -0.000012 0.000000 1.000000
vn -0.000012 0.000000 1.000000
vn -0.000000 0.000000 1.000000
vn 0.000000 1.000000 -0.000000
vn 0.000000 1.000000 0.000001
vn 0.000000 1.000000 0.000003
vn 0.000000 1.000000 0.000000
vn 0.000000 1.000000 -0.000000
vn 0.000000 1.000000 0.000000
vn 0.000000 1.000000 -0.000001
vn 0.000000 1.000000 0.000003
vn -1.000000 0.000000 -0.000009
vn -1.000000 0.000000 -0.000001
vn -1.000000 0.000000 -0.000001
vn -1.000000 0.000000 -0.000009
vn -1.000000 0.000000 -0.000009
vn -1.000000 0.000000 -0.000001
vn -1.000000 0.000000 -0.000009
vn -1.000000 0.000000 -0.000001
vn -1.000000 0.000000 -0.000001
vn -1.000000 0.000000 -0.000009
vn 0.000000 -1.000000 0.000000
vn 0.000000 -1.000000 -0.000000
vn 0.000000 -1.000000 0.000000
vn 0.000000 -1.000000 0.000000
vn 0.000000 -1.000000 -0.000000
vn 0.000000 -1.000000 -0.000000
vn 0.000000 -1.000000 -0.000000
vn 0.000000 -1.000000 0.000000
vn 1.000000 0.000000 0.000001
vn 1.000000 0.000000 0.000001
vn 1.000000 0.000000 0.000000
vn 1.000000 0.000000 0.000000
vn 1.000000 0.000000 0.000001
vn 1.000000 0.000000 0.000001
vn 1.000000 0.000000 0.000000
vn 1.000000 0.000000 0.000000
vn 1.000000 0.000000 0.000000
vn 1.000000 0.000000 0.000001
vn 0.000000 0.000000 1.000000
vn 0.000000 0.000000 1.000000
vn -0.000000 0.000000 1.000000
vn -0.000000 0.000000 1.000000
vn 0.000012 0.000000 1.000000
vn 0.000012 0.000000 1.000000
vn -0.000000 0.000000 -1.000000
vn -0.000000 0.000000 -1.000000
vn -0.000012 0.000000 -1.000000
vn -0.000012 0.000000 -1.000000
vn 0.000000 0.000000 -1.000000
vn 0.000000 0.000000 -1.000000
vn 0.000012 0.000000 -1.000000
vn 0.000012 0.000000 -1.000000
vn -0.000012 0.000000 1.000000
vn -0.000012 0.000000 1.000000
vn -0.000000 0.000000 1.000000
vn -0.000000 0.000000 1.000000
vn -0.000000 0.000000 1.000000
vn -0.000000 0.000000 1.000000
vn 0.000000 0.000000 1.000000
vn 0.000000 0.000000 1.000000
vn -1.000000 0.000000 0.000000
vn -1.000000 0.000000 0.000000
vn -1.000000 0.000000 -0.000001
vn -1.000000 0.000000 -0.000009
vn -0.000012 0.000000 -1.000000
vn -0.000000 0.000000 -1.000000
vn -0.000000 0.000000 -1.000000
vn -0.000012 0.000000 -1.000000
vn 0.000000 0.000000 -1.000000
vn 0.000000 0.000000 -1.000000
vn 0.000000 0.000000 -1.000000
vn 0.000000 0.000000 -1.000000
vn 1.000000 0.000000 0.000001
vn 1.000000 0.000000 0.000000
vn 1.000000 0.000000 0.000001
vn 1.000000 0.000000 0.000000
vn 0.000000 0.000000 1.000000
vn 0.000000 0.000000 1.000000
vn 0.000000 -1.000000 0.000000
vn 0.000000 -1.000000 0.000000
vn 0.000000 -1.000000 0.000000
vn 0.000000 -1.000000 0.000000
vn 0.000000 1.000000 0.000002
vn 0.000000 1.000000 0.000002
vn 0.000000 1.000000 0.000002
vn 0.000000 1.000000 0.000002
vn -1.000000 0.000000 0.000000
vn -1.000000 0.000000 0.000000
vn -1.000000 0.000000 0.000000
vn -1.000000 0.000000 0.000000
vn 0.000000 1.000000 0.000000
vn 0.000000 1.000000 0.000000
vn 0.000000 1.000000 0.000000
vn 0.000000 1.000000 0.000000
vn 0.000000 -1.000000 0.000000
vn 0.000000 -1.000000 0.000000
vn 0.000000 -1.000000 0.000000
vn 0.000000 -1.000000 0.000000
vn 1.000000 0.000000 0.000000
vn 1.000000 0.000000 0.000000
vn 1.000000 0.000000 0.000000
vn 1.000000 0.000000 0.000000
vn 0.000000 -1.000000 -0.000000
vn 0.000000 -1.000000 -0.000000
vn 0.000000 -1.000000 -0.000000
vn 0.000000 -1.000000 -0.000000
vn 0.000000 1.000000 0.000003
vn 0.000000 1.000000 0.000003
vn 0.000000 1.000000 0.000003
vn 0.000000 1.000000 0.000003
vn 0.000000 1.000000 -0.000001
vn 0.000000 1.000000 -0.000001
vn 0.000000 1.000000 -0.000001
vn 0.000000 1.000000 -0.000001
vn 0.000000 -1.000000 0.000000
vn 0.000000 -1.000000 0.000000
vn 0.000000 -1.000000 0.000000
vn 0.000000 -1.000000 0.000000
vn -1.000000 0.000000 0.000012
vn -1.000000 0.000000 0.000012
vn -1.000000 0.000000 0.000012
vn -1.000000 0.000000 0.000012
vn 0.000000 1.000000 0.000000
vn 0.000000 1.000000 0.000000
vn 0.000000 1.000000 0.000000
vn 0.000000 1.000000 0.000000
vn 1.000000 0.000000 0.000000
vn 1.000000 0.000000 0.000000
vn 1.000000 0.000000 0.000000
vn 1.000000 0.000000 0.000000
vn 0.000000 -1.000000 0.000000
vn 0.000000 -1.000000 0.000000
vn 0.000000 -1.000000 0.000000
vn 0.000000 -1.000000 0.000000
vn 0.000000 1.000000 0.000000
vn 0.000000 1.000000 0.000000
vn 0.000000 1.000000 0.000000
vn 0.000000 1.000000 0.000000
vn 0.000000 -1.000000 0.000000
vn 0.000000 -1.000000 0.000000
vn 0.000000 -1.000000 0.000000
vn 0.000000 -1.000000 0.000000
vn 0.000000 -1.000000 0.000000
vn 0.000000 -1.000000 0.000000
vn 0.000000 -1.000000 0.000000
vn 0.000000 -1.000000 0.000000
vn 0.000000 1.000000 0.000000
vn 0.000000 1.000000 0.000000
vn 0.000000 1.000000 0.000000
vn 0.000000 1.000000 0.000000
vn -1.000000 0.000000 0.000000
vn -1.000000 0.000000 0.000000
vn -1.000000 0.000000 0.000000
vn -1.000000 0.000000 0.000000
vn 0.000000 -1.000000 -0.000000
vn 0.000000 -1.000000 -0.000000
vn 0.000000 -1.000000 -0.000000
vn 0.000000 -1.000000 -0.000000
vn 1.000000 0.000000 0.000000
vn 1.000000 0.000000 0.000000
vn 1.000000 0.000000 0.000000
vn 1.000000 0.000000 0.000000
vn 0.000000 1.000000 0.000000
vn 0.000000 1.000000 0.000000
vn 0.000000 1.000000 0.000000
vn 0.000000 1.000000 0.000000
vn 0.000000 -1.000000 0.000000
vn 0.000000 -1.000000 0.000000
vn 0.000000 -1.000000 0.000000
vn 0.000000 -1.000000 0.000000
vn 0.000000 1.000000 -0.000000
vn 0.000000 1.000000 -0.000000
vn 0.000000 1.000000 -0.000000
vn 0.000000 1.000000 -0.000000
vn 0.000000 1.000000 0.000000
vn 0.000000 1.000000 0.000000
vn 0.000000 1.000000 0.000000
vn 0.000000 1.000000 0.000000
vn 0.000000 -1.000000 0.000000
vn 0.000000 -1.000000 0.000000
vn 0.000000 -1.000000 0.000000
vn 0.000000 -1.000000 0.000000
vn -1.000000 0.000000 0.000005
vn -1.000000 0.000000 0.000005
vn -1.000000 0.000000 0.000005
vn -1.000000 0.000000 0.000005
vn 0.000000 1.000000 -0.000000
vn 0.000000 1.000000 -0.000000
vn 0.000000 1.000000 -0.000000
vn 0.000000 1.000000 -0.000000
vn 1.000000 0.000000 0.000000
vn 1.000000 0.000000 0.000000
vn 1.000000 0.000000 0.000000
vn 1.000000 0.000000 0.000000
vn 0.000000 -1.000000 0.000000
vn 0.000000 -1.000000 0.000000
vn 0.000000 -1.000000 0.000000
vn 0.000000 -1.000000 0.000000
vn 0.000000 1.000000 0.000000
vn 0.000000 1.000000 0.000000
vn 0.000000 1.000000 0.000000
vn 0.000000 1.000000 0.000000
vn 0.000000 -1.000000 -0.000000
vn 0.000000 -1.000000 -0.000000
vn 0.000000 -1.000000 -0.000000
vn 0.000000 -1.000000 -0.000000
vn 0.000000 0.000000 1.000000
vn 0.000000 0.000000 1.000000
vn -0.000000 0.000000 1.000000
vn -0.000000 0.000000 1.000000
vn 0.000012 0.000000 1.000000
vn 0.000012 0.000000 1.000000
vn -1.000000 0.000000 0.000000
vn -1.000000 0.000000 0.000000
vn -1.000000 0.000000 -0.000001
vn -1.000000 0.000000 -0.000009
vn -0.000012 0.000000 -1.000000
vn -0.000000 0.000000 -1.000000
vn -0.000000 0.000000 -1.000000
vn -0.000012 0.000000 -1.000000
vn 0.000000 0.000000 -1.000000
vn 0.000000 0.000000 -1.000000
vn 0.000012 0.000000 -1.000000
vn 0.000012 0.000000 -1.000000
vn 1.000000 0.000000 0.000001
vn 1.000000 0.000000 0.000000
vn 1.000000 0.000000 0.000001
vn 1.000000 0.000000 0.000000
vn -0.000012 0.000000 1.000000
vn -0.000012 0.000000 1.000000
vn 0.000000 -1.000000 0.000000
vn 0.000000 -1.000000 0.000000
vn 0.000000 -1.000000 0.000000
vn 0.000000 -1.000000 0.000000
vn 0.000000 1.000000 0.000000
vn 0.000000 1.000000 0.000000
vn 0.000000 1.000000 0.000000
vn 0.000000 1.000000 0.000000
vn 0.000000 -1.000000 -0.000000
vn 0.000000 -1.000000 -0.000000
vn 0.000000 -1.000000 -0.000000
vn 0.000000 -1.000000 -0.000000
vn 0.000000 1.000000 0.000000
vn 0.000000 1.000000 0.000000
vn 0.000000 1.000000 0.000000
vn 0.000000 1.000000 0.000000
vn -1.000000 0.000000 0.000006
vn -1.000000 0.000000 0.000006
vn -1.000000 0.000000 0.000006
vn -1.000000 0.000000 0.000006
vn 0.000000 1.000000 0.000000
vn 0.000000 1.000000 0.000000
vn 0.000000 1.000000 0.000000
vn 0.000000 1.000000 0.000000
vn 0.000000 -1.000000 0.000000
vn 0.000000 -1.000000 0.000000
vn 0.000000 -1.000000 0.000000
vn 0.000000 -1.000000 0.000000
vn 1.000000 0.000000 0.000000
vn 1.000000 0.000000 0.000000
vn 1.000000 0.000000 0.000000
vn 1.000000 0.000000 0.000000
vn 0.000000 1.000000 -0.000005
vn 0.000000 1.000000 -0.000005
vn 0.000000 1.000000 -0.000005
vn 0.000000 1.000000 -0.000005
vn 0.000000 -1.000000 0.000003
vn 0.000000 -1.000000 0.000003
vn 0.000000 -1.000000 0.000003
vn 0.000000 -1.000000 0.000003
vn -1.000000 0.000000 0.000006
vn -1.000000 0.000000 0.000006
vn -1.000000 0.000000 0.000006
vn -1.000000 0.000000 0.000006
vn 0.000000 -1.000000 -0.000003
vn 0.000000 -1.000000 -0.000003
vn 0.000000 -1.000000 -0.000003
vn 0.000000 -1.000000 -0.000003
vn 0.000000 1.000000 0.000000
vn 0.000000 1.000000 0.000000
vn 0.000000 1.000000 0.000000
vn 0.000000 1.000000 0.000000
vn 0.000000 -1.000000 0.000000
vn 0.000000 -1.000000 0.000000
vn 0.000000 -1.000000 0.000000
vn 0.000000 -1.000000 0.000000
vn 0.000000 1.000000 0.000001
vn 0.000000 1.000000 0.000001
vn 0.000000 1.000000 0.000001
vn 0.000000 1.000000 0.000001
vn 1.000000 0.000000 -0.000006
vn 1.000000 0.000000 -0.000006
vn 1.000000 0.000000 -0.000006
vn 1.000000 0.000000 -0.000006
s 1
g Door_Small2
usemtl Door__
f 81/1/1 82/2/2 83/3/3 84/4/4
s 2
f 3/5/5 25/6/6 47/167/7 48/166/8
s 3
f 89/9/9 90/10/10 91/11/11 92/12/12
s 4
f 51/13/13 52/164/14 30/201/15 1/204/16
s 5
f 2/203/17 54/162/18 67/19/19 68/197/20
s 6
f 51/13/21 1/204/22 59/200/23 60/159/24
s 7
f 71/188/25 10/190/26 32/189/27 70/187/28
s 6
f 49/27/29 10/190/30 71/188/31 72/28/32
s 9
f 27/215/33 11/220/34 74/210/35 75/212/36
s 5
f 80/185/37 9/196/38 56/161/39 79/36/40
s 11
f 98/37/41 97/38/42 99/39/43 100/40/44
s 6
f 50/165/45 14/192/46 10/190/30 49/27/29
s 12
f 105/43/47 106/44/48 107/45/49 108/46/50
s 5
f 13/195/51 55/48/52 56/161/39 9/196/38
s 2
f 17/49/53 4/50/54 45/51/55 46/168/56
s 9
f 12/218/57 19/216/58 76/211/59 77/207/60
s 12
f 110/57/61 109/58/62 111/59/63 112/60/64
s 3
f 94/61/65 93/62/66 95/63/67 96/64/68
s 4
f 22/202/69 53/163/70 54/162/71 2/203/72
s 1
f 85/67/73 86/68/74 87/69/75 88/70/76
s 11
f 102/71/77 101/72/78 103/73/79 104/74/80
s 7
f 24/193/81 9/196/82 80/185/83 69/186/84
s 2
f 25/6/6 17/49/53 46/168/56 47/167/7
s 9
f 19/216/58 27/215/33 75/212/36 76/211/59
s 12
f 107/45/49 106/44/48 109/58/62 110/57/61
s 3
f 91/11/11 90/10/10 93/62/66 94/61/65
s 4
f 30/201/15 52/164/14 53/163/70 22/202/69
s 1
f 83/3/3 82/2/2 87/69/75 86/68/74
s 11
f 99/39/43 97/38/42 101/72/78 102/71/77
s 7
f 32/189/27 24/193/81 69/186/84 70/187/28
s 2
f 34/176/85 33/144/86 6/79/87 18/80/88
f 35/175/89 34/176/85 18/80/88 26/82/90
f 36/174/91 35/175/89 26/82/90 5/84/92
s 6
f 11/220/93 37/151/94 73/146/95 74/210/96
f 15/219/97 38/173/98 37/151/94 11/220/93
f 7/226/99 39/158/100 61/91/101 62/225/102
s 4
f 7/226/103 29/227/104 40/94/105 39/158/106
f 41/95/107 40/94/105 29/227/104 21/228/108
f 42/97/109 41/95/107 21/228/108 8/223/110
s 5
f 66/155/111 42/97/112 8/223/113 65/222/114
f 44/101/115 43/156/116 16/217/117 12/218/118
f 44/101/115 12/218/118 77/207/119 78/150/120
s 2
f 46/52/56 45/142/55 33/180/86 34/77/85
f 47/7/7 46/52/56 34/77/85 35/81/89
f 48/8/8 47/7/7 35/81/89 36/83/91
s 6
f 37/85/94 49/152/29 72/148/32 73/86/95
f 38/88/98 50/41/45 49/152/29 37/85/94
f 39/90/100 51/178/21 60/22/24 61/157/101
s 4
f 39/177/106 40/172/105 52/14/14 51/160/13
f 53/66/70 52/14/14 40/172/105 41/171/107
f 54/18/71 53/66/70 41/171/107 42/170/109
s 5
f 67/153/19 54/18/18 42/170/112 66/99/111
f 56/35/39 55/154/52 43/102/116 44/169/115
f 56/35/39 44/169/115 78/104/120 79/149/40
s 16
f 31/191/121 58/199/122 57/198/123 23/194/124
f 14/192/125 59/200/126 58/199/122 31/191/121
s 6
f 50/165/45 60/159/24 59/200/23 14/192/46
f 38/88/98 61/157/101 60/22/24 50/41/45
f 15/219/97 62/225/102 61/91/101 38/173/98
s 17
f 28/213/127 63/224/128 62/225/129 15/219/130
f 20/214/131 64/221/132 63/224/128 28/213/127
f 16/217/133 65/222/134 64/221/132 20/214/131
s 5
f 43/156/116 66/155/111 65/222/114 16/217/117
f 55/154/52 67/153/19 66/99/111 43/102/116
f 13/195/51 68/197/20 67/19/19 55/48/52
s 16
f 23/194/124 57/198/123 68/197/135 13/195/136
s 18
f 126/113/137 125/114/138 127/115/139 128/116/140
f 129/117/141 125/114/138 126/113/137 130/118/142
s 6
f 72/28/32 71/188/31 115/184/143 116/147/144
f 73/86/95 72/148/32 116/120/144 117/145/145
f 74/210/96 73/146/95 117/121/145 118/209/146
s 19
f 133/123/147 134/124/148 135/125/149 136/126/150
f 137/127/151 135/125/149 134/124/148 138/128/152
f 139/129/153 137/127/151 138/128/152 140/130/154
s 5
f 122/143/155 78/150/120 77/207/119 121/206/156
f 123/141/157 79/149/40 78/104/120 122/131/155
f 80/185/37 79/36/40 123/133/157 124/181/158
s 18
f 131/135/159 128/116/140 127/115/139 132/136/160
s off
f 1/16/161 30/15/162 82/2/163 81/1/164
f 58/106/165 59/21/166 84/4/167 83/3/168
f 59/21/169 1/16/170 81/1/171 84/4/172
f 68/20/173 57/107/174 86/68/175 85/67/176
f 22/65/177 2/17/178 88/70/179 87/69/180
f 2/17/181 68/20/182 85/67/183 88/70/184
f 30/15/185 22/65/186 87/69/187 82/2/188
f 57/107/189 58/106/190 83/3/191 86/68/192
f 62/92/193 63/110/194 90/10/195 89/9/196
f 29/93/197 7/89/198 92/12/199 91/11/200
f 7/89/201 62/92/202 89/9/203 92/12/204
f 64/112/205 65/100/206 95/63/207 93/62/208
f 65/100/209 8/98/210 96/64/211 95/63/212
f 8/98/213 21/96/214 94/61/215 96/64/216
f 63/110/217 64/112/218 93/62/219 90/10/220
f 21/96/221 29/93/222 91/11/223 94/61/224
f 14/42/225 31/105/226 97/38/227 98/37/228
f 32/25/229 10/24/230 100/40/231 99/39/232
f 10/24/233 14/42/234 98/37/235 100/40/236
f 23/108/237 13/47/238 103/73/239 101/72/240
f 13/47/241 9/34/242 104/74/243 103/73/244
f 9/34/245 24/75/246 102/71/247 104/74/248
f 31/105/249 23/108/250 101/72/251 97/38/252
f 24/75/253 32/25/254 99/39/255 102/71/256
f 11/30/257 27/29/258 106/44/259 105/43/260
f 28/109/261 15/87/262 108/46/263 107/45/264
f 15/87/265 11/30/266 105/43/267 108/46/268
f 19/54/269 12/53/270 111/59/271 109/58/272
f 12/53/273 16/103/274 112/60/275 111/59/276
f 16/103/277 20/111/278 110/57/279 112/60/280
f 27/29/281 19/54/282 109/58/283 106/44/284
f 20/111/285 28/109/286 107/45/287 110/57/288
s 20
f 25/6/289 114/183/290 113/182/291 17/49/292
f 115/184/293 114/183/290 25/6/289 3/5/294
s 6
f 116/147/144 115/184/143 3/5/295 48/166/296
f 117/145/145 116/120/144 48/8/296 36/83/297
f 118/209/146 117/121/145 36/174/297 5/84/298
s 21
f 5/84/299 26/82/300 119/208/301 118/209/302
f 120/205/303 119/208/301 26/82/300 18/80/304
f 121/206/305 120/205/303 18/80/304 6/79/306
s 5
f 33/144/307 122/143/155 121/206/156 6/79/308
f 45/179/309 123/141/157 122/131/155 33/78/307
f 124/181/158 123/133/157 45/51/309 4/50/310
s 20
f 17/49/292 113/182/291 124/181/311 4/50/312
s off
f 70/26/313 69/76/314 127/115/315 125/114/316
f 113/138/317 114/137/318 126/113/319 128/116/320
f 71/23/321 70/26/322 125/114/323 129/117/324
f 114/137/325 115/119/326 130/118/327 126/113/328
f 115/119/329 71/23/330 129/117/331 130/118/332
f 124/134/333 113/138/334 128/116/335 131/135/336
f 69/76/337 80/33/338 132/136/339 127/115/340
f 80/33/341 124/134/342 131/135/343 132/136/344
f 118/122/345 119/139/346 134/124/347 133/123/348
f 75/32/349 74/31/350 136/126/351 135/125/352
f 74/31/353 118/122/354 133/123/355 136/126/356
f 76/55/357 75/32/358 135/125/359 137/127/360
f 119/139/361 120/140/362 138/128/363 134/124/364
f 77/56/365 76/55/366 137/127/367 139/129/368
f 120/140/369 121/132/370 140/130/371 138/128/372
f 121/132/373 77/56/374 139/129/375 140/130/376
