# This file uses centimeters as units for non-parametric coordinates.

mtllib Broken_wooden_house.mtl
g default
v 171.682159 31.426300 12.904652
v 179.188690 31.426300 10.905331
v 179.164719 239.950928 39.609978
v 186.671280 239.950928 37.610687
v 149.182388 239.950928 -67.434586
v 156.688934 239.950928 -69.433899
v 148.033417 35.152515 -71.535210
v 155.539978 35.152515 -73.534500
v 176.680420 148.837952 30.743446
v 148.033417 150.399780 -71.535210
v 155.539978 150.399780 -73.534500
v 184.186935 148.837952 28.744072
v 145.985336 239.950897 -78.844803
v 153.491898 239.950897 -80.844086
v 153.336609 150.399780 -81.398300
v 145.830032 150.399780 -79.399048
v 149.182388 254.531158 -67.434586
v 156.688934 254.531158 -69.433899
v 152.546051 254.531158 -84.219780
v 145.039505 254.531158 -82.220497
v 149.182388 246.046936 -67.434586
v 145.589874 246.046936 -80.256195
v 153.096436 246.046936 -82.255478
v 156.688934 246.046936 -69.433899
v 206.390732 246.046936 107.951279
v 198.884186 246.046936 109.950577
v 206.390732 254.531158 107.951279
v 198.884186 254.531158 109.950577
v 501.591736 288.458313 67.643585
v 602.278564 351.509186 84.416199
v 489.547729 295.828339 71.866730
v 597.943909 364.048981 85.332047
v 295.129211 299.405823 -375.621307
v 466.608154 358.398376 -412.723572
v 307.173187 292.035797 -379.844452
v 470.942871 345.858582 -413.639435
v 588.194580 367.145020 -425.603760
v 677.526367 335.325195 62.754501
v 583.859924 379.684814 -424.687927
v 673.191711 347.864990 63.670364
v 672.052368 269.767365 -463.675354
v 727.573120 298.666656 54.209053
v 678.030151 281.382050 -466.173523
v 733.550842 310.281372 51.710899
v 771.099243 150.107162 -412.855103
v 799.127014 181.295120 117.093834
v 780.659790 161.980179 -416.235199
v 808.687622 193.168274 113.713982
v 656.036072 15.460579 -131.527542
v 593.705383 355.335938 -127.704178
v 638.098389 12.029510 -130.369705
v 575.767639 351.904877 -126.546333
v 636.836304 13.193130 -146.287048
v 574.505493 353.068726 -142.463699
v 654.774048 16.624199 -147.444901
v 592.443237 356.499817 -143.621552
v 437.728088 38.954811 134.379837
v 737.410034 38.954811 63.839165
v 437.728088 63.142906 134.379837
v 750.372192 63.142906 60.787125
v 434.598328 63.142906 118.677322
v 747.242432 63.142906 45.084614
v 434.598328 38.954811 118.677322
v 734.280273 38.954815 48.136665
v 440.423828 8.571154 143.374451
v 755.117432 9.924193 54.398075
v 440.423828 32.759247 143.374451
v 743.940552 31.140923 57.559006
v 436.600708 32.759247 127.826202
v 740.052124 31.406204 42.029209
v 436.600708 8.571154 127.826202
v 751.229065 10.189475 38.868282
v 641.108643 32.913692 -403.636261
v 647.612244 -7.785553 -345.672943
v 641.547913 41.422115 -403.569153
v 648.051453 0.722790 -345.605835
v 745.360474 31.295664 -428.924072
v 752.581726 -10.819909 -377.838226
v 744.921265 22.787338 -428.991211
v 752.142517 -19.328321 -377.905334
v 761.352417 -29.531376 -310.496216
v 626.578125 -8.410007 -281.246155
v 761.776428 -21.022358 -310.429962
v 627.002075 0.098909 -281.179871
v 760.057556 7.898381 74.706726
v 615.646667 21.687153 -14.783997
v 760.481567 16.407398 74.772949
v 616.070618 30.196070 -14.717682
v 484.178406 -6.952072 133.070999
v 484.178284 171.031952 132.671646
v 465.878815 -6.952072 133.063309
v 465.878693 171.031952 132.663956
v 465.873718 -6.475555 117.060753
v 465.873566 171.508698 116.661392
v 484.173309 -6.475555 117.068443
v 484.173187 171.508698 116.669090
v 196.617218 251.303314 123.508484
v 343.324280 396.509064 125.415436
v 183.551758 257.922119 125.150040
v 338.355164 408.744141 126.992058
v 112.341492 257.922119 -81.052406
v 292.914825 416.555481 -98.532829
v 125.406967 251.303314 -82.693939
v 297.883911 404.320404 -100.109444
v 366.429443 402.914001 -123.021782
v 411.547180 383.877533 121.072273
v 361.460358 415.149048 -121.445168
v 406.578094 396.112610 122.648888
v 441.122986 417.890045 -137.990921
v 481.125488 411.959534 138.049545
v 447.042969 429.737701 -136.781784
v 487.045471 423.807159 139.258698
v 603.466675 240.831268 37.131958
v 589.167053 232.833389 128.276733
v 613.056519 253.066513 38.591942
v 598.756836 245.068695 129.736755
v 658.600037 -6.952072 105.453308
v 658.599915 171.031952 105.053947
v 640.300476 -6.952072 105.445610
v 640.300354 171.031952 105.046257
v 640.295349 -6.475555 89.443054
v 640.295227 171.508698 89.043694
v 658.594971 -6.475555 89.450745
v 658.594849 171.508698 89.051392
v 220.399902 243.016022 121.794785
v 271.262238 194.616959 110.435966
v 221.706970 251.434265 121.670349
v 272.569305 203.035110 110.311554
v 189.799103 249.853333 19.191788
v 233.622101 201.092880 7.461779
v 188.491974 241.435196 19.316212
v 232.315002 192.674652 7.586191
v 296.894531 173.153992 -5.880150
v 335.881866 183.623291 127.672020
v 298.201660 181.572250 -5.989296
v 337.188995 192.041443 127.562866
v 682.931274 153.759155 -25.461929
v 604.063904 173.906586 124.295364
v 684.238403 162.177429 -25.571075
v 605.371033 182.324738 124.186203
v 773.870972 5.943359 54.654770
v 773.452393 6.565163 -282.468781
v 778.913147 173.675674 32.885406
v 778.513245 159.996185 -289.936951
v 761.669556 173.675674 32.717972
v 761.269714 159.996185 -290.104370
v 761.698059 5.943359 54.480728
v 761.279480 6.565163 -282.642822
v 778.520386 30.777081 -284.524536
v 778.916565 20.611271 35.519836
v 761.673096 20.489723 35.396362
v 761.276794 30.777081 -284.691864
v 778.519409 48.260818 -285.256775
v 778.853455 33.126720 -12.725891
v 761.609924 33.005150 -12.849396
v 761.275818 48.260818 -285.424194
v 778.518311 68.071388 -286.086548
v 778.915405 72.470825 34.614746
v 761.671814 72.470825 34.447296
v 761.274719 68.071388 -286.253998
v 778.662659 97.098953 -213.999039
v 778.696106 95.383041 -182.835938
v 778.661743 134.457932 -217.699371
v 778.693481 134.169113 -182.455765
v 777.001465 99.225594 -212.335632
v 777.030884 97.714455 -184.891205
v 777.000671 132.126541 -215.594391
v 777.028625 131.872177 -184.556381
v 785.947021 6.472847 -307.913269
v 791.016296 30.748581 -308.970947
v 761.241089 6.480659 -311.948212
v 761.239746 30.756390 -312.999084
v 761.239746 48.255463 -313.011322
v 791.016235 48.247639 -308.983032
v 761.239685 68.083389 -313.025146
v 791.016235 68.075577 -308.996857
v 761.239624 160.088745 -313.089264
v 791.016174 160.080948 -309.060974
v 761.279480 -24.223671 -282.642822
v 773.452393 -24.223671 -282.468781
v 761.241089 -24.308182 -311.948212
v 785.947021 -24.315987 -307.913269
v 200.103989 0.103126 147.867035
v 404.550049 0.103126 117.188049
v 200.103989 25.272589 147.867035
v 404.550049 25.272589 117.188049
v 198.925537 25.272589 138.206573
v 403.371552 25.272589 107.527603
v 198.925537 0.103126 138.206573
v 403.371552 0.103126 107.527603
v 327.048676 0.103126 128.817825
v 327.048676 25.272589 128.817825
v 325.870148 25.272589 119.157387
v 325.870148 0.103126 119.157387
v 328.487610 3.861801 119.927315
v 389.034393 5.218585 110.849403
v 379.703094 21.376003 112.235695
v 329.844482 19.556801 127.235489
v 199.302917 23.988037 153.451447
v 404.365936 24.609840 122.650902
v 221.577606 191.720352 155.230927
v 412.498291 178.040863 126.556129
v 219.202393 191.720352 138.150894
v 410.123077 178.040863 109.476105
v 197.681396 23.988037 141.385742
v 402.744415 24.609840 110.585197
v 407.145996 48.821758 127.360641
v 218.972443 38.655949 155.622513
v 216.553772 38.534401 138.549011
v 404.770691 48.821758 110.280624
v 407.870117 66.305496 127.251801
v 266.682251 51.171398 148.451172
v 264.263611 51.049828 131.377670
v 405.494904 66.305496 110.171768
v 408.690674 86.116066 127.128456
v 219.867462 90.515503 155.487976
v 217.492279 90.515503 138.407944
v 406.315460 86.116066 110.048431
v 370.097870 102.238174 132.979965
v 339.279846 100.522263 137.604858
v 373.757660 139.597153 132.433853
v 338.903442 139.308334 137.658340
v 368.207825 104.364815 131.582001
v 341.067322 102.853676 135.654999
v 371.430908 137.265762 131.101059
v 340.735809 137.011398 135.702103
v 431.373749 24.517525 131.259949
v 433.166809 48.793259 136.118042
v 431.724243 24.525337 106.229187
v 432.763489 48.801067 106.072983
v 432.775574 66.300140 106.071167
v 433.178772 66.292313 136.116241
v 432.789215 86.128067 106.069107
v 433.192444 86.120255 136.114182
v 432.852661 178.133423 106.059578
v 433.255829 178.125626 136.104660
v 402.744415 -6.178993 110.585197
v 404.365936 -6.178993 122.650902
v 431.724243 -6.263504 106.229187
v 431.373749 -6.271309 131.259949
v 513.367371 -7.076355 112.596016
v 513.389099 170.158051 128.918854
v 495.067780 -7.073380 112.588463
v 495.089539 170.161026 128.911301
v 495.062805 -5.095642 96.701447
v 495.084564 172.138977 113.024300
v 513.362427 -5.098633 96.709000
v 513.384155 172.136017 113.031853
v 675.214478 32.913692 -47.883373
v 619.543701 -7.785553 -30.482189
v 675.232117 41.422115 -47.439388
v 619.561279 0.722790 -30.038227
v 719.854797 31.295664 49.662296
v 671.072510 -10.819909 66.460968
v 719.837219 22.787338 49.218319
v 671.054932 -19.328321 66.016998
v 606.624756 -29.531376 87.870399
v 552.293518 -8.410007 -38.888439
v 606.640320 -21.022358 88.299255
v 552.309021 0.098909 -38.459576
v 228.196564 7.898381 159.808212
v 288.610382 21.687153 1.021351
v 228.212097 16.407398 160.237061
v 288.625916 30.196070 1.450214
v 438.956268 71.179909 137.586823
v 745.441711 73.526535 74.155785
v 438.956268 95.368004 137.586823
v 759.316895 93.338280 73.956078
v 435.496613 95.368004 121.953674
v 759.538940 93.021370 57.949375
v 435.496613 71.179909 121.953674
v 745.663757 73.209625 58.149063
v 629.377441 -5.237488 100.199837
v 629.352600 171.698532 80.909485
v 611.077820 -5.240845 100.192322
v 611.052979 171.695175 80.901970
v 611.072815 -6.465729 84.229599
v 611.047974 170.470520 64.939224
v 629.372375 -6.462372 84.237114
v 629.347534 170.473877 64.946739
v 438.957672 128.798950 138.663361
v 749.983093 128.798950 58.504623
v 438.957672 152.987030 138.663361
v 749.983093 152.987030 58.504623
v 435.498016 152.987030 123.030228
v 746.523438 152.987030 42.871487
v 435.498016 128.798950 123.030228
v 746.523438 128.798950 42.871487
v 197.692688 254.989182 117.322609
v 346.912872 175.594910 116.094521
v 338.578064 399.131226 116.087303
v 476.091003 375.807312 114.893944
v 339.286560 399.131226 106.921432
v 476.799500 375.807312 105.728073
v 198.401169 254.989182 108.156738
v 347.621368 175.594910 106.928650
v 390.145935 236.153854 115.715454
v 242.175842 300.500458 116.932571
v 242.884308 300.500458 107.766701
v 390.854401 236.153854 106.549583
v 525.119690 179.835815 105.372322
v 524.411194 179.835815 114.538193
v 573.627380 242.812469 104.947014
v 572.918884 242.812469 114.112885
v 362.744843 304.157471 115.922432
v 323.478485 320.057190 116.277962
v 382.021301 346.271240 115.760910
v 345.433777 363.894897 116.035492
v 361.577240 307.635498 113.101990
v 326.883240 321.683807 113.416122
v 378.609070 344.845398 112.959274
v 346.281982 360.416870 113.201889
vt 0.375000 0.000000
vt 0.625000 0.000000
vt 0.375000 0.250000
vt 0.625000 0.250000
vt 0.375000 0.500000
vt 0.625000 0.500000
vt 0.375000 0.750000
vt 0.625000 0.750000
vt 0.375000 1.000000
vt 0.625000 1.000000
vt 0.875000 0.000000
vt 0.875000 0.250000
vt 0.125000 0.000000
vt 0.125000 0.250000
vt 0.375000 0.145213
vt 0.125000 0.145213
vt 0.375000 0.604787
vt 0.625000 0.604787
vt 0.875000 0.145213
vt 0.625000 0.145213
vt 0.375000 0.500000
vt 0.625000 0.500000
vt 0.625000 0.604787
vt 0.375000 0.604787
vt 0.375000 0.500000
vt 0.625000 0.500000
vt 0.625000 0.500000
vt 0.375000 0.500000
vt 0.375000 0.500000
vt 0.375000 0.500000
vt 0.625000 0.500000
vt 0.625000 0.500000
vt 0.375000 0.500000
vt 0.625000 0.500000
vt 0.625000 0.500000
vt 0.375000 0.500000
vt 0.375000 0.000000
vt 0.625000 0.000000
vt 0.625000 0.250000
vt 0.375000 0.250000
vt 0.625000 0.500000
vt 0.375000 0.500000
vt 0.625000 0.750000
vt 0.375000 0.750000
vt 0.625000 1.000000
vt 0.375000 1.000000
vt 0.625000 0.000000
vt 0.875000 0.000000
vt 0.875000 0.250000
vt 0.625000 0.250000
vt 0.125000 0.000000
vt 0.125000 0.250000
vt 0.875000 0.000000
vt 0.875000 0.000000
vt 0.625000 0.000000
vt 0.875000 0.250000
vt 0.875000 0.250000
vt 0.625000 0.250000
vt 0.875000 0.000000
vt 0.625000 0.000000
vt 0.875000 0.250000
vt 0.625000 0.250000
vt 0.375000 0.000000
vt 0.625000 0.000000
vt 0.625000 0.250000
vt 0.375000 0.250000
vt 0.625000 0.500000
vt 0.375000 0.500000
vt 0.625000 0.750000
vt 0.375000 0.750000
vt 0.625000 1.000000
vt 0.375000 1.000000
vt 0.875000 0.000000
vt 0.875000 0.250000
vt 0.125000 0.000000
vt 0.125000 0.250000
vt 0.375000 0.000000
vt 0.625000 0.000000
vt 0.625000 0.250000
vt 0.375000 0.250000
vt 0.625000 0.500000
vt 0.375000 0.500000
vt 0.625000 0.750000
vt 0.375000 0.750000
vt 0.625000 1.000000
vt 0.375000 1.000000
vt 0.875000 0.000000
vt 0.875000 0.250000
vt 0.125000 0.000000
vt 0.125000 0.250000
vt 0.375000 0.000000
vt 0.625000 0.000000
vt 0.625000 0.250000
vt 0.375000 0.250000
vt 0.625000 0.500000
vt 0.375000 0.500000
vt 0.625000 0.750000
vt 0.375000 0.750000
vt 0.625000 1.000000
vt 0.375000 1.000000
vt 0.875000 0.000000
vt 0.875000 0.250000
vt 0.125000 0.000000
vt 0.125000 0.250000
vt 0.375000 0.000000
vt 0.625000 0.000000
vt 0.625000 0.250000
vt 0.375000 0.250000
vt 0.625000 0.500000
vt 0.375000 0.500000
vt 0.625000 0.750000
vt 0.375000 0.750000
vt 0.625000 1.000000
vt 0.375000 1.000000
vt 0.625000 0.000000
vt 0.875000 0.000000
vt 0.875000 0.250000
vt 0.625000 0.250000
vt 0.125000 0.000000
vt 0.125000 0.250000
vt 0.875000 0.000000
vt 0.875000 0.000000
vt 0.625000 0.000000
vt 0.875000 0.250000
vt 0.875000 0.250000
vt 0.625000 0.250000
vt 0.375000 0.000000
vt 0.625000 0.000000
vt 0.625000 0.250000
vt 0.375000 0.250000
vt 0.625000 0.500000
vt 0.375000 0.500000
vt 0.625000 0.750000
vt 0.375000 0.750000
vt 0.625000 1.000000
vt 0.375000 1.000000
vt 0.875000 0.000000
vt 0.875000 0.250000
vt 0.125000 0.000000
vt 0.125000 0.250000
vt 0.375000 0.000000
vt 0.625000 0.000000
vt 0.625000 0.250000
vt 0.375000 0.250000
vt 0.625000 0.500000
vt 0.375000 0.500000
vt 0.625000 0.750000
vt 0.375000 0.750000
vt 0.625000 1.000000
vt 0.375000 1.000000
vt 0.625000 0.000000
vt 0.875000 0.000000
vt 0.875000 0.250000
vt 0.625000 0.250000
vt 0.125000 0.000000
vt 0.125000 0.250000
vt 0.875000 0.000000
vt 0.875000 0.000000
vt 0.625000 0.000000
vt 0.875000 0.250000
vt 0.875000 0.250000
vt 0.625000 0.250000
vt 0.875000 0.000000
vt 0.625000 0.000000
vt 0.875000 0.250000
vt 0.625000 0.250000
vt 0.375000 0.000000
vt 0.625000 0.000000
vt 0.625000 0.250000
vt 0.375000 0.250000
vt 0.625000 0.500000
vt 0.375000 0.500000
vt 0.625000 0.750000
vt 0.375000 0.750000
vt 0.625000 1.000000
vt 0.375000 1.000000
vt 0.875000 0.000000
vt 0.875000 0.250000
vt 0.125000 0.000000
vt 0.125000 0.250000
vt 0.375000 0.000000
vt 0.625000 0.000000
vt 0.625000 0.250000
vt 0.375000 0.250000
vt 0.625000 0.500000
vt 0.375000 0.500000
vt 0.625000 0.750000
vt 0.375000 0.750000
vt 0.625000 1.000000
vt 0.375000 1.000000
vt 0.625000 0.000000
vt 0.875000 0.000000
vt 0.875000 0.250000
vt 0.625000 0.250000
vt 0.125000 0.000000
vt 0.125000 0.250000
vt 0.875000 0.000000
vt 0.875000 0.000000
vt 0.625000 0.000000
vt 0.875000 0.250000
vt 0.875000 0.250000
vt 0.625000 0.250000
vt 0.375000 0.000000
vt 0.625000 0.000000
vt 0.625000 0.068654
vt 0.375000 0.068654
vt 0.375000 0.250000
vt 0.625000 0.250000
vt 0.625000 0.500000
vt 0.375000 0.500000
vt 0.625000 0.750000
vt 0.375000 0.750000
vt 0.375000 0.681346
vt 0.625000 0.681346
vt 0.625000 1.000000
vt 0.375000 1.000000
vt 0.625000 0.068654
vt 0.625000 0.000000
vt 0.875000 0.000000
vt 0.875000 0.068654
vt 0.125000 0.000000
vt 0.125000 0.068654
vt 0.625000 0.093191
vt 0.375000 0.093191
vt 0.125000 0.093191
vt 0.375000 0.656809
vt 0.625000 0.656809
vt 0.875000 0.093191
vt 0.625000 0.093191
vt 0.625000 0.120993
vt 0.375000 0.120993
vt 0.125000 0.120993
vt 0.375000 0.629007
vt 0.625000 0.629007
vt 0.875000 0.120993
vt 0.625000 0.120993
vt 0.375000 0.120993
vt 0.625000 0.120993
vt 0.625000 0.250000
vt 0.375000 0.250000
vt 0.125000 0.250000
vt 0.875000 0.250000
vt 0.625000 0.250000
vt 0.625000 0.120993
vt 0.375000 0.120993
vt 0.625000 0.250000
vt 0.375000 0.250000
vt 0.625000 0.000000
vt 0.875000 0.000000
vt 0.875000 0.000000
vt 0.625000 0.000000
vt 0.875000 0.000000
vt 0.875000 0.068654
vt 0.875000 0.093191
vt 0.875000 0.120993
vt 0.875000 0.250000
vt 0.375000 0.000000
vt 0.530230 0.000000
vt 0.530230 0.250000
vt 0.375000 0.250000
vt 0.530230 0.500000
vt 0.375000 0.500000
vt 0.530230 0.750000
vt 0.375000 0.750000
vt 0.530230 1.000000
vt 0.375000 1.000000
vt 0.625000 0.000000
vt 0.875000 0.000000
vt 0.875000 0.250000
vt 0.625000 0.250000
vt 0.125000 0.000000
vt 0.125000 0.250000
vt 0.625000 0.500000
vt 0.625000 0.750000
vt 0.625000 1.000000
vt 0.625000 0.000000
vt 0.530230 0.000000
vt 0.625000 0.250000
vt 0.530230 0.250000
vt 0.530230 0.500000
vt 0.530230 0.750000
vt 0.625000 0.500000
vt 0.625000 0.750000
vt 0.375000 0.000000
vt 0.625000 0.000000
vt 0.625000 0.068654
vt 0.375000 0.068654
vt 0.375000 0.250000
vt 0.625000 0.250000
vt 0.625000 0.500000
vt 0.375000 0.500000
vt 0.625000 0.750000
vt 0.375000 0.750000
vt 0.375000 0.681346
vt 0.625000 0.681346
vt 0.625000 1.000000
vt 0.375000 1.000000
vt 0.625000 0.068654
vt 0.625000 0.000000
vt 0.875000 0.000000
vt 0.875000 0.068654
vt 0.125000 0.000000
vt 0.125000 0.068654
vt 0.625000 0.093191
vt 0.375000 0.093191
vt 0.125000 0.093191
vt 0.375000 0.656809
vt 0.625000 0.656809
vt 0.875000 0.093191
vt 0.625000 0.093191
vt 0.625000 0.120993
vt 0.375000 0.120993
vt 0.125000 0.120993
vt 0.375000 0.629007
vt 0.625000 0.629007
vt 0.875000 0.120993
vt 0.625000 0.120993
vt 0.375000 0.120993
vt 0.625000 0.120993
vt 0.625000 0.250000
vt 0.375000 0.250000
vt 0.125000 0.250000
vt 0.875000 0.250000
vt 0.625000 0.250000
vt 0.625000 0.120993
vt 0.375000 0.120993
vt 0.625000 0.250000
vt 0.375000 0.250000
vt 0.625000 0.000000
vt 0.875000 0.000000
vt 0.875000 0.000000
vt 0.625000 0.000000
vt 0.875000 0.000000
vt 0.875000 0.068654
vt 0.875000 0.093191
vt 0.875000 0.120993
vt 0.875000 0.250000
vt 0.375000 0.000000
vt 0.625000 0.000000
vt 0.625000 0.250000
vt 0.375000 0.250000
vt 0.625000 0.500000
vt 0.375000 0.500000
vt 0.625000 0.750000
vt 0.375000 0.750000
vt 0.625000 1.000000
vt 0.375000 1.000000
vt 0.875000 0.000000
vt 0.875000 0.250000
vt 0.125000 0.000000
vt 0.125000 0.250000
vt 0.375000 0.000000
vt 0.625000 0.000000
vt 0.625000 0.250000
vt 0.375000 0.250000
vt 0.625000 0.500000
vt 0.375000 0.500000
vt 0.625000 0.750000
vt 0.375000 0.750000
vt 0.625000 1.000000
vt 0.375000 1.000000
vt 0.625000 0.000000
vt 0.875000 0.000000
vt 0.875000 0.250000
vt 0.625000 0.250000
vt 0.125000 0.000000
vt 0.125000 0.250000
vt 0.875000 0.000000
vt 0.875000 0.000000
vt 0.625000 0.000000
vt 0.875000 0.250000
vt 0.875000 0.250000
vt 0.625000 0.250000
vt 0.375000 0.000000
vt 0.625000 0.000000
vt 0.625000 0.250000
vt 0.375000 0.250000
vt 0.625000 0.500000
vt 0.375000 0.500000
vt 0.625000 0.750000
vt 0.375000 0.750000
vt 0.625000 1.000000
vt 0.375000 1.000000
vt 0.875000 0.000000
vt 0.875000 0.250000
vt 0.125000 0.000000
vt 0.125000 0.250000
vt 0.375000 0.000000
vt 0.625000 0.000000
vt 0.625000 0.250000
vt 0.375000 0.250000
vt 0.625000 0.500000
vt 0.375000 0.500000
vt 0.625000 0.750000
vt 0.375000 0.750000
vt 0.625000 1.000000
vt 0.375000 1.000000
vt 0.875000 0.000000
vt 0.875000 0.250000
vt 0.125000 0.000000
vt 0.125000 0.250000
vt 0.375000 0.000000
vt 0.625000 0.000000
vt 0.625000 0.250000
vt 0.375000 0.250000
vt 0.625000 0.500000
vt 0.375000 0.500000
vt 0.625000 0.750000
vt 0.375000 0.750000
vt 0.625000 1.000000
vt 0.375000 1.000000
vt 0.875000 0.000000
vt 0.875000 0.250000
vt 0.125000 0.000000
vt 0.125000 0.250000
vt 0.375000 0.000000
vt 0.625000 0.000000
vt 0.625000 0.078935
vt 0.375000 0.078935
vt 0.375000 0.250000
vt 0.625000 0.250000
vt 0.625000 0.500000
vt 0.375000 0.500000
vt 0.375000 0.671065
vt 0.625000 0.671065
vt 0.625000 0.750000
vt 0.375000 0.750000
vt 0.625000 1.000000
vt 0.375000 1.000000
vt 0.875000 0.000000
vt 0.875000 0.078935
vt 0.125000 0.000000
vt 0.125000 0.078935
vt 0.375000 0.078935
vt 0.625000 0.078935
vt 0.625000 0.250000
vt 0.375000 0.250000
vt 0.125000 0.250000
vt 0.625000 0.078935
vt 0.875000 0.078935
vt 0.875000 0.250000
vt 0.625000 0.250000
vt 0.875000 0.250000
vt 0.625000 0.078935
vt 0.375000 0.078935
vt 0.625000 0.250000
vt 0.375000 0.250000
vt 0.000000 0.000000
vt 1.000000 0.000000
vt 1.000000 1.000000
vt 0.000000 1.000000
vt 0.000000 0.000000
vt 1.000000 0.000000
vt 1.000000 1.000000
vt 0.000000 1.000000
vt 0.000000 0.000000
vt 1.000000 0.000000
vt 1.000000 1.000000
vt 0.000000 1.000000
vt 0.000000 0.000000
vt 1.000000 0.000000
vt 1.000000 1.000000
vt 0.000000 1.000000
vn 0.254231 -0.155844 0.954505
vn 0.254231 -0.155844 0.954505
vn 0.255129 -0.131800 0.957882
vn 0.255127 -0.131857 0.957875
vn 0.000000 1.000000 -0.000001
vn 0.000000 1.000000 -0.000001
vn 0.000000 1.000000 -0.000001
vn 0.000000 1.000000 -0.000001
vn -0.257367 0.000000 -0.966314
vn -0.257367 0.000000 -0.966314
vn -0.257367 0.000000 -0.966314
vn -0.257367 0.000000 -0.966314
vn -0.010928 -0.999098 -0.041028
vn -0.010928 -0.999098 -0.041028
vn -0.010928 -0.999098 -0.041028
vn -0.010928 -0.999098 -0.041028
vn 0.962945 -0.000008 -0.269700
vn 0.962945 -0.000008 -0.269700
vn 0.962943 -0.000008 -0.269704
vn 0.962943 -0.000008 -0.269705
vn -0.962945 0.000008 0.269700
vn -0.962944 0.000008 0.269700
vn -0.962943 0.000008 0.269705
vn -0.962943 0.000008 0.269705
vn -0.962942 0.000007 0.269710
vn -0.962942 0.000007 0.269710
vn -0.257359 0.006427 -0.966295
vn -0.257359 0.006427 -0.966295
vn -0.257359 0.006427 -0.966295
vn -0.257359 0.006427 -0.966295
vn 0.962942 -0.000007 -0.269710
vn 0.962942 -0.000007 -0.269710
vn 0.256069 -0.100541 0.961416
vn 0.256069 -0.100541 0.961416
vn 0.000000 1.000000 0.000000
vn 0.000000 1.000000 0.000000
vn 0.000000 1.000000 0.000000
vn 0.000000 1.000000 0.000000
vn 0.962916 -0.000000 -0.269801
vn 0.962916 -0.000000 -0.269801
vn 0.962916 -0.000000 -0.269801
vn 0.962916 -0.000000 -0.269801
vn 0.000000 -1.000000 0.000000
vn 0.000000 -1.000000 0.000000
vn 0.000000 -1.000000 0.000000
vn 0.000000 -1.000000 0.000000
vn -0.962916 0.000000 0.269801
vn -0.962916 0.000000 0.269801
vn -0.962916 0.000000 0.269801
vn -0.962916 0.000000 0.269801
vn 0.257370 0.000000 0.966313
vn 0.257370 0.000000 0.966313
vn 0.257370 0.000000 0.966313
vn 0.257370 0.000000 0.966313
vn 0.962916 0.000002 -0.269801
vn 0.962916 0.000002 -0.269801
vn 0.962916 0.000001 -0.269801
vn 0.962916 0.000001 -0.269801
vn -0.250235 -0.233761 -0.939541
vn -0.250235 -0.233761 -0.939541
vn -0.250236 -0.233760 -0.939542
vn -0.250236 -0.233760 -0.939542
vn -0.962916 0.000001 0.269801
vn -0.962916 0.000001 0.269801
vn -0.962916 0.000000 0.269801
vn -0.962916 -0.000000 0.269801
vn -0.962916 -0.000001 0.269801
vn -0.962916 -0.000001 0.269801
vn -0.250236 -0.233759 -0.939542
vn -0.250236 -0.233759 -0.939542
vn 0.962916 0.000000 -0.269801
vn 0.962916 0.000000 -0.269801
vn 0.257369 0.000000 0.966313
vn 0.257369 0.000000 0.966313
vn 0.257369 0.000000 0.966313
vn 0.257369 0.000000 0.966313
vn 0.000000 -1.000000 0.000000
vn 0.000000 -1.000000 0.000000
vn 0.000000 -1.000000 0.000000
vn 0.000000 -1.000000 0.000000
vn 0.962916 0.000000 -0.269801
vn 0.962916 0.000000 -0.269801
vn 0.962916 0.000000 -0.269801
vn 0.962916 0.000000 -0.269801
vn 0.000000 1.000000 0.000000
vn 0.000000 1.000000 0.000000
vn 0.000000 1.000000 0.000000
vn 0.000000 1.000000 0.000000
vn -0.962916 0.000000 0.269801
vn -0.962916 0.000000 0.269801
vn -0.962916 0.000000 0.269801
vn -0.962916 0.000000 0.269801
vn 0.011155 -0.241294 0.970388
vn 0.011155 -0.241294 0.970388
vn 0.011155 -0.241294 0.970388
vn 0.011155 -0.241294 0.970388
vn -0.400414 0.906192 0.135962
vn -0.400414 0.906192 0.135962
vn -0.400414 0.906192 0.135962
vn -0.400414 0.906192 0.135962
vn -0.227058 0.064041 -0.971773
vn -0.227058 0.064041 -0.971774
vn -0.227058 0.064041 -0.971774
vn -0.227058 0.064041 -0.971773
vn 0.393400 -0.909618 -0.133538
vn 0.393400 -0.909618 -0.133538
vn 0.393400 -0.909618 -0.133538
vn 0.393400 -0.909618 -0.133538
vn 0.778288 -0.627894 -0.004209
vn 0.778288 -0.627894 -0.004209
vn 0.778287 -0.627894 -0.004209
vn 0.778288 -0.627894 -0.004209
vn -0.461761 -0.865597 0.193699
vn -0.461761 -0.865597 0.193699
vn -0.461761 -0.865597 0.193699
vn -0.461761 -0.865597 0.193699
vn 0.021035 -0.999291 -0.031216
vn 0.021035 -0.999291 -0.031216
vn 0.021035 -0.999291 -0.031216
vn 0.021035 -0.999291 -0.031216
vn -0.107791 0.035304 -0.993547
vn -0.107791 0.035304 -0.993547
vn -0.169656 0.023571 -0.985222
vn -0.311746 -0.004257 -0.950156
vn -0.021035 0.999291 0.031217
vn -0.021035 0.999291 0.031217
vn -0.021035 0.999291 0.031217
vn -0.021035 0.999291 0.031217
vn 0.281976 0.027428 0.959029
vn 0.281976 0.027428 0.959029
vn 0.237530 0.041887 0.970477
vn 0.268410 0.031871 0.962777
vn -0.687093 -0.720090 0.096820
vn -0.687093 -0.720090 0.096820
vn -0.687093 -0.720090 0.096820
vn -0.687093 -0.720090 0.096820
vn -0.434581 -0.029404 -0.900153
vn -0.434581 -0.029404 -0.900153
vn 0.639964 0.763127 -0.089910
vn 0.639964 0.763127 -0.089910
vn 0.639964 0.763127 -0.089910
vn 0.639964 0.763127 -0.089910
vn 0.214342 0.049323 0.975513
vn 0.214342 0.049323 0.975513
vn -0.829379 -0.550081 0.097674
vn -0.829379 -0.550081 0.097674
vn -0.829379 -0.550081 0.097674
vn -0.829380 -0.550081 0.097674
vn 0.107533 -0.307736 -0.945376
vn 0.107533 -0.307736 -0.945376
vn 0.107533 -0.307736 -0.945376
vn 0.107533 -0.307736 -0.945376
vn 0.817223 0.567975 -0.097731
vn 0.817223 0.567975 -0.097731
vn 0.817223 0.567975 -0.097731
vn 0.817223 0.567975 -0.097731
vn -0.199880 0.360261 0.911186
vn -0.199880 0.360261 0.911186
vn -0.199880 0.360261 0.911186
vn -0.199880 0.360261 0.911186
vn 0.064305 0.000567 0.997930
vn 0.064305 0.000567 0.997930
vn 0.064305 0.000567 0.997930
vn 0.064305 0.000567 0.997930
vn -0.981412 -0.180711 0.064606
vn -0.981412 -0.180711 0.064606
vn -0.981412 -0.180711 0.064606
vn -0.981412 -0.180711 0.064606
vn -0.064306 -0.000567 -0.997930
vn -0.064306 -0.000567 -0.997930
vn -0.064306 -0.000567 -0.997930
vn -0.064306 -0.000567 -0.997930
vn 0.981412 0.180711 -0.064604
vn 0.981412 0.180711 -0.064604
vn 0.981412 0.180711 -0.064604
vn 0.981412 0.180711 -0.064604
vn -0.181814 0.979562 0.086040
vn -0.181814 0.979562 0.086040
vn -0.181814 0.979562 0.086040
vn -0.181814 0.979562 0.086040
vn 0.181815 -0.979563 -0.086026
vn 0.181815 -0.979563 -0.086026
vn 0.181815 -0.979563 -0.086026
vn 0.181815 -0.979563 -0.086026
vn 0.229125 0.000019 0.973397
vn 0.229125 0.000019 0.973397
vn 0.229125 0.000019 0.973397
vn 0.229125 0.000019 0.973397
vn 0.000000 1.000000 0.000000
vn 0.000000 1.000000 0.000000
vn 0.000000 1.000000 0.000000
vn 0.000000 1.000000 0.000000
vn -0.229125 -0.000018 -0.973397
vn -0.229125 -0.000018 -0.973397
vn -0.229125 -0.000018 -0.973397
vn -0.229125 -0.000018 -0.973397
vn -0.000000 -1.000000 0.000000
vn -0.000000 -1.000000 0.000000
vn -0.000000 -1.000000 0.000000
vn -0.000000 -1.000000 0.000000
vn 0.859235 -0.482065 -0.171259
vn 0.859235 -0.482065 -0.171259
vn 0.859234 -0.482065 -0.171259
vn 0.859234 -0.482065 -0.171259
vn -0.980709 0.000000 0.195471
vn -0.980709 0.000000 0.195471
vn -0.980709 0.000000 0.195471
vn -0.980709 0.000000 0.195471
vn 0.272073 -0.000017 0.962277
vn 0.272073 -0.000017 0.962277
vn 0.272073 -0.000017 0.962277
vn 0.272073 -0.000017 0.962277
vn 0.006829 0.999953 0.006841
vn 0.006829 0.999953 0.006841
vn 0.006829 0.999953 0.006841
vn 0.006829 0.999953 0.006841
vn -0.272073 0.000017 -0.962277
vn -0.272073 0.000017 -0.962277
vn -0.272073 0.000017 -0.962277
vn -0.272073 0.000017 -0.962277
vn 0.002157 -0.999957 -0.009071
vn 0.002157 -0.999957 -0.009071
vn 0.002157 -0.999957 -0.009071
vn 0.002157 -0.999957 -0.009071
vn 0.852937 0.479921 -0.205363
vn 0.852937 0.479921 -0.205363
vn 0.852937 0.479921 -0.205363
vn 0.852937 0.479921 -0.205363
vn -0.971075 0.000000 0.238775
vn -0.971075 0.000000 0.238775
vn -0.971075 0.000000 0.238775
vn -0.971075 0.000000 0.238775
vn -0.988047 0.049856 0.145868
vn -0.986606 0.051565 -0.154754
vn -0.996766 0.051534 -0.061656
vn -0.988047 0.049856 0.145868
vn 0.238920 0.787566 0.568029
vn 0.238920 0.787566 0.568029
vn 0.238920 0.787566 0.568029
vn 0.238920 0.787566 0.568029
vn 0.982516 -0.049304 -0.179529
vn 0.985460 -0.049188 -0.162631
vn 0.986986 -0.049117 -0.153124
vn 0.982516 -0.049304 -0.179529
vn -0.238920 -0.787566 -0.568029
vn -0.238920 -0.787566 -0.568029
vn -0.238920 -0.787566 -0.568029
vn -0.238920 -0.787566 -0.568029
vn -0.525302 0.019551 0.850691
vn -0.525302 0.019551 0.850691
vn -0.525302 0.019551 0.850691
vn -0.525302 0.019551 0.850691
vn -0.235392 0.019819 -0.971698
vn -0.235392 0.019819 -0.971698
vn -0.235392 0.019819 -0.971698
vn -0.235392 0.019819 -0.971698
vn -0.158536 -0.982779 -0.094933
vn -0.158536 -0.982779 -0.094933
vn -0.158536 -0.982779 -0.094933
vn -0.158536 -0.982779 -0.094933
vn 0.988597 -0.049031 -0.142380
vn 0.988597 -0.049031 -0.142380
vn 0.158542 0.982775 0.094962
vn 0.158542 0.982775 0.094962
vn 0.158542 0.982775 0.094962
vn 0.158542 0.982775 0.094962
vn -0.949513 0.050579 -0.309622
vn -0.949514 0.050579 -0.309622
vn -0.144533 -0.984504 0.099305
vn -0.144533 -0.984504 0.099305
vn -0.144533 -0.984504 0.099305
vn -0.144533 -0.984504 0.099305
vn 0.998723 -0.049847 0.008199
vn 0.998723 -0.049847 0.008199
vn 0.998723 -0.049847 0.008199
vn 0.998723 -0.049847 0.008199
vn 0.144532 0.984505 -0.099305
vn 0.144532 0.984505 -0.099305
vn 0.144532 0.984505 -0.099305
vn 0.144532 0.984505 -0.099305
vn -0.997659 0.050069 -0.046584
vn -0.997659 0.050069 -0.046584
vn -0.997659 0.050069 -0.046584
vn -0.997659 0.050069 -0.046584
vn -0.000420 0.002244 0.999997
vn -0.000420 0.002244 0.999997
vn -0.000420 0.002244 0.999997
vn -0.000420 0.002244 0.999997
vn -1.000000 -0.000000 0.000319
vn -1.000000 -0.000000 0.000319
vn -1.000000 -0.000000 0.000319
vn -1.000000 -0.000000 0.000319
vn 0.000421 -0.002244 -0.999997
vn 0.000421 -0.002244 -0.999997
vn 0.000421 -0.002244 -0.999997
vn 0.000421 -0.002244 -0.999997
vn 1.000000 0.000000 -0.000318
vn 1.000000 0.000000 -0.000318
vn 1.000000 0.000000 -0.000318
vn 1.000000 0.000000 -0.000318
vn -0.000013 0.999557 0.029778
vn -0.000013 0.999557 0.029778
vn -0.000013 0.999557 0.029778
vn -0.000013 0.999557 0.029778
vn 0.000013 -0.999557 -0.029764
vn 0.000013 -0.999557 -0.029764
vn 0.000013 -0.999557 -0.029764
vn 0.000013 -0.999557 -0.029764
vn 0.079406 -0.093446 0.992453
vn 0.079406 -0.093446 0.992453
vn 0.079406 -0.093446 0.992453
vn 0.079406 -0.093446 0.992453
vn -0.660721 0.725752 0.191655
vn -0.660721 0.725752 0.191655
vn -0.660721 0.725752 0.191655
vn -0.660721 0.725752 0.191655
vn -0.133951 0.040877 -0.990145
vn -0.133951 0.040877 -0.990145
vn -0.133951 0.040877 -0.990145
vn -0.133951 0.040877 -0.990145
vn 0.664895 -0.721650 -0.192708
vn 0.664895 -0.721650 -0.192708
vn 0.664895 -0.721650 -0.192708
vn 0.664895 -0.721650 -0.192708
vn 0.781265 -0.620470 0.068126
vn 0.781265 -0.620470 0.068126
vn 0.781265 -0.620470 0.068126
vn 0.781265 -0.620470 0.068126
vn -0.431879 -0.889515 0.149146
vn -0.431879 -0.889515 0.149146
vn -0.431879 -0.889515 0.149146
vn -0.431879 -0.889515 0.149146
vn -0.109087 -0.993389 -0.035756
vn -0.109087 -0.993389 -0.035756
vn -0.109087 -0.993389 -0.035756
vn -0.109087 -0.993389 -0.035756
vn -0.317137 -0.006595 -0.948357
vn -0.317137 -0.006595 -0.948357
vn -0.270228 0.048234 -0.961587
vn -0.247295 0.074348 -0.966084
vn 0.109087 0.993389 0.035756
vn 0.109087 0.993389 0.035756
vn 0.109087 0.993389 0.035756
vn 0.109087 0.993389 0.035756
vn 0.042736 -0.110595 0.992946
vn 0.042736 -0.110595 0.992946
vn -0.101070 -0.108280 0.988969
vn -0.059201 -0.109190 0.992257
vn 0.285940 -0.953765 -0.092576
vn 0.285940 -0.953765 -0.092576
vn 0.285940 -0.953765 -0.092576
vn 0.285940 -0.953765 -0.092576
vn -0.205849 0.120464 -0.971141
vn -0.205849 0.120464 -0.971141
vn -0.246462 0.965270 0.086667
vn -0.246462 0.965270 0.086667
vn -0.246462 0.965270 0.086667
vn -0.246462 0.965270 0.086667
vn -0.179506 -0.106045 0.978025
vn -0.179506 -0.106045 0.978025
vn -0.803522 -0.594320 0.033702
vn -0.803522 -0.594320 0.033702
vn -0.803522 -0.594320 0.033702
vn -0.803522 -0.594320 0.033702
vn 0.552761 -0.268558 -0.788880
vn 0.552761 -0.268558 -0.788880
vn 0.552761 -0.268558 -0.788880
vn 0.552761 -0.268558 -0.788880
vn 0.794875 0.605893 -0.032658
vn 0.794875 0.605893 -0.032658
vn 0.794875 0.605894 -0.032658
vn 0.794875 0.605893 -0.032658
vn -0.045044 -0.081343 0.995668
vn -0.045044 -0.081343 0.995668
vn -0.045044 -0.081343 0.995668
vn -0.045044 -0.081343 0.995668
vn -0.000420 0.002244 0.999997
vn -0.000420 0.002244 0.999997
vn -0.000420 0.002244 0.999997
vn -0.000420 0.002244 0.999997
vn -1.000000 0.000000 0.000320
vn -1.000000 0.000000 0.000320
vn -1.000000 0.000000 0.000320
vn -1.000000 0.000000 0.000320
vn 0.000420 -0.002244 -0.999997
vn 0.000420 -0.002244 -0.999997
vn 0.000420 -0.002244 -0.999997
vn 0.000420 -0.002244 -0.999997
vn 1.000000 0.000000 -0.000317
vn 1.000000 0.000000 -0.000317
vn 1.000000 0.000000 -0.000317
vn 1.000000 0.000000 -0.000317
vn -0.000013 0.999557 0.029778
vn -0.000013 0.999557 0.029778
vn -0.000013 0.999557 0.029778
vn -0.000013 0.999557 0.029778
vn 0.000012 -0.999557 -0.029764
vn 0.000012 -0.999557 -0.029764
vn 0.000012 -0.999557 -0.029764
vn 0.000012 -0.999557 -0.029764
vn 0.202514 -0.016972 0.979132
vn -0.094188 0.028747 0.995139
vn -0.001727 0.014640 0.999891
vn 0.202514 -0.016972 0.979132
vn 0.665572 0.706081 -0.241792
vn 0.665572 0.706081 -0.241792
vn 0.665572 0.706081 -0.241792
vn 0.665572 0.706081 -0.241792
vn -0.235390 0.022189 -0.971648
vn -0.218836 0.019965 -0.975557
vn -0.209516 0.018715 -0.977626
vn -0.235390 0.022189 -0.971648
vn -0.665572 -0.706082 0.241792
vn -0.665572 -0.706082 0.241792
vn -0.665572 -0.706082 0.241792
vn -0.665572 -0.706082 0.241792
vn 0.870158 -0.128947 0.475603
vn 0.870158 -0.128947 0.475603
vn 0.870158 -0.128947 0.475603
vn 0.870158 -0.128947 0.475603
vn -0.944504 0.150967 0.291754
vn -0.944505 0.150967 0.291754
vn -0.944504 0.150967 0.291754
vn -0.944504 0.150967 0.291754
vn -0.231504 -0.964514 0.126959
vn -0.231504 -0.964514 0.126959
vn -0.231504 -0.964514 0.126959
vn -0.231504 -0.964514 0.126959
vn -0.198976 0.017302 -0.979852
vn -0.198976 0.017302 -0.979852
vn 0.231532 0.964506 -0.126967
vn 0.231532 0.964506 -0.126967
vn 0.231532 0.964506 -0.126967
vn 0.231532 0.964506 -0.126967
vn -0.249192 0.052108 0.967051
vn -0.249192 0.052108 0.967051
vn -0.040662 -0.993984 0.101694
vn -0.040662 -0.993984 0.101694
vn -0.040662 -0.993984 0.101694
vn -0.040662 -0.993984 0.101694
vn -0.050912 -0.005043 -0.998690
vn -0.050912 -0.005043 -0.998690
vn -0.050912 -0.005043 -0.998690
vn -0.050912 -0.005043 -0.998690
vn 0.040662 0.993985 -0.101693
vn 0.040662 0.993985 -0.101693
vn 0.040662 0.993985 -0.101693
vn 0.040662 0.993985 -0.101693
vn 0.012986 0.010949 0.999856
vn 0.012986 0.010949 0.999856
vn 0.012986 0.010949 0.999856
vn 0.012986 0.010949 0.999856
vn 0.967061 -0.254487 -0.005376
vn 0.967061 -0.254487 -0.005376
vn 0.988720 -0.149728 -0.003679
vn 0.970434 -0.241311 -0.005164
vn 0.000411 0.999103 -0.042337
vn 0.000411 0.999103 -0.042337
vn 0.000411 0.999103 -0.042337
vn 0.000411 0.999103 -0.042337
vn -0.999999 -0.000035 0.001239
vn -0.999999 -0.000035 0.001239
vn -0.999999 -0.000040 0.001239
vn -0.999999 -0.000078 0.001234
vn 0.000026 -0.999998 -0.001844
vn 0.000026 -0.999998 -0.001844
vn 0.000026 -0.999998 -0.001844
vn 0.000026 -0.999998 -0.001844
vn 0.140482 -0.030972 -0.989599
vn 0.146135 -0.058143 -0.987555
vn 0.146134 -0.058143 -0.987555
vn 0.140871 -0.032828 -0.989484
vn -0.009419 0.795044 0.606479
vn -0.009419 0.795044 0.606479
vn -0.008970 0.936534 0.350462
vn -0.008999 0.932831 0.360201
vn 0.999999 -0.000002 -0.001232
vn 0.999999 0.000012 -0.001231
vn -0.011449 0.015167 0.999819
vn -0.011480 0.020572 0.999722
vn -0.999999 -0.000012 0.001231
vn -0.999999 0.000003 0.001232
vn 0.134062 -0.000690 -0.990973
vn 0.134062 -0.000690 -0.990973
vn 0.999999 -0.000059 -0.001234
vn 0.999999 -0.000059 -0.001234
vn -0.007777 -0.307290 0.951584
vn -0.007760 -0.309519 0.950862
vn -0.999999 0.000004 0.001238
vn -0.999999 0.000011 0.001237
vn 0.134061 -0.000691 -0.990973
vn 0.134061 -0.000691 -0.990973
vn 1.000000 0.000002 -0.000981
vn 1.000000 0.000002 -0.000981
vn 1.000000 0.000002 -0.000981
vn 1.000000 0.000002 -0.000981
vn -0.009709 0.017084 0.999807
vn -0.009709 0.017084 0.999807
vn -0.999999 -0.000003 0.001238
vn -0.999999 -0.000003 0.001238
vn 0.134061 -0.000691 -0.990973
vn 0.134061 -0.000691 -0.990973
vn 0.999997 -0.001942 -0.001209
vn 0.999997 -0.001942 -0.001209
vn 0.999997 -0.001942 -0.001209
vn 0.999997 -0.001942 -0.001209
vn 0.999998 -0.000073 -0.002027
vn 0.999998 -0.000073 -0.002027
vn 0.999998 -0.000073 -0.002027
vn 0.999998 -0.000073 -0.002027
vn 0.999998 0.001698 -0.001269
vn 0.999998 0.001698 -0.001269
vn 0.999998 0.001698 -0.001269
vn 0.999998 0.001698 -0.001269
vn 1.000000 0.000026 -0.001015
vn 1.000000 0.000026 -0.001015
vn 1.000000 0.000026 -0.001015
vn 1.000000 0.000026 -0.001015
vn 0.799706 0.599530 0.032154
vn 0.799706 0.599530 0.032154
vn 0.799706 0.599530 0.032154
vn 0.799706 0.599530 0.032154
vn 0.746730 0.065575 0.661887
vn 0.746730 0.065575 0.661887
vn 0.746730 0.065575 0.661887
vn 0.746730 0.065575 0.661887
vn 0.812056 -0.583553 -0.005513
vn 0.812056 -0.583553 -0.005513
vn 0.812057 -0.583553 -0.005513
vn 0.812056 -0.583553 -0.005513
vn 0.780387 0.006181 -0.625266
vn 0.780387 0.006181 -0.625266
vn 0.780387 0.006181 -0.625266
vn 0.780387 0.006181 -0.625266
vn 0.882980 -0.156181 0.442666
vn 0.882980 -0.156181 0.442666
vn 0.882980 -0.156181 0.442666
vn 0.882980 -0.156181 0.442666
vn -0.000566 -0.999995 0.003101
vn -0.000566 -0.999995 0.003101
vn -0.000566 -0.999995 0.003101
vn -0.000566 -0.999995 0.003101
vn -0.999999 0.000006 0.001309
vn -0.999999 0.000006 0.001309
vn -0.999999 0.000006 0.001309
vn -0.999999 0.000006 0.001309
vn -0.999999 -0.000004 0.001308
vn -0.999999 -0.000004 0.001308
vn -0.999999 -0.000004 0.001308
vn -0.999999 -0.000004 0.001308
vn 0.887608 0.009822 0.460496
vn 0.887607 0.009822 0.460496
vn 0.887607 0.009822 0.460496
vn 0.887607 0.009822 0.460496
vn -0.999999 0.000000 0.001308
vn -0.999999 0.000000 0.001308
vn -0.999999 0.000000 0.001308
vn -0.999999 0.000000 0.001308
vn 0.881350 0.010079 0.472356
vn 0.881350 0.010079 0.472356
vn 0.881350 0.010079 0.472356
vn 0.881350 0.010079 0.472356
vn -0.999999 0.000000 0.001309
vn -0.999999 0.000000 0.001309
vn -0.999999 0.000000 0.001309
vn -0.999999 0.000000 0.001309
vn -0.000205 0.999991 0.004150
vn -0.000205 0.999991 0.004150
vn -0.000205 0.999991 0.004150
vn -0.000205 0.999991 0.004150
vn 0.859408 0.010903 0.511175
vn 0.859408 0.010903 0.511174
vn 0.859408 0.010903 0.511174
vn 0.859408 0.010903 0.511175
vn -0.014296 0.000000 0.999898
vn -0.014296 0.000000 0.999898
vn -0.014296 0.000000 0.999898
vn -0.014296 0.000000 0.999898
vn -0.999999 0.000000 0.001310
vn -0.999999 0.000000 0.001310
vn -0.999999 0.000000 0.001310
vn -0.999999 0.000000 0.001310
vn 0.161185 0.000000 -0.986924
vn 0.161185 0.000000 -0.986924
vn 0.161185 0.000000 -0.986924
vn 0.161185 0.000000 -0.986924
vn 0.897616 0.000000 0.440779
vn 0.897616 0.000000 0.440779
vn 0.897616 0.000000 0.440779
vn 0.897616 0.000000 0.440779
vn 0.148398 0.000000 0.988928
vn 0.148398 0.000000 0.988928
vn 0.148398 0.000000 0.988928
vn 0.148398 0.000000 0.988928
vn 0.000000 1.000000 -0.000000
vn 0.000000 1.000000 0.000000
vn 0.000000 1.000000 0.000000
vn 0.000000 1.000000 -0.000000
vn -0.148398 0.000000 -0.988928
vn -0.148398 0.000000 -0.988928
vn -0.148398 0.000000 -0.988928
vn -0.148398 0.000000 -0.988928
vn 0.000000 -1.000000 0.000000
vn 0.000000 -1.000000 0.000000
vn 0.000000 -1.000000 0.000000
vn 0.000000 -1.000000 0.000000
vn 0.992641 0.000000 -0.121094
vn 0.992641 0.000000 -0.121094
vn 0.992641 0.000000 -0.121094
vn 0.992641 0.000000 -0.121094
vn -0.992642 0.000000 0.121089
vn -0.992642 0.000000 0.121089
vn -0.992642 0.000000 0.121089
vn -0.992642 0.000000 0.121089
vn 0.000000 1.000000 0.000000
vn 0.000000 1.000000 0.000000
vn 0.000000 -1.000000 -0.000000
vn 0.000000 -1.000000 -0.000000
vn 0.060345 0.885698 0.460323
vn 0.060345 0.885698 0.460323
vn 0.060345 0.885698 0.460323
vn 0.060345 0.885698 0.460323
vn -0.270834 -0.093291 0.958095
vn -0.270834 -0.093291 0.958095
vn -0.270834 -0.093291 0.958095
vn -0.270834 -0.093291 0.958095
vn 0.143408 -0.759958 0.633954
vn 0.143408 -0.759958 0.633954
vn 0.143408 -0.759958 0.633954
vn 0.143408 -0.759959 0.633954
vn 0.915801 -0.099978 0.388990
vn 0.915801 -0.099978 0.388990
vn 0.915801 -0.099978 0.388990
vn 0.915801 -0.099978 0.388990
vn 0.807653 0.077717 -0.584513
vn 0.807653 0.077717 -0.584513
vn 0.807653 0.077717 -0.584513
vn 0.807653 0.077717 -0.584513
vn -0.142012 -0.673714 -0.725218
vn -0.142012 -0.673714 -0.725218
vn -0.142012 -0.673714 -0.725218
vn -0.142012 -0.673714 -0.725218
vn -0.207126 -0.013954 -0.978215
vn -0.207126 -0.013954 -0.978215
vn -0.207126 -0.013954 -0.978215
vn -0.207126 -0.013954 -0.978215
vn -0.146076 0.248587 -0.957531
vn -0.146076 0.248587 -0.957532
vn -0.146076 0.248587 -0.957531
vn -0.146076 0.248587 -0.957531
vn 0.150446 -0.255869 0.954933
vn 0.150446 -0.255869 0.954933
vn 0.150884 -0.156746 0.976045
vn 0.150567 -0.245325 0.957677
vn 0.070009 0.997499 -0.009735
vn 0.070009 0.997499 -0.009735
vn 0.070009 0.997499 -0.009735
vn 0.070009 0.997499 -0.009735
vn -0.148528 -0.000063 -0.988908
vn -0.148528 -0.000063 -0.988908
vn -0.148526 -0.000071 -0.988909
vn -0.148512 -0.000139 -0.988911
vn 0.002972 -0.999996 -0.000399
vn 0.002972 -0.999996 -0.000399
vn 0.002972 -0.999996 -0.000399
vn 0.002972 -0.999996 -0.000399
vn 0.999497 -0.030971 -0.006866
vn 0.998308 -0.058143 -0.000974
vn 0.998308 -0.058143 -0.000974
vn 0.999440 -0.032827 -0.006464
vn -0.601250 0.795042 0.080048
vn -0.601250 0.795042 0.080048
vn -0.347960 0.936534 0.042768
vn -0.357597 0.932831 0.044174
vn 0.148505 -0.000010 0.988912
vn 0.148503 0.000023 0.988912
vn -0.990593 0.015166 0.135997
vn -0.990502 0.020571 0.135952
vn -0.148503 -0.000023 -0.988912
vn -0.148506 0.000010 -0.988912
vn 0.999910 -0.000689 -0.013420
vn 0.999910 -0.000689 -0.013420
vn 0.148511 -0.000103 0.988911
vn 0.148511 -0.000103 0.988911
vn -0.942343 -0.307290 0.132522
vn -0.941626 -0.309519 0.132432
vn -0.148524 0.000008 -0.988909
vn -0.148523 0.000019 -0.988909
vn 0.999910 -0.000691 -0.013419
vn 0.999910 -0.000691 -0.013419
vn 0.148319 0.000002 0.988940
vn 0.148319 0.000002 0.988940
vn 0.148319 0.000002 0.988940
vn 0.148319 0.000002 0.988940
vn -0.990324 0.017084 0.137717
vn -0.990324 0.017084 0.137717
vn -0.148526 -0.000003 -0.988909
vn -0.148526 -0.000003 -0.988909
vn 0.999910 -0.000691 -0.013419
vn 0.999910 -0.000691 -0.013419
vn 0.148462 -0.003844 0.988911
vn 0.148462 -0.003844 0.988911
vn 0.148462 -0.003844 0.988911
vn 0.148462 -0.003844 0.988911
vn 0.149987 -0.000110 0.988688
vn 0.149987 -0.000110 0.988688
vn 0.149987 -0.000110 0.988688
vn 0.149987 -0.000110 0.988688
vn 0.148551 0.001198 0.988904
vn 0.148551 0.001198 0.988904
vn 0.148551 0.001198 0.988904
vn 0.148551 0.001198 0.988904
vn 0.148120 0.000027 0.988969
vn 0.148120 0.000027 0.988969
vn 0.148120 0.000027 0.988969
vn 0.148120 0.000027 0.988969
vn 0.086033 0.599531 0.795714
vn 0.086033 0.599531 0.795714
vn 0.086033 0.599531 0.795714
vn 0.086033 0.599531 0.795714
vn -0.544639 0.065577 0.836103
vn -0.544639 0.065577 0.836103
vn -0.544639 0.065577 0.836103
vn -0.544639 0.065577 0.836103
vn 0.125109 -0.583559 0.802376
vn 0.125109 -0.583559 0.802376
vn 0.125109 -0.583559 0.802376
vn 0.125109 -0.583559 0.802376
vn 0.733427 0.006180 0.679740
vn 0.733427 0.006180 0.679740
vn 0.733427 0.006180 0.679740
vn 0.733427 0.006180 0.679740
vn -0.307729 -0.156180 0.938568
vn -0.307729 -0.156180 0.938568
vn -0.307729 -0.156180 0.938568
vn -0.307729 -0.156180 0.938568
vn -0.003151 -0.999995 -0.000102
vn -0.003151 -0.999995 -0.000102
vn -0.003151 -0.999995 -0.000102
vn -0.003151 -0.999995 -0.000102
vn -0.148642 0.000000 -0.988891
vn -0.148642 0.000000 -0.988891
vn -0.148642 0.000000 -0.988891
vn -0.148642 0.000000 -0.988891
vn -0.148642 0.000000 -0.988891
vn -0.148642 0.000000 -0.988891
vn -0.148642 0.000000 -0.988891
vn -0.148642 0.000000 -0.988891
vn -0.324683 0.009824 0.945772
vn -0.324683 0.009824 0.945772
vn -0.324683 0.009824 0.945772
vn -0.324683 0.009824 0.945772
vn -0.148642 -0.000000 -0.988891
vn -0.148642 -0.000000 -0.988891
vn -0.148642 -0.000000 -0.988891
vn -0.148642 -0.000000 -0.988891
vn -0.337335 0.010078 0.941331
vn -0.337335 0.010078 0.941331
vn -0.337335 0.010078 0.941331
vn -0.337335 0.010078 0.941331
vn -0.148642 0.000000 -0.988891
vn -0.148642 0.000000 -0.988891
vn -0.148642 0.000000 -0.988891
vn -0.148642 0.000000 -0.988891
vn -0.004135 0.999991 0.000409
vn -0.004135 0.999991 0.000409
vn -0.004135 0.999991 0.000409
vn -0.004135 0.999991 0.000409
vn -0.378963 0.010903 0.925348
vn -0.378963 0.010903 0.925348
vn -0.378963 0.010903 0.925348
vn -0.378963 0.010903 0.925348
vn -0.991090 0.000000 0.133193
vn -0.991090 0.000000 0.133193
vn -0.991090 0.000000 0.133193
vn -0.991090 0.000000 0.133193
vn -0.148642 0.000000 -0.988891
vn -0.148642 0.000000 -0.988891
vn -0.148642 0.000000 -0.988891
vn -0.148642 0.000000 -0.988891
vn 0.999902 0.000000 0.014001
vn 0.999902 0.000000 0.014001
vn 0.999902 0.000000 0.014001
vn 0.999902 0.000000 0.014001
vn -0.303705 0.000000 0.952766
vn -0.303705 0.000000 0.952766
vn -0.303705 0.000000 0.952766
vn -0.303705 0.000000 0.952766
vn -0.000425 -0.091709 0.995786
vn -0.000425 -0.091709 0.995786
vn -0.000425 -0.091709 0.995786
vn -0.000425 -0.091709 0.995786
vn -1.000000 0.000092 0.000325
vn -1.000000 0.000092 0.000325
vn -1.000000 0.000092 0.000325
vn -1.000000 0.000092 0.000325
vn 0.000426 0.091709 -0.995786
vn 0.000426 0.091709 -0.995786
vn 0.000426 0.091709 -0.995786
vn 0.000426 0.091709 -0.995786
vn 1.000000 -0.000093 -0.000323
vn 1.000000 -0.000093 -0.000323
vn 1.000000 -0.000093 -0.000323
vn 1.000000 -0.000093 -0.000323
vn 0.000110 0.992339 0.123548
vn 0.000110 0.992339 0.123548
vn 0.000110 0.992339 0.123548
vn 0.000110 0.992339 0.123548
vn -0.000111 -0.992340 -0.123534
vn -0.000111 -0.992340 -0.123534
vn -0.000111 -0.992340 -0.123534
vn -0.000111 -0.992340 -0.123534
vn -0.330990 0.049857 -0.942316
vn -0.035574 0.051573 -0.998035
vn -0.128906 0.051540 -0.990317
vn -0.330990 0.049857 -0.942316
vn -0.512268 0.787566 0.342520
vn -0.512268 0.787566 0.342520
vn -0.512268 0.787566 0.342520
vn -0.512268 0.787566 0.342520
vn 0.362988 -0.049304 0.930488
vn 0.346957 -0.049189 0.936590
vn 0.337913 -0.049117 0.939895
vn 0.362988 -0.049304 0.930488
vn 0.512269 -0.787566 -0.342521
vn 0.512269 -0.787566 -0.342521
vn 0.512269 -0.787566 -0.342521
vn 0.512269 -0.787566 -0.342521
vn -0.935022 0.019551 -0.354051
vn -0.935022 0.019551 -0.354051
vn -0.935022 0.019551 -0.354051
vn -0.935022 0.019551 -0.354051
vn 0.909251 0.019816 -0.415776
vn 0.909251 0.019816 -0.415777
vn 0.909251 0.019816 -0.415776
vn 0.909251 0.019816 -0.415777
vn 0.063073 -0.982779 -0.173688
vn 0.063073 -0.982779 -0.173688
vn 0.063073 -0.982779 -0.173688
vn 0.063073 -0.982779 -0.173688
vn 0.327671 -0.049031 0.943519
vn 0.327671 -0.049031 0.943519
vn -0.063100 0.982775 0.173700
vn -0.063100 0.982775 0.173700
vn -0.063100 0.982775 0.173700
vn -0.063100 0.982775 0.173700
vn 0.123521 0.050590 -0.991052
vn 0.123521 0.050590 -0.991052
vn -0.124964 -0.984504 -0.123025
vn -0.124964 -0.984504 -0.123025
vn -0.124964 -0.984504 -0.123025
vn -0.124964 -0.984504 -0.123025
vn 0.181761 -0.049829 0.982079
vn 0.181761 -0.049829 0.982079
vn 0.181761 -0.049829 0.982079
vn 0.181761 -0.049829 0.982079
vn 0.124964 0.984505 0.123024
vn 0.124964 0.984505 0.123024
vn 0.124964 0.984505 0.123024
vn 0.124964 0.984505 0.123024
vn -0.143873 0.050075 -0.988329
vn -0.143873 0.050075 -0.988328
vn -0.143873 0.050075 -0.988329
vn -0.143873 0.050075 -0.988328
vn 0.198353 -0.058109 0.978407
vn 0.198353 -0.058109 0.978407
vn 0.198353 -0.058109 0.978407
vn 0.198353 -0.058109 0.978407
vn 0.004712 0.999934 -0.010497
vn 0.004712 0.999934 -0.010497
vn 0.004712 0.999934 -0.010497
vn 0.004712 0.999934 -0.010497
vn -0.197196 0.057744 -0.978662
vn -0.197196 0.057744 -0.978662
vn -0.197196 0.057744 -0.978662
vn -0.197196 0.057744 -0.978662
vn 0.008973 -0.999918 0.009098
vn 0.008973 -0.999918 0.009098
vn 0.008973 -0.999918 0.009098
vn 0.008973 -0.999918 0.009098
vn 0.818992 -0.573355 0.022713
vn 0.818992 -0.573355 0.022713
vn 0.818992 -0.573355 0.022713
vn 0.818992 -0.573355 0.022713
vn -0.976377 0.000000 0.216075
vn -0.976377 0.000000 0.216075
vn -0.976377 0.000000 0.216075
vn -0.976377 0.000000 0.216075
vn -0.000428 0.108382 0.994109
vn -0.000428 0.108382 0.994109
vn -0.000428 0.108382 0.994109
vn -0.000428 0.108382 0.994109
vn -1.000000 -0.000105 0.000322
vn -1.000000 -0.000105 0.000322
vn -1.000000 -0.000105 0.000322
vn -1.000000 -0.000105 0.000322
vn 0.000428 -0.108382 -0.994109
vn 0.000428 -0.108382 -0.994109
vn 0.000428 -0.108382 -0.994109
vn 0.000428 -0.108382 -0.994109
vn 1.000000 0.000105 -0.000325
vn 1.000000 0.000105 -0.000325
vn 1.000000 0.000105 -0.000325
vn 1.000000 0.000105 -0.000325
vn -0.000151 0.997070 -0.076494
vn -0.000151 0.997070 -0.076494
vn -0.000151 0.997070 -0.076494
vn -0.000151 0.997070 -0.076494
vn 0.000151 -0.997069 0.076509
vn 0.000151 -0.997069 0.076509
vn 0.000151 -0.997069 0.076509
vn 0.000151 -0.997069 0.076509
vn 0.249569 0.000000 0.968357
vn 0.249569 0.000000 0.968357
vn 0.249569 0.000000 0.968357
vn 0.249569 0.000000 0.968357
vn 0.000000 1.000000 -0.000000
vn 0.000000 1.000000 -0.000000
vn 0.000000 1.000000 -0.000000
vn 0.000000 1.000000 -0.000000
vn -0.249569 0.000000 -0.968357
vn -0.249569 0.000000 -0.968357
vn -0.249569 0.000000 -0.968357
vn -0.249569 0.000000 -0.968357
vn 0.000000 -1.000000 -0.000000
vn 0.000000 -1.000000 -0.000000
vn 0.000000 -1.000000 -0.000000
vn 0.000000 -1.000000 -0.000000
vn 0.976377 0.000000 -0.216075
vn 0.976377 0.000000 -0.216075
vn 0.976377 0.000000 -0.216075
vn 0.976377 0.000000 -0.216075
vn -0.976377 0.000000 0.216075
vn -0.976377 0.000000 0.216075
vn -0.976377 0.000000 0.216075
vn -0.976377 0.000000 0.216075
vn 0.008382 0.000319 0.999965
vn 0.008382 0.000319 0.999965
vn 0.008382 0.000319 0.999965
vn 0.008382 0.000319 0.999965
vn 0.167319 0.985818 0.012933
vn 0.167319 0.985818 0.012933
vn 0.167319 0.985818 0.012933
vn 0.167319 0.985818 0.012933
vn -0.008487 -0.000380 -0.999964
vn -0.008519 -0.000399 -0.999964
vn -0.008382 -0.000319 -0.999965
vn -0.008382 -0.000319 -0.999965
vn -0.469637 -0.882113 -0.036302
vn -0.469637 -0.882113 -0.036302
vn -0.469637 -0.882113 -0.036302
vn -0.469637 -0.882113 -0.036302
vn 0.812461 -0.579624 0.062799
vn 0.812461 -0.579624 0.062799
vn 0.812461 -0.579624 0.062799
vn 0.812461 -0.579624 0.062799
vn -0.714285 0.697674 -0.055210
vn -0.714285 0.697674 -0.055210
vn -0.714285 0.697674 -0.055211
vn -0.714285 0.697674 -0.055211
vn 0.008567 0.000590 0.999963
vn 0.008567 0.000590 0.999963
vn 0.008567 0.000590 0.999963
vn 0.008567 0.000590 0.999963
vn -0.714285 0.697673 -0.055212
vn -0.714285 0.697673 -0.055212
vn -0.008576 -0.000432 -0.999963
vn -0.008576 -0.000432 -0.999963
vn 0.790952 -0.608817 0.061138
vn 0.790952 -0.608817 0.061138
vn 0.790952 -0.608817 0.061138
vn 0.790952 -0.608817 0.061138
vn -0.386854 -0.921656 -0.029904
vn -0.386854 -0.921656 -0.029904
vn -0.386854 -0.921656 -0.029904
vn -0.386854 -0.921656 -0.029904
vn -0.008755 -0.000344 -0.999962
vn -0.008755 -0.000344 -0.999962
vn -0.008755 -0.000344 -0.999962
vn -0.008755 -0.000344 -0.999962
vn 0.807034 0.587200 0.062382
vn 0.807034 0.587200 0.062382
vn 0.807034 0.587200 0.062382
vn 0.807034 0.587200 0.062382
vn 0.008755 0.000344 0.999962
vn 0.008755 0.000344 0.999962
vn 0.008755 0.000344 0.999962
vn 0.008755 0.000344 0.999962
vn 0.008379 -0.000046 0.999965
vn 0.008379 -0.000046 0.999965
vn 0.008379 -0.000046 0.999965
vn 0.008379 -0.000046 0.999965
vn 0.008919 0.000245 0.999960
vn 0.008919 0.000245 0.999960
vn 0.008919 0.000245 0.999960
vn 0.008919 0.000245 0.999960
vn 0.008651 0.000936 0.999962
vn 0.008651 0.000936 0.999962
vn 0.008651 0.000936 0.999962
vn 0.008651 0.000936 0.999962
vn 0.008164 0.000852 0.999966
vn 0.008164 0.000852 0.999966
vn 0.008164 0.000852 0.999966
vn 0.008164 0.000852 0.999966
vn -0.305480 -0.645104 0.700374
vn -0.305480 -0.645104 0.700374
vn -0.305480 -0.645104 0.700374
vn -0.305480 -0.645104 0.700374
vn -0.677380 0.312604 0.665909
vn -0.677380 0.312604 0.665909
vn -0.677380 0.312604 0.665909
vn -0.677380 0.312604 0.665909
vn 0.695030 -0.344603 0.631016
vn 0.695030 -0.344603 0.631016
vn 0.695030 -0.344603 0.631017
vn 0.695030 -0.344603 0.631016
vn 0.273410 0.659563 0.700159
vn 0.273410 0.659563 0.700159
vn 0.273410 0.659563 0.700159
vn 0.273410 0.659563 0.700159
s 1
g Broken_wooden_house
usemtl initialShadingGroup
f 1/1/1 2/2/2 12/20/3 9/15/4
s off
f 3/3/5 4/4/6 6/6/7 5/5/8
f 10/17/9 11/18/10 8/8/11 7/7/12
f 7/7/13 8/8/14 2/10/15 1/9/16
s 2
f 2/2/17 8/11/18 11/19/19 12/20/20
s 3
f 7/13/21 1/1/22 9/15/23 10/16/24
f 10/16/24 9/15/23 3/3/25 5/14/26
s off
f 13/21/27 14/22/28 15/23/29 16/24/30
s 2
f 12/20/20 11/19/19 6/12/31 4/4/32
s 1
f 9/15/4 12/20/3 4/4/33 3/3/34
s off
f 17/25/35 18/26/36 19/27/37 20/28/38
f 6/6/39 11/18/40 15/23/41 14/22/42
f 11/18/43 10/17/44 16/24/45 15/23/46
f 10/17/47 5/5/48 13/21/49 16/24/50
f 5/5/51 6/6/52 24/32/53 21/29/54
s 4
f 6/6/55 14/22/56 23/31/57 24/32/58
s 5
f 14/22/59 13/21/60 22/30/61 23/31/62
s 6
f 13/21/63 5/5/64 21/29/65 22/30/66
f 22/30/66 21/29/65 17/25/67 20/28/68
s 5
f 23/31/62 22/30/61 20/28/69 19/27/70
s 4
f 24/32/58 23/31/57 19/27/71 18/26/72
s off
f 26/33/73 25/34/74 27/35/75 28/36/76
f 21/29/77 24/32/78 25/34/79 26/33/80
f 24/32/81 18/26/82 27/35/83 25/34/84
f 18/26/85 17/25/86 28/36/87 27/35/88
f 17/25/89 21/29/90 26/33/91 28/36/92
f 29/37/93 30/38/94 32/39/95 31/40/96
f 31/40/97 32/39/98 34/41/99 33/42/100
f 33/42/101 34/41/102 36/43/103 35/44/104
f 35/44/105 36/43/106 30/45/107 29/46/108
f 46/47/109 45/48/110 47/49/111 48/50/112
f 35/51/113 29/37/114 31/40/115 33/52/116
f 30/38/117 36/53/118 37/54/119 38/55/120
s 7
f 36/53/121 34/56/122 39/57/123 37/54/124
s off
f 34/56/125 32/39/126 40/58/127 39/57/128
s 8
f 32/39/129 30/38/130 38/55/131 40/58/132
s off
f 38/55/133 37/54/134 41/59/135 42/60/136
s 7
f 37/54/124 39/57/123 43/61/137 41/59/138
s off
f 39/57/139 40/58/140 44/62/141 43/61/142
s 8
f 40/58/132 38/55/131 42/60/143 44/62/144
s off
f 42/60/145 41/59/146 45/48/147 46/47/148
f 41/59/149 43/61/150 47/49/151 45/48/152
f 43/61/153 44/62/154 48/50/155 47/49/156
f 44/62/157 42/60/158 46/47/159 48/50/160
f 49/63/161 50/64/162 52/65/163 51/66/164
f 51/66/165 52/65/166 54/67/167 53/68/168
f 53/68/169 54/67/170 56/69/171 55/70/172
f 55/70/173 56/69/174 50/71/175 49/72/176
f 50/64/177 56/73/178 54/74/179 52/65/180
f 55/75/181 49/63/182 51/66/183 53/76/184
f 57/77/185 58/78/186 60/79/187 59/80/188
f 59/80/189 60/79/190 62/81/191 61/82/192
f 61/82/193 62/81/194 64/83/195 63/84/196
f 63/84/197 64/83/198 58/85/199 57/86/200
f 58/78/201 64/87/202 62/88/203 60/79/204
f 63/89/205 57/77/206 59/80/207 61/90/208
f 65/91/209 66/92/210 68/93/211 67/94/212
f 67/94/213 68/93/214 70/95/215 69/96/216
f 69/96/217 70/95/218 72/97/219 71/98/220
f 71/98/221 72/97/222 66/99/223 65/100/224
f 66/92/225 72/101/226 70/102/227 68/93/228
f 71/103/229 65/91/230 67/94/231 69/104/232
s 9
f 73/105/233 74/106/234 76/107/235 75/108/236
s off
f 75/108/237 76/107/238 78/109/239 77/110/240
s 10
f 77/110/241 78/109/242 80/111/243 79/112/244
s off
f 79/112/245 80/111/246 74/113/247 73/114/248
f 86/115/249 85/116/250 87/117/251 88/118/252
f 79/119/253 73/105/254 75/108/255 77/120/256
f 74/106/257 80/121/258 81/122/259 82/123/260
s 10
f 80/121/243 78/124/242 83/125/261 81/122/262
s off
f 78/124/263 76/107/264 84/126/265 83/125/266
s 9
f 76/107/235 74/106/234 82/123/267 84/126/268
s off
f 82/123/269 81/122/270 85/116/271 86/115/272
f 81/122/273 83/125/274 87/117/275 85/116/276
f 83/125/277 84/126/278 88/118/279 87/117/280
f 84/126/281 82/123/282 86/115/283 88/118/284
f 89/127/285 90/128/286 92/129/287 91/130/288
f 91/130/289 92/129/290 94/131/291 93/132/292
f 93/132/293 94/131/294 96/133/295 95/134/296
f 95/134/297 96/133/298 90/135/299 89/136/300
f 90/128/301 96/137/302 94/138/303 92/129/304
f 95/139/305 89/127/306 91/130/307 93/140/308
f 97/141/309 98/142/310 100/143/311 99/144/312
f 99/144/313 100/143/314 102/145/315 101/146/316
f 101/146/317 102/145/318 104/147/319 103/148/320
f 103/148/321 104/147/322 98/149/323 97/150/324
f 114/151/325 113/152/326 115/153/327 116/154/328
f 103/155/329 97/141/330 99/144/331 101/156/332
f 98/142/333 104/157/334 105/158/335 106/159/336
s 11
f 104/157/337 102/160/338 107/161/339 105/158/340
s off
f 102/160/341 100/143/342 108/162/343 107/161/344
s 12
f 100/143/345 98/142/346 106/159/347 108/162/348
s off
f 106/159/349 105/158/350 109/163/351 110/164/352
s 11
f 105/158/340 107/161/339 111/165/353 109/163/354
s off
f 107/161/355 108/162/356 112/166/357 111/165/358
s 12
f 108/162/348 106/159/347 110/164/359 112/166/360
s off
f 110/164/361 109/163/362 113/152/363 114/151/364
f 109/163/365 111/165/366 115/153/367 113/152/368
f 111/165/369 112/166/370 116/154/371 115/153/372
f 112/166/373 110/164/374 114/151/375 116/154/376
f 117/167/377 118/168/378 120/169/379 119/170/380
f 119/170/381 120/169/382 122/171/383 121/172/384
f 121/172/385 122/171/386 124/173/387 123/174/388
f 123/174/389 124/173/390 118/175/391 117/176/392
f 118/168/393 124/177/394 122/178/395 120/169/396
f 123/179/397 117/167/398 119/170/399 121/180/400
s 13
f 125/181/401 126/182/402 128/183/403 127/184/404
s off
f 127/184/405 128/183/406 130/185/407 129/186/408
s 14
f 129/186/409 130/185/410 132/187/411 131/188/412
s off
f 131/188/413 132/187/414 126/189/415 125/190/416
f 138/191/417 137/192/418 139/193/419 140/194/420
f 131/195/421 125/181/422 127/184/423 129/196/424
f 126/182/425 132/197/426 133/198/427 134/199/428
s 14
f 132/197/411 130/200/410 135/201/429 133/198/430
s off
f 130/200/431 128/183/432 136/202/433 135/201/434
s 13
f 128/183/403 126/182/402 134/199/435 136/202/436
s off
f 134/199/437 133/198/438 137/192/439 138/191/440
f 133/198/441 135/201/442 139/193/443 137/192/444
f 135/201/445 136/202/446 140/194/447 139/193/448
f 136/202/449 134/199/450 138/191/451 140/194/452
s 15
f 141/203/453 142/204/454 149/205/455 150/206/456
s off
f 143/207/457 144/208/458 146/209/459 145/210/460
s 16
f 148/211/461 147/212/462 151/213/463 152/214/464
s off
f 147/212/465 148/211/466 142/215/467 141/216/468
s 17
f 170/217/469 169/218/470 171/219/471 172/220/472
s 18
f 147/221/473 141/203/474 150/206/475 151/222/476
s 15
f 150/206/456 149/205/455 153/223/477 154/224/478
s 18
f 151/222/476 150/206/475 154/224/479 155/225/480
s 16
f 155/226/481 156/227/482 152/214/464 151/213/463
s 17
f 170/217/469 172/220/472 173/228/483 174/229/484
s 15
f 154/224/478 153/223/477 157/230/485 158/231/486
s 18
f 155/225/480 154/224/479 158/231/487 159/232/488
s 16
f 159/233/489 160/234/490 156/227/482 155/226/481
s 17
f 174/229/484 173/228/483 175/235/491 176/236/492
s off
f 166/237/493 165/238/494 167/239/495 168/240/496
s 18
f 159/232/488 158/231/487 143/207/497 145/241/498
s 16
f 145/210/499 146/209/500 160/234/490 159/233/489
s 17
f 176/236/492 175/235/491 177/242/501 178/243/502
s off
f 158/231/503 157/230/504 161/244/505 162/245/506
f 157/230/507 144/208/508 163/246/509 161/244/510
f 144/208/511 143/207/512 164/247/513 163/246/514
f 143/207/515 158/231/516 162/245/517 164/247/518
f 162/245/519 161/244/520 165/238/521 166/237/522
f 161/244/523 163/246/524 167/239/525 165/238/526
f 163/246/527 164/247/528 168/240/529 167/239/530
f 164/247/531 162/245/532 166/237/533 168/240/534
f 149/205/535 142/204/536 169/218/537 170/217/538
f 180/248/539 179/249/540 181/250/541 182/251/542
f 148/252/543 152/253/544 172/220/545 171/219/546
f 152/253/547 156/254/548 173/228/549 172/220/550
f 153/223/551 149/205/552 170/217/553 174/229/554
f 156/254/555 160/255/556 175/235/557 173/228/558
f 157/230/559 153/223/560 174/229/561 176/236/562
f 160/255/563 146/256/564 177/242/565 175/235/566
f 146/256/567 144/208/568 178/243/569 177/242/570
f 144/208/571 157/230/572 176/236/573 178/243/574
f 142/204/575 148/252/576 179/249/577 180/248/578
f 148/252/579 171/219/580 181/250/581 179/249/582
f 171/219/583 169/218/584 182/251/585 181/250/586
f 169/218/587 142/204/588 180/248/589 182/251/590
f 183/257/591 191/258/592 192/259/593 185/260/594
s 19
f 185/260/595 192/259/596 193/261/597 187/262/598
s off
f 187/262/599 193/261/600 194/263/601 189/264/602
s 20
f 189/264/603 194/263/604 191/265/605 183/266/606
s off
f 184/267/607 190/268/608 188/269/609 186/270/610
f 189/271/611 183/257/612 185/260/613 187/272/614
s 19
f 193/261/597 192/259/596 186/270/615 188/273/616
s 20
f 191/265/605 194/263/604 190/274/617 184/275/618
s off
f 191/258/619 184/267/620 196/276/621 195/277/622
f 184/267/623 186/270/624 197/278/625 196/276/626
f 186/270/627 192/259/628 198/279/629 197/278/630
f 192/259/631 191/258/632 195/277/633 198/279/634
f 194/263/635 193/261/636 198/280/637 195/281/638
f 193/261/639 188/273/640 197/282/641 198/280/642
f 188/273/643 190/274/644 196/283/645 197/282/646
f 190/274/647 194/263/648 195/281/649 196/283/650
s 21
f 199/284/651 200/285/652 207/286/653 208/287/654
s off
f 201/288/655 202/289/656 204/290/657 203/291/658
s 22
f 206/292/659 205/293/660 209/294/661 210/295/662
s off
f 205/293/663 206/292/664 200/296/665 199/297/666
s 23
f 228/298/667 227/299/668 229/300/669 230/301/670
s 24
f 205/302/671 199/284/672 208/287/673 209/303/674
s 21
f 208/287/654 207/286/653 211/304/675 212/305/676
s 24
f 209/303/674 208/287/673 212/305/677 213/306/678
s 22
f 213/307/679 214/308/680 210/295/662 209/294/661
s 23
f 228/298/667 230/301/670 231/309/681 232/310/682
s 21
f 212/305/676 211/304/675 215/311/683 216/312/684
s 24
f 213/306/678 212/305/677 216/312/685 217/313/686
s 22
f 217/314/687 218/315/688 214/308/680 213/307/679
s 23
f 232/310/682 231/309/681 233/316/689 234/317/690
s off
f 224/318/691 223/319/692 225/320/693 226/321/694
s 24
f 217/313/686 216/312/685 201/288/695 203/322/696
s 22
f 203/291/697 204/290/698 218/315/688 217/314/687
s 23
f 234/317/690 233/316/689 235/323/699 236/324/700
s off
f 216/312/701 215/311/702 219/325/703 220/326/704
f 215/311/705 202/289/706 221/327/707 219/325/708
f 202/289/709 201/288/710 222/328/711 221/327/712
f 201/288/713 216/312/714 220/326/715 222/328/716
f 220/326/717 219/325/718 223/319/719 224/318/720
f 219/325/721 221/327/722 225/320/723 223/319/724
f 221/327/725 222/328/726 226/321/727 225/320/728
f 222/328/729 220/326/730 224/318/731 226/321/732
f 207/286/733 200/285/734 227/299/735 228/298/736
f 238/329/737 237/330/738 239/331/739 240/332/740
f 206/333/741 210/334/742 230/301/743 229/300/744
f 210/334/745 214/335/746 231/309/747 230/301/748
f 211/304/749 207/286/750 228/298/751 232/310/752
f 214/335/753 218/336/754 233/316/755 231/309/756
f 215/311/757 211/304/758 232/310/759 234/317/760
f 218/336/761 204/337/762 235/323/763 233/316/764
f 204/337/765 202/289/766 236/324/767 235/323/768
f 202/289/769 215/311/770 234/317/771 236/324/772
f 200/285/773 206/333/774 237/330/775 238/329/776
f 206/333/777 229/300/778 239/331/779 237/330/780
f 229/300/781 227/299/782 240/332/783 239/331/784
f 227/299/785 200/285/786 238/329/787 240/332/788
f 241/338/789 242/339/790 244/340/791 243/341/792
f 243/341/793 244/340/794 246/342/795 245/343/796
f 245/343/797 246/342/798 248/344/799 247/345/800
f 247/345/801 248/344/802 242/346/803 241/347/804
f 242/339/805 248/348/806 246/349/807 244/340/808
f 247/350/809 241/338/810 243/341/811 245/351/812
s 25
f 249/352/813 250/353/814 252/354/815 251/355/816
s off
f 251/355/817 252/354/818 254/356/819 253/357/820
s 26
f 253/357/821 254/356/822 256/358/823 255/359/824
s off
f 255/359/825 256/358/826 250/360/827 249/361/828
f 262/362/829 261/363/830 263/364/831 264/365/832
f 255/366/833 249/352/834 251/355/835 253/367/836
f 250/353/837 256/368/838 257/369/839 258/370/840
s 26
f 256/368/823 254/371/822 259/372/841 257/369/842
s off
f 254/371/843 252/354/844 260/373/845 259/372/846
s 25
f 252/354/815 250/353/814 258/370/847 260/373/848
s off
f 258/370/849 257/369/850 261/363/851 262/362/852
f 257/369/853 259/372/854 263/364/855 261/363/856
f 259/372/857 260/373/858 264/365/859 263/364/860
f 260/373/861 258/370/862 262/362/863 264/365/864
f 265/374/865 266/375/866 268/376/867 267/377/868
f 267/377/869 268/376/870 270/378/871 269/379/872
f 269/379/873 270/378/874 272/380/875 271/381/876
f 271/381/877 272/380/878 266/382/879 265/383/880
f 266/375/881 272/384/882 270/385/883 268/376/884
f 271/386/885 265/374/886 267/377/887 269/387/888
f 273/388/889 274/389/890 276/390/891 275/391/892
f 275/391/893 276/390/894 278/392/895 277/393/896
f 277/393/897 278/392/898 280/394/899 279/395/900
f 279/395/901 280/394/902 274/396/903 273/397/904
f 274/389/905 280/398/906 278/399/907 276/390/908
f 279/400/909 273/388/910 275/391/911 277/401/912
f 281/402/913 282/403/914 284/404/915 283/405/916
f 283/405/917 284/404/918 286/406/919 285/407/920
f 285/407/921 286/406/922 288/408/923 287/409/924
f 287/409/925 288/408/926 282/410/927 281/411/928
f 282/403/929 288/412/930 286/413/931 284/404/932
f 287/414/933 281/402/934 283/405/935 285/415/936
f 289/416/937 290/417/938 297/418/939 298/419/940
f 291/420/941 292/421/942 294/422/943 293/423/944
s 27
f 299/424/945 300/425/946 296/426/947 295/427/948
s off
f 295/427/949 296/426/950 290/428/951 289/429/952
f 290/417/953 296/430/954 300/431/955 297/418/956
s 28
f 295/432/957 289/416/958 298/419/959 299/433/960
s off
f 310/434/961 309/435/962 311/436/963 312/437/964
s 28
f 299/433/960 298/419/959 291/420/965 293/438/966
s 27
f 293/423/967 294/422/968 300/425/946 299/424/945
s off
f 302/439/969 301/440/970 303/441/971 304/442/972
f 297/418/973 300/431/974 301/440/975 302/439/976
f 300/431/977 294/443/978 303/441/979 301/440/980
f 294/443/981 292/421/982 304/442/983 303/441/984
f 292/421/985 297/418/986 302/439/987 304/442/988
f 298/419/989 297/418/990 305/444/991 306/445/992
f 297/418/993 292/421/994 307/446/995 305/444/996
f 292/421/997 291/420/998 308/447/999 307/446/1000
f 291/420/1001 298/419/1002 306/445/1003 308/447/1004
f 312/448/1005 311/449/1006 307/450/1007 308/451/1008
f 311/452/1009 309/453/1010 305/454/1011 307/455/1012
f 310/456/1013 312/457/1014 308/458/1015 306/459/1016
f 309/460/1017 310/461/1018 306/462/1019 305/463/1020
