# This file uses centimeters as units for non-parametric coordinates.

mtllib Porp_Coffin_4.mtl
g default
v 147.328236 0.584147 169.497406
v 147.328236 0.584147 -6.419081
v 147.328236 9.352318 169.497406
v 147.328236 9.352318 -6.419081
v 81.978478 9.352318 169.497406
v 81.978478 9.352318 -6.419081
v 81.978478 0.584148 169.497406
v 81.978478 0.584148 -6.419081
v 140.880565 9.352318 164.731195
v 140.880565 9.352318 -1.652920
v 88.426166 9.352318 -1.652920
v 88.426166 9.352318 164.731195
v 135.652974 47.698018 164.731195
v 135.652974 47.698018 -1.652920
v 93.653774 47.698018 -1.652920
v 93.653774 47.698018 164.731195
v 140.880615 32.427078 -1.652920
v 140.880615 32.427078 164.731195
v 88.426166 32.427078 164.731195
v 88.426166 32.427078 -1.652920
v 154.084095 32.427078 -1.652920
v 154.084095 32.427078 164.731195
v 75.222652 32.427078 164.731195
v 75.222652 32.427078 -1.652920
v 152.847091 38.229808 -1.652920
v 145.966688 44.486128 -1.652920
v 152.847091 38.229808 164.731195
v 145.966688 44.486128 164.731195
v 76.459656 38.229808 164.731195
v 83.340093 44.486128 164.731195
v 76.459656 38.229808 -1.652920
v 83.340093 44.486128 -1.652920
v 105.684353 49.165073 164.731195
v 105.684353 49.165073 -1.652920
v 123.622394 49.165073 164.731195
v 123.622394 49.165073 -1.652920
vt 0.580993 0.069498
vt 0.581026 0.760846
vt 0.581027 0.795305
vt 0.546534 0.069500
vt 0.741741 0.945992
vt 0.810295 0.937621
vt 0.110869 0.935738
vt 0.179413 0.944188
vt 0.837815 0.035028
vt 0.837851 0.795293
vt 0.837849 0.760834
vt 0.837816 0.069486
vt 0.986851 0.010277
vt 0.986741 0.614995
vt 0.986830 0.127199
vt 0.812474 0.016298
vt 0.081194 0.848678
vt 0.840071 0.850596
vt 0.380102 0.849071
vt 0.541162 0.850645
vt 0.316723 0.014823
vt 0.005954 0.848579
vt 0.012960 0.881655
vt 0.393413 0.014823
vt 0.393413 0.810164
vt 0.465922 0.850657
vt 0.472976 0.883723
vt 0.316723 0.810164
vt 0.281632 0.944322
vt 0.510904 0.014823
vt 0.869064 0.919309
vt 0.052121 0.917358
vt 0.570965 0.937660
vt 0.408994 0.917827
vt 0.512190 0.919368
vt 0.639522 0.946009
vt 0.521196 0.088232
vt 0.606330 0.016308
vt 0.897615 0.088215
vt 0.986762 0.498073
vt 0.897646 0.742101
vt 0.812512 0.814025
vt 0.606368 0.814035
vt 0.521227 0.742118
vt 0.927585 0.614987
vt 0.927607 0.498065
vt 0.927674 0.127191
vt 0.927696 0.010269
vt 0.872308 0.760833
vt 0.872275 0.069485
vt 0.546567 0.760848
vt 0.580992 0.035040
vt 0.510904 0.810164
vt 0.503019 0.810164
vt 0.503019 0.014823
vt 0.008196 0.810164
vt 0.008196 0.014823
vt 0.350199 0.936052
vt 0.016081 0.014823
vt 0.016081 0.810164
vt 0.448249 0.882227
vt 0.426737 0.014823
vt 0.426737 0.810164
vt 0.459159 0.014823
vt 0.908266 0.883651
vt 0.459159 0.810164
vt 0.092362 0.810164
vt 0.092362 0.014823
vt 0.986674 0.985868
vt 0.927518 0.985860
vt 0.125686 0.014823
vt 0.455341 0.849170
vt 0.125686 0.810164
vt 0.059941 0.810164
vt 0.059941 0.014823
vt 0.915310 0.850583
vt 0.202376 0.014823
vt 0.202376 0.810164
vn 1.000000 0.000000 0.000000
vn 1.000000 0.000000 0.000000
vn 1.000000 0.000000 0.000000
vn 1.000000 0.000000 0.000000
vn 0.048895 0.998804 0.000000
vn 0.121047 0.992647 0.000000
vn 0.121047 0.992647 0.000000
vn 0.048895 0.998804 0.000000
vn -1.000000 0.000000 -0.000000
vn -1.000000 0.000000 -0.000000
vn -1.000000 0.000000 -0.000000
vn -1.000000 0.000000 -0.000000
vn -0.000000 -1.000000 0.000000
vn -0.000000 -1.000000 0.000000
vn -0.000000 -1.000000 0.000000
vn -0.000000 -1.000000 0.000000
vn 0.000000 0.000000 -1.000000
vn 0.000000 0.000000 -1.000000
vn 0.000000 0.000000 -1.000000
vn 0.000000 0.000000 -1.000000
vn 0.000000 0.000000 1.000000
vn 0.000000 0.000000 1.000000
vn 0.000000 0.000000 1.000000
vn 0.000000 0.000000 1.000000
vn -0.000000 1.000000 -0.000000
vn -0.000000 1.000000 -0.000000
vn -0.000000 1.000000 -0.000000
vn -0.000000 1.000000 -0.000000
vn 0.000000 1.000000 0.000000
vn 0.000000 1.000000 0.000000
vn 0.000000 1.000000 0.000000
vn 0.000000 1.000000 0.000000
vn 0.000000 1.000000 0.000000
vn 0.000000 1.000000 0.000000
vn 0.000000 1.000000 0.000000
vn 0.000000 1.000000 0.000000
vn 0.000000 1.000000 0.000000
vn 0.000000 1.000000 0.000000
vn 0.000000 1.000000 0.000000
vn 0.000000 1.000000 0.000000
vn 1.000000 -0.000002 0.000000
vn 1.000000 -0.000002 0.000000
vn 1.000000 -0.000002 0.000000
vn 1.000000 -0.000002 0.000000
vn 0.000000 -0.000000 -1.000000
vn 0.000000 0.000000 -1.000000
vn 0.000000 0.000000 -1.000000
vn 0.000000 -0.000000 -1.000000
vn -1.000000 0.000000 -0.000000
vn -1.000000 0.000000 -0.000000
vn -1.000000 0.000000 -0.000000
vn -1.000000 0.000000 -0.000000
vn 0.000000 0.000000 1.000000
vn 0.000000 0.000000 1.000000
vn 0.000000 0.000000 1.000000
vn 0.000000 0.000000 1.000000
vn 0.978024 0.208492 0.000000
vn 0.978024 0.208492 0.000000
vn 0.978024 0.208492 0.000000
vn 0.978024 0.208492 0.000000
vn 0.000000 0.000000 1.000000
vn 0.000000 0.000000 1.000000
vn -0.978024 0.208492 -0.000000
vn -0.978024 0.208492 -0.000000
vn -0.978024 0.208492 -0.000000
vn -0.978024 0.208492 -0.000000
vn 0.000000 0.000000 -1.000000
vn 0.000000 -0.000000 -1.000000
vn 0.000000 -1.000000 0.000000
vn 0.000000 -1.000000 0.000000
vn 0.000000 -1.000000 0.000000
vn 0.000000 -1.000000 0.000000
vn 0.297335 0.954773 0.000000
vn 0.297335 0.954773 0.000000
vn 0.482366 0.875970 0.000000
vn 0.482366 0.875970 0.000000
vn 0.000000 -1.000000 0.000000
vn 0.000000 -1.000000 0.000000
vn 0.000000 -1.000000 0.000000
vn 0.000000 -1.000000 0.000000
vn -0.297336 0.954773 -0.000000
vn -0.297336 0.954773 -0.000000
vn -0.482366 0.875970 -0.000000
vn -0.482366 0.875970 -0.000000
vn 0.672756 0.739865 0.000000
vn 0.672756 0.739865 0.000000
vn -0.672754 0.739866 -0.000000
vn -0.672754 0.739866 -0.000000
vn 0.000000 -0.000001 -1.000000
vn 0.000000 -0.000000 -1.000000
vn 0.000000 0.000000 1.000000
vn 0.000000 0.000000 1.000000
vn 0.000000 0.000000 1.000000
vn 0.000000 0.000000 1.000000
vn 0.000000 -0.000000 1.000000
vn 0.000000 -0.000001 -1.000000
vn 0.000000 -0.000000 -1.000000
vn 0.000000 -0.000000 -1.000000
vn -0.121047 0.992647 -0.000000
vn -0.048895 0.998804 -0.000000
vn -0.048895 0.998804 -0.000000
vn -0.121047 0.992647 -0.000000
vn 0.000000 -0.000000 -1.000000
vn 0.000000 -0.000000 -1.000000
vn 0.000000 0.000000 1.000000
vn 0.000000 0.000000 1.000000
vn 0.000000 0.000000 1.000000
vn 0.000000 0.000000 -1.000000
s off
g Porp_Coffin_4
usemtl lambert1SG
f 1/1/1 2/2/2 4/51/3 3/4/4
s 1
f 35/21/5 13/24/6 14/25/7 36/28/8
s off
f 5/50/9 6/49/10 8/11/11 7/12/12
f 2/2/13 1/1/14 7/12/15 8/11/16
f 4/3/17 2/2/18 8/11/19 6/10/20
f 1/1/21 3/52/22 5/9/23 7/12/24
f 3/4/25 4/51/26 10/44/27 9/37/28
f 11/42/29 10/43/30 4/3/31 6/10/32
f 6/49/33 5/50/34 12/39/35 11/41/36
f 5/9/37 3/52/38 9/38/39 12/16/40
f 9/14/41 10/69/42 17/70/43 18/45/44
s 2
f 17/48/45 10/13/46 11/15/47 20/47/48
s off
f 11/15/49 12/40/50 19/46/51 20/47/52
s 3
f 9/14/53 18/45/54 19/46/55 12/40/56
s off
f 22/30/57 21/53/58 25/54/59 27/55/60
s 3
f 18/18/54 13/6/61 35/5/62
s off
f 24/56/63 23/57/64 29/59/65 31/60/66
s 2
f 34/29/67 20/19/48 15/58/68
s off
f 18/62/69 17/63/70 21/53/71 22/30/72
s 5
f 14/25/73 13/24/74 28/64/75 26/66/76
s off
f 20/67/77 19/68/78 23/57/79 24/56/80
s 6
f 16/71/81 15/73/82 32/74/83 30/75/84
s 5
f 25/54/85 26/66/76 28/64/75 27/55/86
s 6
f 29/59/87 30/75/84 32/74/83 31/60/88
s 2
f 26/32/89 17/17/45 14/7/90
s 3
f 28/31/91 18/18/54 22/76/92 27/65/93
f 30/35/94 19/20/55 16/33/95
s 2
f 32/34/96 20/19/48 24/72/97 31/61/98
s 1
f 16/71/99 33/77/100 34/78/101 15/73/102
f 35/21/5 36/28/8 34/78/101 33/77/100
s 3
f 13/6/61 18/18/54 28/31/91
s 2
f 25/23/103 21/22/104 17/17/45 26/32/89
s 3
f 29/27/105 23/26/106 19/20/55 30/35/94
s 2
f 15/58/68 20/19/48 32/34/96
s 3
f 19/20/55 33/36/107 16/33/95
s 2
f 36/8/108 17/17/45 20/19/48 34/29/67
s 3
f 18/18/54 35/5/62 33/36/107 19/20/55
s 2
f 14/7/90 17/17/45 36/8/108
