# This file uses centimeters as units for non-parametric coordinates.

mtllib Floor_Wooden.mtl
g default
v 253.600228 -5.407365 -386.695135
v 496.596285 -5.407365 -386.695135
v 253.600228 1.310846 -386.695135
v 496.596285 1.310846 -386.695135
v 253.600228 1.310846 -624.091445
v 496.596285 1.310846 -624.091445
v 253.600228 -5.407365 -624.091445
v 496.596285 -5.407365 -624.091445
v 491.798000 1.310846 -386.695135
v 491.798000 1.310846 -624.091445
v 491.798000 -5.407365 -624.091445
v 491.798000 -5.407365 -386.695135
v 258.398477 1.310846 -386.695135
v 258.398477 1.310846 -624.091445
v 258.398477 -5.407365 -624.091445
v 258.398477 -5.407365 -386.695135
v 491.798000 1.310846 -620.225809
v 258.398477 1.310846 -620.225809
v 253.600228 1.310846 -620.225809
v 253.600228 -5.407365 -620.225809
v 258.398477 -5.407365 -620.225809
v 491.798000 -5.407365 -620.225809
v 496.596285 -5.407365 -620.225809
v 496.596285 1.310846 -620.225809
v 491.798000 1.310846 -390.560771
v 258.398477 1.310846 -390.560771
v 253.600228 1.310846 -390.560771
v 253.600228 -5.407365 -390.560771
v 258.398477 -5.407365 -390.560771
v 491.798000 -5.407365 -390.560771
v 496.596285 -5.407365 -390.560771
v 496.596285 1.310846 -390.560771
vt 0.972993 0.022410
vt 0.964882 0.022411
vt 0.964881 0.011054
vt 0.569713 0.994134
vt 0.558670 0.985241
vt 0.984351 0.028944
vt 0.984388 0.423713
vt 0.558591 0.447860
vt 0.964920 0.423714
vt 0.973031 0.423714
vt 0.972994 0.028945
vt 0.964883 0.028945
vt 0.562223 0.022449
vt 0.562224 0.028983
vt 0.010550 0.985322
vt 0.010552 0.994218
vt 0.021593 0.994216
vt 0.021592 0.985321
vt 0.570372 0.423752
vt 0.021512 0.447940
vt 0.010471 0.447942
vt 0.562261 0.423752
vt 0.570335 0.022448
vt 0.570335 0.028983
vt 0.558592 0.456756
vt 0.021513 0.456836
vt 0.984387 0.417178
vt 0.973030 0.417179
vt 0.964919 0.417180
vt 0.570372 0.417217
vt 0.562261 0.417218
vt 0.010472 0.456837
vt 0.550867 0.028984
vt 0.550904 0.417219
vt 0.569712 0.985239
vt 0.569633 0.456754
vt 0.562262 0.435109
vt 0.550905 0.423753
vt 0.973032 0.435070
vt 0.569632 0.447859
vt 0.964921 0.435071
vt 0.570374 0.435108
vt 0.558672 0.994136
vt 0.570334 0.011091
vt 0.550867 0.022450
vt 0.562222 0.011092
vt 0.972992 0.011053
vt 0.984350 0.022409
vn 0.000000 0.000000 1.000000
vn 0.000000 0.000000 1.000000
vn 0.000000 0.000000 1.000000
vn 0.000000 0.000000 1.000000
vn 0.000000 1.000000 0.000000
vn 0.000000 1.000000 0.000000
vn 0.000000 1.000000 0.000000
vn 0.000000 1.000000 0.000000
vn 0.000000 0.000000 -1.000000
vn 0.000000 0.000000 -1.000000
vn 0.000000 0.000000 -1.000000
vn 0.000000 0.000000 -1.000000
vn 0.000000 -1.000000 0.000000
vn 0.000000 -1.000000 0.000000
vn 0.000000 -1.000000 0.000000
vn 0.000000 -1.000000 0.000000
vn 1.000000 0.000000 0.000000
vn 1.000000 0.000000 0.000000
vn 1.000000 0.000000 0.000000
vn 1.000000 0.000000 0.000000
vn -1.000000 0.000000 0.000000
vn -1.000000 0.000000 0.000000
vn -1.000000 0.000000 0.000000
vn -1.000000 0.000000 0.000000
vn 0.000000 1.000000 0.000000
vn 0.000000 1.000000 0.000000
vn 0.000000 1.000000 0.000000
vn 0.000000 1.000000 0.000000
vn 0.000000 0.000000 -1.000000
vn 0.000000 0.000000 -1.000000
vn 0.000000 0.000000 -1.000000
vn 0.000000 0.000000 -1.000000
vn 0.000000 -1.000000 0.000000
vn 0.000000 -1.000000 0.000000
vn 0.000000 -1.000000 0.000000
vn 0.000000 -1.000000 0.000000
vn 0.000000 0.000000 1.000000
vn 0.000000 0.000000 1.000000
vn 0.000000 0.000000 1.000000
vn 0.000000 0.000000 1.000000
vn 0.000000 1.000000 0.000000
vn 0.000000 1.000000 0.000000
vn 0.000000 1.000000 0.000000
vn 0.000000 1.000000 0.000000
vn 0.000000 1.000000 0.000000
vn 0.000000 1.000000 0.000000
vn -1.000000 0.000000 0.000000
vn -1.000000 0.000000 0.000000
vn -1.000000 0.000000 0.000000
vn -1.000000 0.000000 0.000000
vn 0.000000 -1.000000 0.000000
vn 0.000000 -1.000000 0.000000
vn 0.000000 -1.000000 0.000000
vn 0.000000 -1.000000 0.000000
vn 0.000000 -1.000000 0.000000
vn 0.000000 -1.000000 0.000000
vn 0.000000 -1.000000 0.000000
vn 0.000000 -1.000000 0.000000
vn 1.000000 0.000000 0.000000
vn 1.000000 0.000000 0.000000
vn 1.000000 0.000000 0.000000
vn 1.000000 0.000000 0.000000
vn 0.000000 1.000000 0.000000
vn 0.000000 1.000000 0.000000
s 1
g Floor_Wooden All_Home
usemtl set9
f 1/1/1 16/2/2 13/3/3 3/47/4
s 2
f 3/4/5 13/43/6 26/5/7 27/35/8
s 3
f 5/39/9 14/41/10 15/9/11 7/10/12
s 4
f 28/11/13 29/12/14 16/2/15 1/1/16
s 5
f 2/13/17 31/14/18 32/33/19 4/45/20
s 6
f 28/11/21 1/1/22 3/48/23 27/6/24
s 2
f 9/17/25 4/16/26 32/15/27 25/18/28
s 3
f 11/19/29 10/42/30 6/37/31 8/22/32
s 4
f 12/23/33 30/24/34 31/14/35 2/13/36
s 1
f 9/44/37 12/23/38 2/13/39 4/46/40
s 2
f 25/18/28 26/5/7 13/43/6 9/17/25
s 3
f 15/9/11 14/41/10 10/42/30 11/19/29
s 4
f 16/2/15 29/12/14 30/24/34 12/23/33
s 1
f 13/3/3 16/2/2 12/23/38 9/44/37
s 2
f 14/8/41 18/25/42 17/26/43 10/20/44
f 19/36/45 18/25/42 14/8/41 5/40/46
s 6
f 7/10/47 20/28/48 19/27/49 5/7/50
s 4
f 7/10/51 15/9/52 21/29/53 20/28/54
f 21/29/53 15/9/52 11/19/55 22/30/56
f 23/31/57 22/30/56 11/19/55 8/22/58
s 5
f 24/34/59 23/31/60 8/22/61 6/38/62
s 2
f 17/26/43 24/32/63 6/21/64 10/20/44
f 17/26/43 18/25/42 26/5/7 25/18/28
f 27/35/8 26/5/7 18/25/42 19/36/45
s 6
f 20/28/48 28/11/21 27/6/24 19/27/49
s 4
f 20/28/54 21/29/53 29/12/14 28/11/13
f 29/12/14 21/29/53 22/30/56 30/24/34
f 31/14/35 30/24/34 22/30/56 23/31/57
s 5
f 32/33/19 31/14/18 23/31/60 24/34/59
s 2
f 25/18/28 32/15/27 24/32/63 17/26/43
